<svg width="155" height="95" viewBox="0 0 155 95" fill="none" xmlns="http://www.w3.org/2000/svg">
<path d="M2.375 15.3846C2.375 13.8217 3.64197 12.5547 5.20487 12.5547H63.2478C64.8107 12.5547 66.0776 13.8217 66.0776 15.3846V50.3965C66.0776 51.9594 64.8107 53.2264 63.2478 53.2264H5.20487C3.64198 53.2264 2.375 51.9594 2.375 50.3965V15.3846Z" fill="#64CE89"/>
<g opacity="0.07">
<path d="M64.2682 0.796875L15.1094 42.9685L23.3956 54.0327H64.2682V0.796875Z" fill="white"/>
</g>
<path d="M58.9688 55.3724V9.89242C58.9688 8.77607 59.8737 7.87109 60.9901 7.87109H84.9093C86.8266 7.87109 88.6116 8.90494 89.6545 10.6138L102.211 31.1681C102.391 31.4641 102.645 31.7086 102.948 31.8781L107.036 34.1665C109.74 36.0404 109.789 35.6655 110.737 38.4616C110.773 38.5653 110.8 38.674 110.818 38.782L113.158 53.0189C113.361 54.2496 112.411 55.3682 111.164 55.3682L58.973 55.3682C58.9707 55.3682 58.9688 55.3701 58.9688 55.3724Z" fill="#47286F"/>
<path d="M114.23 52.2461H3.71441C2.97468 52.2461 2.375 53.0647 2.375 54.0744V55.3179C2.375 56.3277 2.97468 57.1463 3.71441 57.1463H114.23C114.97 57.1463 115.57 56.3277 115.57 55.3179V54.0744C115.57 53.0647 114.97 52.2461 114.23 52.2461Z" fill="#47286F"/>
<path d="M27.224 53.2258C27.224 57.4791 23.776 60.9271 19.5226 60.9271C15.2693 60.9271 11.8213 57.4791 11.8213 53.2258C11.8213 48.9724 15.2693 45.5244 19.5226 45.5244C23.776 45.5244 27.224 48.9724 27.224 53.2258Z" fill="#8EC7CA" stroke="black" stroke-width="6.15818"/>
<path d="M63.0156 13.9861V28.0383C63.0156 29.187 63.927 30.1144 65.0459 30.106L92.3431 29.8971C93.8281 29.8846 94.7924 28.2889 94.1374 26.9188L87.6396 13.2885C87.306 12.5867 86.6102 12.1356 85.8494 12.1272L65.0541 11.9142C63.9352 11.9017 63.0197 12.8332 63.0197 13.9819L63.0156 13.9861Z" fill="#52BC77"/>
<path d="M94.7828 23.0312H93.7936C92.9842 23.0312 92.3281 23.3958 92.3281 23.8455V29.0773C92.3281 29.527 92.9842 29.8915 93.7936 29.8915H94.7828C95.5922 29.8915 96.2483 29.527 96.2483 29.0773V23.8455C96.2483 23.3958 95.5922 23.0312 94.7828 23.0312Z" fill="#3F3D3E"/>
<path d="M72.6812 29.043H66.2962C65.7875 29.043 65.375 29.4554 65.375 29.9642V30.5816C65.375 31.0904 65.7875 31.5029 66.2962 31.5029H72.6812C73.19 31.5029 73.6024 31.0904 73.6024 30.5816V29.9642C73.6024 29.4554 73.19 29.043 72.6812 29.043Z" fill="#3F3D3E"/>
<path d="M58.9723 24.043H2.375V28.0856H58.9723V24.043Z" fill="white"/>
<path d="M58.9723 20H2.375V22.0213H58.9723V20Z" fill="white"/>
<path d="M100.24 53.7219C100.24 57.9752 96.7916 61.4232 92.5383 61.4232C88.2849 61.4232 84.8369 57.9752 84.8369 53.7219C84.8369 49.4685 88.2849 46.0205 92.5383 46.0205C96.7916 46.0205 100.24 49.4685 100.24 53.7219Z" fill="#8EC7CA" stroke="black" stroke-width="6.15818"/>
<path d="M106.47 43.7472V40.7152C106.47 39.878 105.791 39.1992 104.954 39.1992C104.116 39.1992 103.438 39.878 103.438 40.7152V43.7472C103.438 44.5845 104.116 45.2632 104.954 45.2632C105.791 45.2632 106.47 44.5845 106.47 43.7472Z" fill="#FEFEFE"/>
<path d="M56.4411 78.6406H36.4219V83.473H56.4411V78.6406Z" fill="#161B13"/>
<path d="M56.1095 50.2852L57.6525 56.4133L55.8304 57.6413L53.4062 50.2852H56.1095Z" fill="#101410"/>
<path d="M69.9865 93.9074C74.5183 93.0445 77.4925 88.6713 76.6297 84.1395C75.7668 79.6077 71.3936 76.6334 66.8618 77.4963C62.33 78.3591 59.3557 82.7323 60.2186 87.2641C61.0814 91.796 65.4546 94.7702 69.9865 93.9074Z" fill="#161B13"/>
<path d="M71.2645 91.3435C74.377 89.774 75.6278 85.9785 74.0583 82.866C72.4888 79.7536 68.6934 78.5028 65.5809 80.0723C62.4685 81.6417 61.2176 85.4372 62.7871 88.5497C64.3566 91.6621 68.1521 92.9129 71.2645 91.3435Z" fill="#2B3028"/>
<path d="M64.8824 88.0047C63.6145 86.0471 64.1727 83.4316 66.1304 82.1637C68.088 80.8958 70.7036 81.4539 71.9715 83.4116C73.2394 85.3693 72.6812 87.9848 70.7235 89.2527C68.7658 90.5206 66.1503 89.9624 64.8824 88.0047Z" fill="#8EC7CA"/>
<path d="M68.9354 86.4015C70.0677 85.6679 70.3907 84.1528 69.6571 83.0205L63.509 73.5352L59.4062 76.1946L65.5543 85.6798C66.288 86.8122 67.8031 87.1351 68.9354 86.4015Z" fill="#161B13"/>
<path d="M24.8323 87.0535C25.5747 82.5004 22.4854 78.2076 17.9323 77.4653C13.3792 76.7229 9.08645 79.8122 8.34412 84.3653C7.60178 88.9184 10.691 93.2112 15.2441 93.9535C19.7972 94.6958 24.09 91.6066 24.8323 87.0535Z" fill="#161B13"/>
<path d="M16.585 92.0216C20.0708 92.0216 22.8966 89.1958 22.8966 85.71C22.8966 82.2242 20.0708 79.3984 16.585 79.3984C13.0992 79.3984 10.2734 82.2242 10.2734 85.71C10.2734 89.1958 13.0992 92.0216 16.585 92.0216Z" fill="#2B3028"/>
<path d="M12.375 85.7107C12.375 83.3782 14.2649 81.4884 16.5933 81.4844C18.9258 81.4844 20.8157 83.3743 20.8197 85.7027C20.8197 88.0352 18.9298 89.925 16.6013 89.929C14.2689 89.929 12.379 88.0392 12.375 85.7107Z" fill="#8EC7CA"/>
<path d="M16.6447 86.5678C17.0673 86.5678 17.4102 86.2249 17.4102 85.7983L17.4022 72.8203H15.8672L15.8752 85.7983C15.8752 86.2209 16.2181 86.5638 16.6447 86.5638V86.5678Z" fill="#E8E9EA"/>
<path d="M58.9638 57.2148C60.4988 60.1812 61.659 63.3869 62.6399 65.5997C62.0777 65.5558 61.8943 65.7193 61.6949 65.3964C61.3002 64.7505 59.9526 61.6046 59.0834 59.946C58.4215 58.6901 58.5212 58.108 58.9638 57.2148Z" fill="#8EC7CA"/>
<path d="M9.51423 66.7891H11.6473C12.3491 67.4988 12.2494 68.5035 11.9344 69.7714C11.6433 70.9356 11.1091 72.0281 10.5987 72.8973C10.4193 72.7577 10.3196 72.678 10.3196 72.678C10.3196 72.678 8.8125 71.3702 8.8125 69.4086C8.8125 67.4469 9.51822 66.7931 9.51822 66.7931L9.51423 66.7891Z" fill="#B13A36"/>
<path d="M36.4198 72.7338C36.4198 74.4323 40.7976 82.2909 40.7976 82.2909C38.7602 82.2909 32.2293 76.075 32.0579 74.3446C31.8864 72.6142 29.2031 67.5028 29.2031 67.5028L29.4264 66.7891H38.0385C38.0385 66.7891 36.4198 71.0313 36.4198 72.7298V72.7338Z" fill="#64CE89"/>
<path d="M29.3868 82.3296C31.1531 83.9364 32.5326 84.8614 33.5573 85.3917L30.3995 85.8622C29.5702 85.3159 28.5854 84.5584 27.4371 83.5138C25.9858 82.19 24.8295 81.1654 23.7969 80.3759L26.6875 79.9453C27.4809 80.6072 28.3581 81.3926 29.3868 82.3296Z" fill="#C4870C"/>
<path d="M51.8906 48.0229C51.8906 51.0023 52.0461 53.0769 54.0527 52.1068C56.0565 51.1367 56.944 50.0976 56.944 48.7605C56.944 45.2361 51.8934 44.5095 51.8934 46.0137V48.0229H51.8906Z" fill="#47286F"/>
<path d="M53.9166 53.4933C54.7291 53.4933 55.3878 52.8346 55.3878 52.022C55.3878 51.2095 54.7291 50.5508 53.9166 50.5508C53.104 50.5508 52.4453 51.2095 52.4453 52.022C52.4453 52.8346 53.104 53.4933 53.9166 53.4933Z" fill="#272B27"/>
<path d="M53.6614 53.4907C54.333 53.4907 54.8774 52.9463 54.8774 52.2747C54.8774 51.603 54.333 51.0586 53.6614 51.0586C52.9898 51.0586 52.4453 51.603 52.4453 52.2747C52.4453 52.9463 52.9898 53.4907 53.6614 53.4907Z" fill="#101410"/>
<path d="M62.9137 77.1996C59.1778 79.6198 57.567 84.0853 58.5917 88.1721C64.688 88.0565 68.4119 85.3413 70.7803 82.9092C71.9764 81.6811 74.3846 80.6285 76.6931 79.8351C73.5672 75.4294 67.4909 74.2293 62.9137 77.1996Z" fill="#47286F"/>
<path d="M62.0203 75.7773C62.0721 75.7414 62.1558 75.6776 62.2675 75.5979C63.3081 74.8404 63.9341 73.6402 63.958 72.3524V72.2208C64.0138 69.4378 63.4476 66.6788 62.3034 64.139C60.9597 61.1646 59.0698 57.1576 57.5029 54.5102C57.5029 54.5102 57.2118 53.9879 55.9758 54.5779C55.6609 54.7295 55.3578 54.9687 55.0747 55.2717C55.5014 57.8115 56.5898 64.7809 56.5898 69.697C56.5898 72.5039 56.4104 75.4065 56.219 77.727C56.0037 80.3386 53.8029 82.3361 51.1833 82.2882H50.8644L43.7793 82.2843C41.9293 82.2843 40.482 81.1001 39.3776 79.6169C37.1009 76.5548 35.7692 74.5174 35.2071 73.6323C32.5756 69.4857 30.893 66.7864 30.893 66.7864H9.51822C9.51822 66.7864 8.8125 67.4403 8.8125 69.402C8.8125 71.3636 10.3196 72.6714 10.3196 72.6714C10.3196 72.6714 15.4989 76.9455 19.3743 76.9455C23.2498 76.9455 24.9084 78.2533 29.3819 82.3281C33.8594 86.4029 35.8689 86.0999 35.8689 86.0999H57.0444C57.0444 86.0999 57.0603 86.0481 57.0922 85.9364C56.6257 81.3513 58.2644 78.4566 62.0163 75.7773H62.0203Z" fill="#47286F"/>
<path d="M74.9488 80.4829C72.3014 77.1696 67.5209 76.3403 63.8886 78.6966C60.7149 80.754 59.4031 84.5975 60.4119 88.0464C65.4436 87.4882 68.6572 85.0879 70.7823 82.907C71.6754 81.99 73.2463 81.1686 74.9488 80.4829Z" fill="#64CE89"/>
<path d="M61.0083 61.3555C62.2842 67.2724 61.116 73.7674 59.8281 77.6229C60.4541 76.9889 61.1797 76.3789 62.0131 75.7809C62.0649 75.745 62.1486 75.6812 62.2603 75.6014C63.3009 74.8439 63.9269 73.6438 63.9508 72.3559V72.2244C64.0066 69.4414 63.4404 66.6823 62.2961 64.1425C61.9054 63.2813 61.4708 62.3284 61.0083 61.3516V61.3555Z" fill="#64CE89"/>
<path d="M20.8573 67.9375C1.75917 67.9375 0.34375 86.1107 0.34375 86.1107H39.2937L20.8613 67.9415L20.8573 67.9375Z" fill="#47286F"/>
<path d="M17.8382 72.8906C10.5418 72.8906 4.625 78.8075 4.625 86.1039H31.0515C31.0515 78.8075 25.1346 72.8906 17.8382 72.8906Z" fill="#64CE89"/>
<path d="M22.7763 66.7891C13.4545 66.7891 5.10156 74.6676 5.10156 74.6676C5.10156 74.6676 5.4285 66.7891 10.0336 66.7891H22.7763Z" fill="#161B13"/>
<path d="M9.04462 64.8828H38.0747C38.6488 64.8828 39.1193 65.3533 39.1193 65.9274C39.1193 66.5016 38.6488 66.972 38.0747 66.972H9.04462C8.47048 66.972 8 66.5016 8 65.9274C8 65.3533 8.47048 64.8828 9.04462 64.8828Z" fill="#161B13"/>
<path d="M57.5664 49.018C57.2714 45.3553 57.686 44.7981 55.9995 45.6688C54.5362 46.4234 53.9062 47.3173 53.9062 48.4143C53.9062 51.3051 57.084 51.485 57.084 51.276C57.084 50.0396 57.6063 49.5114 57.5664 49.018Z" fill="#47286F"/>
<path d="M57.6722 48.2744C57.6722 46.6201 57.4091 45.2734 57.0861 45.2734C56.7631 45.2734 56.5 46.6143 56.5 48.2744C56.5 49.9346 56.7631 51.2754 57.0861 51.2754C57.4091 51.2754 57.6722 49.9346 57.6722 48.2744Z" fill="#E8E9EA"/>
<path d="M39.807 42.4403C39.807 42.4403 39.9546 41.4914 39.9904 41.2681C40.0263 41.0448 40.9513 40.981 41.4338 41.0568C41.9162 41.1326 42.2312 40.7059 42.2751 40.4268C42.3189 40.1477 42.5502 38.6805 42.5502 38.6805C42.5502 38.6805 43.0884 38.7642 43.2001 38.7842C43.3117 38.8001 43.2997 38.513 43.1403 38.0705C42.9808 37.6279 42.7695 37.1534 42.8133 36.8743C42.8572 36.5952 44.5278 32.6042 40.9354 31.6433C37.343 30.6824 36.1947 32.2174 35.6884 32.9311C35.1102 33.7445 34.3487 35.8736 35.1541 37.5402C35.8558 38.9915 36.4379 39.5816 36.4978 40.2394C36.5576 40.9013 36.3542 41.8981 36.3542 41.8981L39.8031 42.4403H39.807Z" fill="#ECC19E"/>
<path d="M36.351 41.8919C36.2633 42.0873 35.4938 43.0123 35.2067 43.7858C32.942 49.8621 33.4803 51.0582 32.7188 60.9263L40.4218 60.2046C40.4218 60.2046 40.3899 55.0095 40.7248 52.9003C41.0597 50.7911 41.4505 47.5616 40.98 45.3727C40.5095 43.1837 39.8437 41.8281 39.8437 41.8281L36.355 41.8919H36.351Z" fill="black"/>
<path d="M50.9766 49.8465C52.4279 49.687 54.2181 49.6192 54.7444 49.994C55.2707 50.3648 55.777 50.62 55.777 50.9748V52.5138C55.777 52.7012 55.2707 53.0043 55.2707 52.5138C55.2707 52.0234 55.2388 51.4413 55.2388 51.2499C55.2388 51.0586 54.5291 50.6878 54.1543 50.6878C53.7795 50.6878 53.1376 50.7037 52.9023 51.0586C52.6671 51.4134 52.6153 51.5848 52.6153 52.0394C52.6153 52.4939 52.7827 52.6374 53.0379 52.777C53.2931 52.9165 53.325 53.088 53.2412 53.1877C53.1575 53.2873 52.3601 52.9524 51.9893 52.6295C51.6185 52.3065 51.2876 52.0075 51.2876 52.0075L50.9766 49.8425V49.8465Z" fill="#ECC19E"/>
<path d="M50.1516 76.8167C50.1874 77.3111 51.9418 79.1292 53.0741 79.3565C54.2064 79.5838 55.0716 79.9506 54.9879 80.3652C54.9042 80.7799 54.8244 81.1746 54.8244 81.1746L45.6661 79.3366C45.6661 79.3366 45.5385 78.5392 45.6661 77.9172C45.7897 77.2912 45.9571 76.8008 45.9571 76.8008L50.1555 76.8167H50.1516Z" fill="#101011"/>
<path d="M32.7231 60.9208C32.7231 62.9861 32.0573 65.7731 37.2445 65.7731C42.4317 65.7731 47.3438 65.5458 47.3438 65.5458C47.3438 65.5458 46.8334 67.3002 46.339 73.2768C46.2673 74.1261 45.7609 76.4705 45.9563 76.7974C46.1516 77.1204 46.7816 79.6681 48.0774 78.8587C49.3732 78.0494 50.1507 76.8134 50.1507 76.8134C50.1507 76.8134 51.7415 64.4454 51.4505 63.2453C51.1594 62.0452 50.9641 61.5906 49.1818 61.5906C47.3996 61.5906 41.0521 61.3634 40.7372 61.2996C40.4222 61.2358 40.4302 60.2031 40.4302 60.2031L32.7271 60.9248L32.7231 60.9208Z" fill="#64CE89"/>
<path d="M35.1587 37.5325C34.3533 35.8659 34.748 33.3779 35.3261 32.5645C35.8325 31.8509 37.3436 30.6747 40.94 31.6356C42.7182 32.11 43.0531 33.047 43.1169 33.6052C42.9056 34.6299 42.7262 35.3117 40.92 34.0996C40.1545 33.5852 39.7996 35.6545 39.7159 36.4241C39.6322 37.1936 39.2295 38.1146 39.1737 37.7757C39.1179 37.4408 39.074 37.0301 38.7829 36.6752C38.4919 36.3204 38.0134 36.3722 37.8978 37.0819C37.7862 37.7916 38.4719 38.6449 38.4719 38.6449C38.4719 38.6449 37.523 39.853 36.4983 40.1958C36.4226 39.5499 35.8484 38.9559 35.1627 37.5325H35.1587Z" fill="#2D1B1A"/>
<path d="M43.2939 35.0797C43.8402 32.0734 40.9455 29.2226 37.5086 30.3749C34.5104 31.3796 34.7057 35.4026 34.7057 35.4026L43.2939 35.0797Z" fill="black"/>
<path d="M39.8816 32.9062C46.4483 34.1024 46.9347 33.8512 46.9347 34.3934C46.9347 35.2387 39.1719 35.2387 39.1719 35.2387L39.8856 32.9062H39.8816Z" fill="black"/>
<path d="M42.9519 37.211C41.5684 38.2995 40.0732 37.849 40.0732 37.849L39.3516 40.4485C40.4002 41.1782 41.9392 41.3815 41.9392 41.3815C41.9392 41.3815 43.4702 40.6997 43.4343 39.1448C43.4104 38.1679 42.9559 37.207 42.9559 37.207L42.9519 37.211Z" fill="#A5CFE5"/>
<path d="M39.9531 38.2675L40.0688 37.8489C40.0688 37.8489 41.5639 38.2994 42.9474 37.2109C42.9474 37.2109 43.0192 37.3505 43.1069 37.5817C41.7074 38.6303 40.2322 38.3393 39.9531 38.2715V38.2675Z" fill="#E6FEFF"/>
<path d="M40.4042 37.9114L39.6147 40.6107C39.527 40.5589 39.4393 40.507 39.3516 40.4472L40.0732 37.8477C40.0732 37.8477 40.1968 37.8835 40.4042 37.9114Z" fill="#D3E3EF"/>
<path d="M40.3873 38.1843L40.4032 38.0527C40.1241 38.0168 39.7494 37.5344 39.4503 37.1436C39.1314 36.733 38.928 36.4778 38.7606 36.4778C38.7047 36.4698 38.6609 36.5017 38.625 36.5456L38.7287 36.6293C38.7287 36.6293 38.7526 36.6133 38.7566 36.6133C38.8722 36.6133 39.1234 36.9403 39.3427 37.2274C39.6736 37.658 40.0484 38.1444 40.3833 38.1883L40.3873 38.1843Z" fill="#E6FEFF"/>
<path d="M39.6163 40.4994L39.6921 40.3918C38.4282 39.5146 37.8301 37.9596 37.9059 37.6168C37.9098 37.5968 37.9178 37.5809 37.9258 37.5769L37.9019 37.4453C37.866 37.4533 37.7982 37.4772 37.7743 37.5849C37.6826 37.9955 38.3205 39.5983 39.6163 40.4994Z" fill="#E6FEFF"/>
<path d="M40.8143 43.4593C39.7896 41.5016 36.9707 41.8764 36.9707 44.9664C36.9707 47.3547 36.8192 48.7183 39.1915 51.6608L42.0782 49.719C42.0782 46.7327 41.4841 44.7392 40.8103 43.4593H40.8143Z" fill="black"/>
<path d="M41.823 54.5192C42.7918 54.3637 51.3481 51.9914 51.3481 51.9914L50.9853 49.8344C50.9853 49.8344 42.5486 51.7601 42.4968 51.3654C42.4769 51.2299 42.3134 50.5879 42.0742 49.7188L39.1875 51.6605C39.5224 52.2625 39.8892 52.9403 40.2999 53.7138C40.5591 54.2002 40.8541 54.6707 41.823 54.5152V54.5192Z" fill="#ECC19E"/>
<path d="M23.5912 40.2148H2.36719V64.4708H23.5912V40.2148Z" fill="#47286F"/>
<path d="M29.6578 40.2148H23.5938V64.4708H29.6578V40.2148Z" fill="#47286F"/>
<path d="M29.6552 53.3555H2.36719V58.4088H29.6552V53.3555Z" fill="white"/>
</svg>
