<svg width="24" height="24" viewBox="0 0 24 24" fill="none" xmlns="http://www.w3.org/2000/svg">
<mask id="mask0_318_4489" style="mask-type:alpha" maskUnits="userSpaceOnUse" x="0" y="0" width="24" height="24">
<rect width="23.9998" height="23.9998" fill="#D9D9D9"/>
</mask>
<g mask="url(#mask0_318_4489)">
<path d="M10.9999 21.9994V20.9994C8.91661 20.7661 7.12912 19.9036 5.63747 18.4119C4.14581 16.9203 3.28332 15.1328 3.04999 13.0494H2.05C1.76667 13.0494 1.52917 12.9536 1.3375 12.762C1.14584 12.5703 1.05001 12.3328 1.05001 12.0495C1.05001 11.7661 1.14584 11.5286 1.3375 11.337C1.52917 11.1453 1.76667 11.0495 2.05 11.0495H3.04999C3.28332 8.96615 4.14581 7.17866 5.63747 5.68701C7.12912 4.19536 8.91661 3.33286 10.9999 3.09953V2.09954C10.9999 1.81621 11.0958 1.57871 11.2874 1.38704C11.4791 1.19538 11.7166 1.09955 11.9999 1.09955C12.2832 1.09955 12.5207 1.19538 12.7124 1.38704C12.9041 1.57871 12.9999 1.81621 12.9999 2.09954V3.09953C15.0832 3.33286 16.8707 4.19536 18.3624 5.68701C19.854 7.17866 20.7165 8.96615 20.9498 11.0495H21.9498C22.2332 11.0495 22.4707 11.1453 22.6623 11.337C22.854 11.5286 22.9498 11.7661 22.9498 12.0495C22.9498 12.3328 22.854 12.5703 22.6623 12.762C22.4707 12.9536 22.2332 13.0494 21.9498 13.0494H20.9498C20.7165 15.1328 19.854 16.9203 18.3624 18.4119C16.8707 19.9036 15.0832 20.7661 12.9999 20.9994V21.9994C12.9999 22.2827 12.9041 22.5202 12.7124 22.7119C12.5207 22.9035 12.2832 22.9994 11.9999 22.9994C11.7166 22.9994 11.4791 22.9035 11.2874 22.7119C11.0958 22.5202 10.9999 22.2827 10.9999 21.9994ZM11.9999 19.0494C13.9332 19.0494 15.5832 18.3661 16.9499 16.9994C18.3165 15.6328 18.9999 13.9828 18.9999 12.0495C18.9999 10.1161 18.3165 8.46615 16.9499 7.0995C15.5832 5.73284 13.9332 5.04951 11.9999 5.04951C10.0666 5.04951 8.41661 5.73284 7.04996 7.0995C5.6833 8.46615 4.99997 10.1161 4.99997 12.0495C4.99997 13.9828 5.6833 15.6328 7.04996 16.9994C8.41661 18.3661 10.0666 19.0494 11.9999 19.0494Z" fill="#52BC77"/>
</g>
</svg>
