<svg width="28" height="28" viewBox="0 0 28 28" fill="none" xmlns="http://www.w3.org/2000/svg">
<mask id="mask0_0_109" style="mask-type:alpha" maskUnits="userSpaceOnUse" x="0" y="0" width="28" height="28">
<rect width="27.9999" height="27.9999" fill="#D9D9D9"/>
</mask>
<g mask="url(#mask0_0_109)">
<path d="M13.9999 13.641C12.877 13.641 11.9157 13.2412 11.1161 12.4416C10.3164 11.6419 9.91661 10.6807 9.91661 9.55777C9.91661 8.43486 10.3164 7.47358 11.1161 6.67395C11.9157 5.8743 12.877 5.47448 13.9999 5.47448C15.1228 5.47448 16.0841 5.8743 16.8837 6.67395C17.6834 7.47358 18.0832 8.43486 18.0832 9.55777C18.0832 10.6807 17.6834 11.6419 16.8837 12.4416C16.0841 13.2412 15.1228 13.641 13.9999 13.641ZM20.9775 22.5256H7.02235C6.53027 22.5256 6.11186 22.3532 5.76711 22.0085C5.42234 21.6637 5.24995 21.2453 5.24995 20.7532V19.9321C5.24995 19.3607 5.40514 18.8316 5.71551 18.3448C6.02586 17.8579 6.44054 17.4836 6.95955 17.2218C8.11276 16.6565 9.27606 16.2324 10.4495 15.9497C11.6228 15.6671 12.8063 15.5257 13.9999 15.5257C15.1935 15.5257 16.377 15.6671 17.5503 15.9497C18.7237 16.2324 19.887 16.6565 21.0402 17.2218C21.5593 17.4836 21.9739 17.8579 22.2843 18.3448C22.5947 18.8316 22.7498 19.3607 22.7498 19.9321V20.7532C22.7498 21.2453 22.5775 21.6637 22.2327 22.0085C21.8879 22.3532 21.4695 22.5256 20.9775 22.5256ZM6.99992 20.7756H20.9999V19.9321C20.9999 19.6957 20.9314 19.477 20.7946 19.2758C20.6577 19.0746 20.4719 18.9105 20.2371 18.7833C19.2319 18.2883 18.207 17.9132 17.1624 17.6582C16.1177 17.4032 15.0635 17.2757 13.9999 17.2757C12.9363 17.2757 11.8821 17.4032 10.8374 17.6582C9.79276 17.9132 8.76786 18.2883 7.76274 18.7833C7.52791 18.9105 7.34207 19.0746 7.20522 19.2758C7.06835 19.477 6.99992 19.6957 6.99992 19.9321V20.7756ZM13.9999 11.8911C14.6416 11.8911 15.1909 11.6626 15.6478 11.2057C16.1048 10.7487 16.3332 10.1994 16.3332 9.55777C16.3332 8.9161 16.1048 8.3668 15.6478 7.90986C15.1909 7.45291 14.6416 7.22444 13.9999 7.22444C13.3582 7.22444 12.8089 7.45291 12.352 7.90986C11.895 8.3668 11.6666 8.9161 11.6666 9.55777C11.6666 10.1994 11.895 10.7487 12.352 11.2057C12.8089 11.6626 13.3582 11.8911 13.9999 11.8911Z" fill="white"/>
</g>
</svg>
