<svg width="29" height="29" viewBox="0 0 29 29" fill="none" xmlns="http://www.w3.org/2000/svg">
<mask id="mask0_0_77" style="mask-type:alpha" maskUnits="userSpaceOnUse" x="0" y="0" width="29" height="29">
<rect width="29" height="29" fill="#D9D9D9"/>
</mask>
<g mask="url(#mask0_0_77)">
<path d="M14.5002 14.5002C13.171 14.5002 12.0331 14.0269 11.0866 13.0804C10.1401 12.1338 9.66683 10.996 9.66683 9.66683C9.66683 8.33766 10.1401 7.19982 11.0866 6.25329C12.0331 5.30676 13.171 4.8335 14.5002 4.8335C15.8293 4.8335 16.9672 5.30676 17.9137 6.25329C18.8602 7.19982 19.3335 8.33766 19.3335 9.66683C19.3335 10.996 18.8602 12.1338 17.9137 13.0804C16.9672 14.0269 15.8293 14.5002 14.5002 14.5002ZM7.25016 24.1668C6.58558 24.1668 6.01666 23.9302 5.54339 23.4569C5.07013 22.9837 4.8335 22.4147 4.8335 21.7502V20.7835C4.8335 20.0988 5.00971 19.4694 5.36214 18.8955C5.71457 18.3215 6.1828 17.8835 6.76683 17.5814C8.01544 16.9571 9.28419 16.4889 10.5731 16.1767C11.862 15.8646 13.171 15.7085 14.5002 15.7085C15.8293 15.7085 17.1384 15.8646 18.4272 16.1767C19.7161 16.4889 20.9849 16.9571 22.2335 17.5814C22.8175 17.8835 23.2858 18.3215 23.6382 18.8955C23.9906 19.4694 24.1668 20.0988 24.1668 20.7835V21.7502C24.1668 22.4147 23.9302 22.9837 23.4569 23.4569C22.9837 23.9302 22.4147 24.1668 21.7502 24.1668H7.25016Z" fill="white"/>
</g>
</svg>
