<svg width="22" height="22" viewBox="0 0 22 22" fill="none" xmlns="http://www.w3.org/2000/svg">
<g clip-path="url(#clip0_0_11)">
<path d="M11.4116 12.917C13.4827 12.917 15.1616 11.2381 15.1616 9.16699C15.1616 7.09592 13.4827 5.41699 11.4116 5.41699C9.34055 5.41699 7.66162 7.09592 7.66162 9.16699C7.66162 11.2381 9.34055 12.917 11.4116 12.917Z" stroke="#01A367" stroke-width="2" stroke-linecap="round" stroke-linejoin="round"/>
<path d="M4.67306 13.9172C4.68107 13.9272 4.68928 13.9371 4.69768 13.9468L10.656 20.8218C10.846 21.0409 11.1217 21.1668 11.4117 21.1668C11.7017 21.1668 11.9775 21.0409 12.1674 20.8218L18.1257 13.9468C18.1341 13.9371 18.1423 13.9272 18.1503 13.9172C18.7113 13.2172 19.1213 12.5164 19.3842 11.7234C19.6455 10.9349 19.745 10.1046 19.745 9.16683C19.745 6.95669 18.8671 4.83708 17.3043 3.27427C15.7415 1.71147 13.6218 0.833496 11.4117 0.833496C9.20157 0.833496 7.08195 1.71147 5.51915 3.27427C3.95634 4.83708 3.07837 6.95669 3.07837 9.16683C3.07837 10.1046 3.17786 10.9349 3.43922 11.7234C3.70206 12.5164 4.11206 13.2172 4.67306 13.9172Z" stroke="#01A367" stroke-width="2" stroke-linecap="round" stroke-linejoin="round"/>
</g>
<defs>
<clipPath id="clip0_0_11">
<rect width="22" height="22" fill="white"/>
</clipPath>
</defs>
</svg>
