<svg width="20" height="20" viewBox="0 0 20 20" fill="none" xmlns="http://www.w3.org/2000/svg">
<path d="M14.7368 4.90573e-09C15.5423 -4.4865e-05 16.3174 0.307711 16.9034 0.860299C17.4895 1.41289 17.8422 2.16853 17.8895 2.97263L17.8947 3.15789V13.6842H18.6842C19.3653 13.6842 19.9263 14.2021 19.9937 14.8653L20 15V16.8421C20 17.6476 19.6923 18.4226 19.1397 19.0087C18.5871 19.5947 17.8315 19.9475 17.0274 19.9947L16.8421 20H6.31579C5.5103 20 4.73525 19.6923 4.1492 19.1397C3.56315 18.5871 3.21041 17.8315 3.16316 17.0274L3.15789 16.8421V6.31579H1.31579C0.990044 6.31594 0.675823 6.19525 0.433931 5.97708C0.192038 5.75891 0.0396721 5.45877 0.00631584 5.13474L4.90573e-09 5V3.15789C-4.4865e-05 2.35241 0.307711 1.57735 0.860299 0.991304C1.41289 0.405256 2.16853 0.0525184 2.97263 0.00526328L3.15789 4.90573e-09H14.7368ZM14.7368 2.10526H5.26316V16.8421C5.26316 17.1213 5.37406 17.389 5.57147 17.5864C5.76887 17.7838 6.03661 17.8947 6.31579 17.8947C6.59496 17.8947 6.86271 17.7838 7.06011 17.5864C7.25752 17.389 7.36842 17.1213 7.36842 16.8421V15C7.36842 14.2737 7.95789 13.6842 8.68421 13.6842H15.7895V3.15789C15.7895 2.87872 15.6786 2.61098 15.4812 2.41357C15.2838 2.21617 15.016 2.10526 14.7368 2.10526ZM17.8947 15.7895H9.47368V16.8421C9.47368 17.2105 9.41053 17.5653 9.29474 17.8947H16.8421C17.1213 17.8947 17.389 17.7838 17.5864 17.5864C17.7838 17.389 17.8947 17.1213 17.8947 16.8421V15.7895ZM10.5263 9.47368C10.8055 9.47368 11.0732 9.58459 11.2706 9.78199C11.468 9.9794 11.5789 10.2471 11.5789 10.5263C11.5789 10.8055 11.468 11.0732 11.2706 11.2706C11.0732 11.468 10.8055 11.5789 10.5263 11.5789H8.42105C8.14188 11.5789 7.87414 11.468 7.67673 11.2706C7.47932 11.0732 7.36842 10.8055 7.36842 10.5263C7.36842 10.2471 7.47932 9.9794 7.67673 9.78199C7.87414 9.58459 8.14188 9.47368 8.42105 9.47368H10.5263ZM12.6316 5.26316C12.9108 5.26316 13.1785 5.37406 13.3759 5.57147C13.5733 5.76887 13.6842 6.03661 13.6842 6.31579C13.6842 6.59496 13.5733 6.86271 13.3759 7.06011C13.1785 7.25752 12.9108 7.36842 12.6316 7.36842H8.42105C8.14188 7.36842 7.87414 7.25752 7.67673 7.06011C7.47932 6.86271 7.36842 6.59496 7.36842 6.31579C7.36842 6.03661 7.47932 5.76887 7.67673 5.57147C7.87414 5.37406 8.14188 5.26316 8.42105 5.26316H12.6316ZM3.15789 2.10526C2.90007 2.1053 2.65122 2.19995 2.45856 2.37128C2.26589 2.5426 2.1428 2.77868 2.11263 3.03474L2.10526 3.15789V4.21053H3.15789V2.10526Z" fill="#01A367"/>
</svg>
