<svg width="17" height="17" viewBox="0 0 17 17" fill="none" xmlns="http://www.w3.org/2000/svg">
<path d="M14.8751 8.5015C14.6872 8.5015 14.5071 8.57613 14.3742 8.70897C14.2414 8.84181 14.1667 9.02197 14.1667 9.20984V13.4598C14.1667 13.6477 14.0921 13.8279 13.9593 13.9607C13.8264 14.0935 13.6463 14.1682 13.4584 14.1682H3.54175C3.35389 14.1682 3.17372 14.0935 3.04088 13.9607C2.90804 13.8279 2.83341 13.6477 2.83341 13.4598V3.54317C2.83341 3.35531 2.90804 3.17514 3.04088 3.0423C3.17372 2.90946 3.35389 2.83484 3.54175 2.83484H7.79175C7.97961 2.83484 8.15978 2.76021 8.29261 2.62737C8.42545 2.49453 8.50008 2.31436 8.50008 2.1265C8.50008 1.93864 8.42545 1.75847 8.29261 1.62564C8.15978 1.4928 7.97961 1.41817 7.79175 1.41817H3.54175C2.97816 1.41817 2.43766 1.64205 2.03915 2.04057C1.64063 2.43908 1.41675 2.97958 1.41675 3.54317V13.4598C1.41675 14.0234 1.64063 14.5639 2.03915 14.9624C2.43766 15.361 2.97816 15.5848 3.54175 15.5848H13.4584C14.022 15.5848 14.5625 15.361 14.961 14.9624C15.3595 14.5639 15.5834 14.0234 15.5834 13.4598V9.20984C15.5834 9.02197 15.5088 8.84181 15.3759 8.70897C15.2431 8.57613 15.0629 8.5015 14.8751 8.5015ZM4.25008 9.03984V12.0432C4.25008 12.231 4.32471 12.4112 4.45755 12.544C4.59039 12.6769 4.77055 12.7515 4.95841 12.7515H7.96175C8.05497 12.752 8.14738 12.7342 8.23368 12.6989C8.31998 12.6637 8.39848 12.6117 8.46466 12.5461L13.3663 7.63734L15.378 5.66817C15.4444 5.60232 15.4971 5.52398 15.533 5.43766C15.569 5.35134 15.5875 5.25876 15.5875 5.16525C15.5875 5.07174 15.569 4.97916 15.533 4.89284C15.4971 4.80653 15.4444 4.72818 15.378 4.66234L12.3747 1.62359C12.3088 1.5572 12.2305 1.5045 12.1442 1.46854C12.0578 1.43258 11.9653 1.41406 11.8717 1.41406C11.7782 1.41406 11.6857 1.43258 11.5993 1.46854C11.513 1.5045 11.4347 1.5572 11.3688 1.62359L9.37133 3.62817L4.4555 8.53692C4.38985 8.60311 4.33791 8.6816 4.30266 8.7679C4.26741 8.8542 4.24954 8.94661 4.25008 9.03984ZM11.8717 3.12525L13.8763 5.12984L12.8705 6.13567L10.8659 4.13109L11.8717 3.12525ZM5.66675 9.33025L9.86716 5.12984L11.8717 7.13442L7.67133 11.3348H5.66675V9.33025Z" fill="#01A367"/>
</svg>
