<svg width="29" height="29" viewBox="0 0 29 29" fill="none" xmlns="http://www.w3.org/2000/svg">
<mask id="mask0_0_93" style="mask-type:alpha" maskUnits="userSpaceOnUse" x="0" y="0" width="29" height="29">
<rect width="29" height="29" fill="#D9D9D9"/>
</mask>
<g mask="url(#mask0_0_93)">
<mask id="mask1_0_93" style="mask-type:alpha" maskUnits="userSpaceOnUse" x="0" y="0" width="29" height="29">
<rect width="29" height="29" fill="#D9D9D9"/>
</mask>
<g mask="url(#mask1_0_93)">
<path d="M4.8335 22.9582V12.0832C4.8335 11.7005 4.91909 11.338 5.09027 10.9957C5.26145 10.6533 5.49808 10.3714 5.80016 10.1498L13.0502 4.71234C13.4731 4.39011 13.9564 4.229 14.5002 4.229C15.0439 4.229 15.5272 4.39011 15.9502 4.71234L23.2002 10.1498C23.5022 10.3714 23.7389 10.6533 23.9101 10.9957C24.0812 11.338 24.1668 11.7005 24.1668 12.0832V22.9582C24.1668 23.6228 23.9302 24.1917 23.4569 24.6649C22.9837 25.1382 22.4147 25.3748 21.7502 25.3748H18.1252C17.7828 25.3748 17.4958 25.259 17.2642 25.0274C17.0326 24.7958 16.9168 24.5089 16.9168 24.1665V18.1248C16.9168 17.7825 16.801 17.4955 16.5694 17.2639C16.3378 17.0323 16.0509 16.9165 15.7085 16.9165H13.2918C12.9495 16.9165 12.6625 17.0323 12.4309 17.2639C12.1993 17.4955 12.0835 17.7825 12.0835 18.1248V24.1665C12.0835 24.5089 11.9677 24.7958 11.7361 25.0274C11.5045 25.259 11.2175 25.3748 10.8752 25.3748H7.25016C6.58558 25.3748 6.01666 25.1382 5.54339 24.6649C5.07013 24.1917 4.8335 23.6228 4.8335 22.9582Z" fill="white"/>
</g>
</g>
</svg>
