<svg width="296" height="240" viewBox="0 0 296 240" fill="none" xmlns="http://www.w3.org/2000/svg">
<path d="M40.1013 213.738H30.5938V213.886H40.1013V213.738Z" fill="#E0E0E0"/>
<path d="M132.537 212.129H100.848V212.277H132.537V212.129Z" fill="#E0E0E0"/>
<path d="M62.1475 219.234H40.6875V219.382H62.1475V219.234Z" fill="#E0E0E0"/>
<path d="M249.553 212.055H223.984V212.203H249.553V212.055Z" fill="#E0E0E0"/>
<path d="M258.572 212.055H254.824V212.203H258.572V212.055Z" fill="#E0E0E0"/>
<path d="M219.098 215.742H187.195V215.89H219.098V215.742Z" fill="#E0E0E0"/>
<path d="M31.4732 124.52V96.1153H49.0615V102.598H60.7831V31.6406H83.3206V59.5712H90.0871V45.6237H107.67V113.633H132.468V89.6033H148.02V37.5073H167.207V72.24H185.245V147.063H199.222V110.625H213.649V87.1821H228.976V69.1793L246.079 78.2014V126.361H264.117V116.427H288.212V205.866L7.76953 206.002V124.52H31.4732Z" fill="#F0F0F0"/>
<path d="M162.817 43.6602H157.199V50.0952H162.817V43.6602Z" fill="#FAFAFA"/>
<path d="M162.817 54.4453H157.199V60.8803H162.817V54.4453Z" fill="#FAFAFA"/>
<path d="M162.817 65.2422H157.199V71.6772H162.817V65.2422Z" fill="#FAFAFA"/>
<path d="M162.817 76.0273H157.199V82.4624H162.817V76.0273Z" fill="#FAFAFA"/>
<path d="M162.817 86.8203H157.199V93.2553H162.817V86.8203Z" fill="#FAFAFA"/>
<path d="M162.817 97.6133H157.199V104.048H162.817V97.6133Z" fill="#FAFAFA"/>
<path d="M162.817 108.406H157.199V114.841H162.817V108.406Z" fill="#FAFAFA"/>
<path d="M162.817 119.199H157.199V125.634H162.817V119.199Z" fill="#FAFAFA"/>
<path d="M78.4736 35.0391H72.8555V41.4741H78.4736V35.0391Z" fill="#FAFAFA"/>
<path d="M78.4736 45.832H72.8555V52.2671H78.4736V45.832Z" fill="#FAFAFA"/>
<path d="M78.4736 56.6211H72.8555V63.0561H78.4736V56.6211Z" fill="#FAFAFA"/>
<path d="M78.4736 67.4141H72.8555V73.8491H78.4736V67.4141Z" fill="#FAFAFA"/>
<path d="M78.4736 78.207H72.8555V84.6421H78.4736V78.207Z" fill="#FAFAFA"/>
<path d="M78.4736 89H72.8555V95.435H78.4736V89Z" fill="#FAFAFA"/>
<path d="M78.4736 99.7969H72.8555V106.232H78.4736V99.7969Z" fill="#FAFAFA"/>
<path d="M78.4736 110.582H72.8555V117.017H78.4736V110.582Z" fill="#FAFAFA"/>
<path d="M182.012 205.921V102.434H204.354V205.909L182.012 205.921Z" fill="#E0E0E0"/>
<path d="M202.651 105.719H199.945V111.307H202.651V105.719Z" fill="#FAFAFA"/>
<path d="M197.237 105.719H194.531V111.307H197.237V105.719Z" fill="#FAFAFA"/>
<path d="M191.815 105.719H189.109V111.307H191.815V105.719Z" fill="#FAFAFA"/>
<path d="M186.405 105.719H183.699V111.307H186.405V105.719Z" fill="#FAFAFA"/>
<path d="M202.651 115.09H199.945V120.678H202.651V115.09Z" fill="#FAFAFA"/>
<path d="M197.237 115.09H194.531V120.678H197.237V115.09Z" fill="#FAFAFA"/>
<path d="M191.815 115.09H189.109V120.678H191.815V115.09Z" fill="#FAFAFA"/>
<path d="M186.405 115.09H183.699V120.678H186.405V115.09Z" fill="#FAFAFA"/>
<path d="M202.651 124.449H199.945V130.038H202.651V124.449Z" fill="#FAFAFA"/>
<path d="M197.237 124.449H194.531V130.038H197.237V124.449Z" fill="#FAFAFA"/>
<path d="M191.815 124.449H189.109V130.038H191.815V124.449Z" fill="#FAFAFA"/>
<path d="M186.404 124.449H183.699V130.038H186.404V124.449Z" fill="#FAFAFA"/>
<path d="M202.651 133.812H199.945V139.401H202.651V133.812Z" fill="#FAFAFA"/>
<path d="M197.237 133.812H194.531V139.401H197.237V133.812Z" fill="#FAFAFA"/>
<path d="M191.815 133.812H189.109V139.401H191.815V133.812Z" fill="#FAFAFA"/>
<path d="M186.405 133.812H183.699V139.401H186.405V133.812Z" fill="#FAFAFA"/>
<path d="M202.651 143.184H199.945V148.772H202.651V143.184Z" fill="#FAFAFA"/>
<path d="M197.237 143.184H194.531V148.772H197.237V143.184Z" fill="#FAFAFA"/>
<path d="M191.815 143.184H189.109V148.772H191.815V143.184Z" fill="#FAFAFA"/>
<path d="M186.405 143.184H183.699V148.772H186.405V143.184Z" fill="#FAFAFA"/>
<path d="M202.651 152.539H199.945V158.128H202.651V152.539Z" fill="#FAFAFA"/>
<path d="M197.237 152.539H194.531V158.128H197.237V152.539Z" fill="#FAFAFA"/>
<path d="M191.815 152.539H189.109V158.128H191.815V152.539Z" fill="#FAFAFA"/>
<path d="M186.405 152.539H183.699V158.128H186.405V152.539Z" fill="#FAFAFA"/>
<path d="M202.651 161.906H199.945V167.495H202.651V161.906Z" fill="#FAFAFA"/>
<path d="M197.237 161.906H194.531V167.495H197.237V161.906Z" fill="#FAFAFA"/>
<path d="M191.815 161.906H189.109V167.495H191.815V161.906Z" fill="#FAFAFA"/>
<path d="M186.405 161.906H183.699V167.495H186.405V161.906Z" fill="#FAFAFA"/>
<path d="M202.651 171.277H199.945V176.866H202.651V171.277Z" fill="#FAFAFA"/>
<path d="M197.237 171.277H194.531V176.866H197.237V171.277Z" fill="#FAFAFA"/>
<path d="M191.815 171.277H189.109V176.866H191.815V171.277Z" fill="#FAFAFA"/>
<path d="M186.405 171.277H183.699V176.866H186.405V171.277Z" fill="#FAFAFA"/>
<path d="M104.379 205.954V90.4844H150.697V205.984C150.697 205.984 104.734 205.995 104.379 205.954Z" fill="#E6E6E6"/>
<path d="M147.227 94.3086H141.609V100.744H147.227V94.3086Z" fill="#E0E0E0"/>
<path d="M135.989 94.3086H130.371V100.744H135.989V94.3086Z" fill="#E0E0E0"/>
<path d="M124.759 94.3086H119.141V100.744H124.759V94.3086Z" fill="#E0E0E0"/>
<path d="M113.52 94.3086H107.902V100.744H113.52V94.3086Z" fill="#E0E0E0"/>
<path d="M147.227 105.102H141.609V111.537H147.227V105.102Z" fill="#E0E0E0"/>
<path d="M135.989 105.102H130.371V111.537H135.989V105.102Z" fill="#E0E0E0"/>
<path d="M124.759 105.102H119.141V111.537H124.759V105.102Z" fill="#E0E0E0"/>
<path d="M113.52 105.102H107.902V111.537H113.52V105.102Z" fill="#E0E0E0"/>
<path d="M147.227 115.895H141.609V122.33H147.227V115.895Z" fill="#E0E0E0"/>
<path d="M135.989 115.895H130.371V122.33H135.989V115.895Z" fill="#E0E0E0"/>
<path d="M124.759 115.895H119.141V122.33H124.759V115.895Z" fill="#E0E0E0"/>
<path d="M113.52 115.895H107.902V122.33H113.52V115.895Z" fill="#E0E0E0"/>
<path d="M147.227 126.68H141.609V133.115H147.227V126.68Z" fill="#E0E0E0"/>
<path d="M135.989 126.68H130.371V133.115H135.989V126.68Z" fill="#E0E0E0"/>
<path d="M124.759 126.68H119.141V133.115H124.759V126.68Z" fill="#E0E0E0"/>
<path d="M113.52 126.68H107.902V133.115H113.52V126.68Z" fill="#E0E0E0"/>
<path d="M147.227 137.477H141.609V143.912H147.227V137.477Z" fill="#E0E0E0"/>
<path d="M135.989 137.477H130.371V143.912H135.989V137.477Z" fill="#E0E0E0"/>
<path d="M124.759 137.477H119.141V143.912H124.759V137.477Z" fill="#E0E0E0"/>
<path d="M113.52 137.477H107.902V143.912H113.52V137.477Z" fill="#E0E0E0"/>
<path d="M147.227 148.262H141.609V154.697H147.227V148.262Z" fill="#E0E0E0"/>
<path d="M135.989 148.262H130.371V154.697H135.989V148.262Z" fill="#E0E0E0"/>
<path d="M124.759 148.262H119.141V154.697H124.759V148.262Z" fill="#E0E0E0"/>
<path d="M113.52 148.262H107.902V154.697H113.52V148.262Z" fill="#E0E0E0"/>
<path d="M147.227 159.062H141.609V165.498H147.227V159.062Z" fill="#E0E0E0"/>
<path d="M135.989 159.062H130.371V165.498H135.989V159.062Z" fill="#E0E0E0"/>
<path d="M124.759 159.062H119.141V165.498H124.759V159.062Z" fill="#E0E0E0"/>
<path d="M113.52 159.062H107.902V165.498H113.52V159.062Z" fill="#E0E0E0"/>
<path d="M147.227 169.848H141.609V176.283H147.227V169.848Z" fill="#E0E0E0"/>
<path d="M135.989 169.848H130.371V176.283H135.989V169.848Z" fill="#E0E0E0"/>
<path d="M124.759 169.848H119.141V176.283H124.759V169.848Z" fill="#E0E0E0"/>
<path d="M113.52 169.848H107.902V176.283H113.52V169.848Z" fill="#E0E0E0"/>
<path d="M212.477 205.905V82.4141H231.64V206.006C225.578 205.858 212.477 205.905 212.477 205.905Z" fill="#E6E6E6"/>
<path d="M228.809 84.6992H223.191V91.1343H228.809V84.6992Z" fill="#FAFAFA"/>
<path d="M228.809 95.4844H223.191V101.919H228.809V95.4844Z" fill="#FAFAFA"/>
<path d="M228.809 106.281H223.191V112.716H228.809V106.281Z" fill="#FAFAFA"/>
<path d="M228.809 117.078H223.191V123.513H228.809V117.078Z" fill="#FAFAFA"/>
<path d="M228.809 127.863H223.191V134.298H228.809V127.863Z" fill="#FAFAFA"/>
<path d="M228.809 138.66H223.191V145.095H228.809V138.66Z" fill="#FAFAFA"/>
<path d="M228.809 149.445H223.191V155.88H228.809V149.445Z" fill="#FAFAFA"/>
<path d="M228.809 160.242H223.191V166.677H228.809V160.242Z" fill="#FAFAFA"/>
<path d="M221.294 84.6992H215.676V91.1343H221.294V84.6992Z" fill="#FAFAFA"/>
<path d="M221.294 95.4844H215.676V101.919H221.294V95.4844Z" fill="#FAFAFA"/>
<path d="M221.294 106.281H215.676V112.716H221.294V106.281Z" fill="#FAFAFA"/>
<path d="M221.294 117.078H215.676V123.513H221.294V117.078Z" fill="#FAFAFA"/>
<path d="M221.294 127.863H215.676V134.298H221.294V127.863Z" fill="#FAFAFA"/>
<path d="M221.294 138.66H215.676V145.095H221.294V138.66Z" fill="#FAFAFA"/>
<path d="M221.294 149.445H215.676V155.88H221.294V149.445Z" fill="#FAFAFA"/>
<path d="M221.294 160.242H215.676V166.677H221.294V160.242Z" fill="#FAFAFA"/>
<path d="M62.7585 84.6211H28.9375V206.011H62.7585V84.6211Z" fill="#E6E6E6"/>
<path d="M57.7499 89.6367H47.8398V96.0718H57.7499V89.6367Z" fill="#FAFAFA"/>
<path d="M57.7499 100.434H47.8398V106.869H57.7499V100.434Z" fill="#FAFAFA"/>
<path d="M57.7499 111.219H47.8398V117.654H57.7499V111.219Z" fill="#FAFAFA"/>
<path d="M57.7499 122.02H47.8398V128.455H57.7499V122.02Z" fill="#FAFAFA"/>
<path d="M57.7499 132.805H47.8398V139.24H57.7499V132.805Z" fill="#FAFAFA"/>
<path d="M57.7499 143.594H47.8398V150.029H57.7499V143.594Z" fill="#FAFAFA"/>
<path d="M57.7499 154.387H47.8398V160.822H57.7499V154.387Z" fill="#FAFAFA"/>
<path d="M57.7499 165.18H47.8398V171.615H57.7499V165.18Z" fill="#FAFAFA"/>
<path d="M44.4921 89.6367H34.582V96.0718H44.4921V89.6367Z" fill="#FAFAFA"/>
<path d="M44.4921 100.434H34.582V106.869H44.4921V100.434Z" fill="#FAFAFA"/>
<path d="M44.4921 111.219H34.582V117.654H44.4921V111.219Z" fill="#FAFAFA"/>
<path d="M44.4921 122.02H34.582V128.455H44.4921V122.02Z" fill="#FAFAFA"/>
<path d="M44.4921 132.805H34.582V139.24H44.4921V132.805Z" fill="#FAFAFA"/>
<path d="M44.4921 143.594H34.582V150.029H44.4921V143.594Z" fill="#FAFAFA"/>
<path d="M44.4921 154.387H34.582V160.822H44.4921V154.387Z" fill="#FAFAFA"/>
<path d="M44.4921 165.18H34.582V171.615H44.4921V165.18Z" fill="#FAFAFA"/>
<path d="M84.8867 205.967V115.895H99.6394V205.961H84.8867V205.967Z" fill="#E0E0E0"/>
<path d="M98.5144 118.742H96.7266V123.537H98.5144V118.742Z" fill="#FAFAFA"/>
<path d="M94.9363 118.742H93.1484V123.537H94.9363V118.742Z" fill="#FAFAFA"/>
<path d="M91.366 118.742H89.5781V123.537H91.366V118.742Z" fill="#FAFAFA"/>
<path d="M87.7917 118.742H86.0039V123.537H87.7917V118.742Z" fill="#FAFAFA"/>
<path d="M98.5144 126.789H96.7266V131.584H98.5144V126.789Z" fill="#FAFAFA"/>
<path d="M94.9363 126.789H93.1484V131.584H94.9363V126.789Z" fill="#FAFAFA"/>
<path d="M91.366 126.789H89.5781V131.584H91.366V126.789Z" fill="#FAFAFA"/>
<path d="M87.7917 126.789H86.0039V131.584H87.7917V126.789Z" fill="#FAFAFA"/>
<path d="M98.5144 134.832H96.7266V139.627H98.5144V134.832Z" fill="#FAFAFA"/>
<path d="M94.9363 134.832H93.1484V139.627H94.9363V134.832Z" fill="#FAFAFA"/>
<path d="M91.366 134.832H89.5781V139.627H91.366V134.832Z" fill="#FAFAFA"/>
<path d="M87.7917 134.832H86.0039V139.627H87.7917V134.832Z" fill="#FAFAFA"/>
<path d="M98.5144 142.879H96.7266V147.674H98.5144V142.879Z" fill="#FAFAFA"/>
<path d="M94.9363 142.879H93.1484V147.674H94.9363V142.879Z" fill="#FAFAFA"/>
<path d="M91.366 142.879H89.5781V147.674H91.366V142.879Z" fill="#FAFAFA"/>
<path d="M87.7917 142.879H86.0039V147.674H87.7917V142.879Z" fill="#FAFAFA"/>
<path d="M98.5144 150.93H96.7266V155.725H98.5144V150.93Z" fill="#FAFAFA"/>
<path d="M94.9363 150.93H93.1484V155.725H94.9363V150.93Z" fill="#FAFAFA"/>
<path d="M91.366 150.93H89.5781V155.725H91.366V150.93Z" fill="#FAFAFA"/>
<path d="M87.7917 150.93H86.0039V155.725H87.7917V150.93Z" fill="#FAFAFA"/>
<path d="M98.5144 158.973H96.7266V163.768H98.5144V158.973Z" fill="#FAFAFA"/>
<path d="M94.9363 158.973H93.1484V163.768H94.9363V158.973Z" fill="#FAFAFA"/>
<path d="M91.366 158.973H89.5781V163.768H91.366V158.973Z" fill="#FAFAFA"/>
<path d="M87.7917 158.973H86.0039V163.768H87.7917V158.973Z" fill="#FAFAFA"/>
<path d="M98.5144 167.02H96.7266V171.815H98.5144V167.02Z" fill="#FAFAFA"/>
<path d="M94.9363 167.02H93.1484V171.815H94.9363V167.02Z" fill="#FAFAFA"/>
<path d="M91.366 167.02H89.5781V171.815H91.366V167.02Z" fill="#FAFAFA"/>
<path d="M87.7917 167.02H86.0039V171.815H87.7917V167.02Z" fill="#FAFAFA"/>
<path d="M98.5144 175.066H96.7266V179.862H98.5144V175.066Z" fill="#FAFAFA"/>
<path d="M94.9363 175.066H93.1484V179.862H94.9363V175.066Z" fill="#FAFAFA"/>
<path d="M91.366 175.066H89.5781V179.862H91.366V175.066Z" fill="#FAFAFA"/>
<path d="M87.7917 175.066H86.0039V179.862H87.7917V175.066Z" fill="#FAFAFA"/>
<path d="M229.922 206.001V129.242H269.355V205.871L229.922 205.995V206.001Z" fill="#FAFAFA"/>
<path d="M266.377 131.633H261.594V135.658H266.377V131.633Z" fill="#E0E0E0"/>
<path d="M256.815 131.633H252.031V135.658H256.815V131.633Z" fill="#E0E0E0"/>
<path d="M247.252 131.633H242.469V135.658H247.252V131.633Z" fill="#E0E0E0"/>
<path d="M237.694 131.633H232.91V135.658H237.694V131.633Z" fill="#E0E0E0"/>
<path d="M266.377 138.383H261.594V142.408H266.377V138.383Z" fill="#E0E0E0"/>
<path d="M256.815 138.383H252.031V142.408H256.815V138.383Z" fill="#E0E0E0"/>
<path d="M247.252 138.383H242.469V142.408H247.252V138.383Z" fill="#E0E0E0"/>
<path d="M237.694 138.383H232.91V142.408H237.694V138.383Z" fill="#E0E0E0"/>
<path d="M266.377 145.129H261.594V149.155H266.377V145.129Z" fill="#E0E0E0"/>
<path d="M256.815 145.129H252.031V149.155H256.815V145.129Z" fill="#E0E0E0"/>
<path d="M247.252 145.129H242.469V149.155H247.252V145.129Z" fill="#E0E0E0"/>
<path d="M237.694 145.129H232.91V149.155H237.694V145.129Z" fill="#E0E0E0"/>
<path d="M266.377 151.879H261.594V155.904H266.377V151.879Z" fill="#E0E0E0"/>
<path d="M256.815 151.879H252.031V155.904H256.815V151.879Z" fill="#E0E0E0"/>
<path d="M247.252 151.879H242.469V155.904H247.252V151.879Z" fill="#E0E0E0"/>
<path d="M237.694 151.879H232.91V155.904H237.694V151.879Z" fill="#E0E0E0"/>
<path d="M266.377 158.617H261.594V162.643H266.377V158.617Z" fill="#E0E0E0"/>
<path d="M256.815 158.617H252.031V162.643H256.815V158.617Z" fill="#E0E0E0"/>
<path d="M247.252 158.617H242.469V162.643H247.252V158.617Z" fill="#E0E0E0"/>
<path d="M237.694 158.617H232.91V162.643H237.694V158.617Z" fill="#E0E0E0"/>
<path d="M266.377 165.367H261.594V169.393H266.377V165.367Z" fill="#E0E0E0"/>
<path d="M256.815 165.367H252.031V169.393H256.815V165.367Z" fill="#E0E0E0"/>
<path d="M247.252 165.367H242.469V169.393H247.252V165.367Z" fill="#E0E0E0"/>
<path d="M237.694 165.367H232.91V169.393H237.694V165.367Z" fill="#E0E0E0"/>
<path d="M266.377 172.117H261.594V176.143H266.377V172.117Z" fill="#E0E0E0"/>
<path d="M256.815 172.117H252.031V176.143H256.815V172.117Z" fill="#E0E0E0"/>
<path d="M247.252 172.117H242.469V176.143H247.252V172.117Z" fill="#E0E0E0"/>
<path d="M237.694 172.117H232.91V176.143H237.694V172.117Z" fill="#E0E0E0"/>
<path d="M245.204 194.767C246.376 193.665 248.869 197.934 248.869 197.934C248.869 197.934 246.187 188.627 248.875 188.598C251.562 188.568 251.699 196.537 251.699 196.537C251.699 196.537 252.563 180.695 256.062 181.95C259.56 183.205 254.457 197.342 254.457 197.342C254.457 197.342 258.98 187.29 260.715 189.267C262.449 191.244 256.736 199.651 256.736 199.651C256.736 199.651 260.91 196.951 260.638 198.875C260.365 200.799 251.32 205.825 251.32 205.825C248.425 202.397 244.038 195.868 245.21 194.767H245.204Z" fill="#E6E6E6"/>
<path d="M251.293 205.919C251.293 205.919 252.714 199.147 253.531 194.535" stroke="#E0E0E0" stroke-width="0.296" stroke-linecap="round" stroke-linejoin="round"/>
<path d="M252.223 201.441L254.987 198.008" stroke="#E0E0E0" stroke-width="0.296" stroke-linecap="round" stroke-linejoin="round"/>
<path d="M20.1282 196.639C20.9866 195.271 24.4735 198.776 24.4735 198.776C24.4735 198.776 19.5244 190.452 22.1174 189.742C24.7103 189.031 26.8593 196.71 26.8593 196.71C26.8593 196.71 23.6862 181.164 27.3862 181.489C31.0862 181.815 29.7246 196.787 29.7246 196.787C29.7246 196.787 31.5598 185.918 33.7324 187.392C35.905 188.866 32.507 198.444 32.507 198.444C32.507 198.444 35.8636 194.78 36.0886 196.71C36.3135 198.64 28.8306 205.791 28.8306 205.791C25.1602 203.204 19.2698 198 20.1223 196.639H20.1282Z" fill="#E0E0E0"/>
<path d="M28.8296 205.892C28.8296 205.892 28.4922 198.983 28.1133 194.312" stroke="#E0E0E0" stroke-width="0.296" stroke-linecap="round" stroke-linejoin="round"/>
<path d="M28.6016 201.326L30.4072 197.301" stroke="#E0E0E0" stroke-width="0.296" stroke-linecap="round" stroke-linejoin="round"/>
<path d="M105.803 9.55753C106.697 8.88265 108.006 8.80569 108.976 9.37401C110.261 6.77513 113.849 5.62665 116.406 6.99417C117.075 4.19401 119.834 2.03913 122.717 2.07465C125.6 2.11017 128.305 4.33017 128.903 7.14809C128.998 7.59801 129.063 8.08937 129.383 8.41497C129.904 8.94777 130.774 8.77017 131.514 8.71097C133.846 8.52745 136.197 10.1673 136.83 12.4169L104.702 12.2985C104.418 11.2092 104.903 10.2383 105.803 9.55753Z" fill="#E0E0E0"/>
<path d="M14.0142 52.4091C14.9082 51.7342 16.2165 51.6573 17.1874 52.2256C18.472 49.6267 22.0595 48.4782 24.617 49.8457C25.2859 47.0456 28.0446 44.8907 30.9277 44.9262C33.8107 44.9617 36.5162 47.1817 37.1141 49.9997C37.2088 50.4496 37.2739 50.9409 37.5936 51.2665C38.1146 51.7993 38.9848 51.6217 39.7248 51.5625C42.0573 51.379 44.4075 53.0189 45.041 55.2685L12.9131 55.1501C12.629 54.0608 13.1144 53.0899 14.0142 52.4091Z" fill="#F0F0F0"/>
<path d="M40.3442 18.6639C41.0901 18.0956 42.1853 18.0364 42.9963 18.51C44.0738 16.3374 47.0634 15.3783 49.2005 16.5268C49.757 14.1884 52.0658 12.3887 54.4693 12.4183C56.8728 12.4479 59.1343 14.3009 59.6375 16.6511C59.7144 17.0241 59.7677 17.4326 60.0341 17.7049C60.4663 18.1489 61.1944 18.0009 61.816 17.9535C63.7637 17.7996 65.7232 19.1671 66.256 21.0497L39.4266 20.955C39.1898 20.0492 39.5983 19.2322 40.3442 18.6698V18.6639Z" fill="#F5F5F5"/>
<path d="M255.59 89.3475C256.336 88.7792 257.431 88.72 258.242 89.1936C259.32 87.021 262.309 86.0619 264.447 87.2104C265.003 84.872 267.312 83.0723 269.715 83.1019C272.119 83.1315 274.38 84.9845 274.884 87.3347C274.961 87.7077 275.014 88.1162 275.28 88.3885C275.712 88.8325 276.441 88.6845 277.062 88.6371C279.01 88.4832 280.969 89.8507 281.502 91.7333L254.673 91.6386C254.436 90.7328 254.844 89.9158 255.59 89.3534V89.3475Z" fill="#F5F5F5"/>
<path d="M179.368 6.24987C180.114 5.68155 181.209 5.62235 182.02 6.09595C183.097 3.92331 186.087 2.96427 188.224 4.11275C188.78 1.77435 191.089 -0.0253338 193.493 0.00426616C195.896 0.0338662 198.158 1.88683 198.661 4.23707C198.738 4.61003 198.791 5.01851 199.058 5.29083C199.49 5.73483 200.218 5.58683 200.839 5.53947C202.787 5.38555 204.747 6.75307 205.279 8.63563L178.45 8.54091C178.213 7.63515 178.622 6.81819 179.368 6.25579V6.24987Z" fill="#F5F5F5"/>
<path d="M256.912 40.1874C257.658 39.619 258.754 39.5598 259.565 40.0334C260.642 37.8608 263.632 36.9018 265.769 38.0502C266.325 35.7118 268.634 33.9122 271.038 33.9418C273.441 33.9714 275.703 35.8243 276.206 38.1746C276.283 38.5475 276.336 38.956 276.608 39.2283C277.04 39.6723 277.769 39.5243 278.39 39.477C280.338 39.323 282.297 40.6906 282.83 42.5731L256.001 42.4784C255.764 41.5726 256.172 40.7557 256.918 40.1933L256.912 40.1874Z" fill="#E0E0E0"/>
<path d="M116.635 43.796C117.281 43.3046 118.228 43.2514 118.926 43.6598C119.856 41.7832 122.443 40.9544 124.296 41.943C124.775 39.9184 126.77 38.3614 128.854 38.391C130.938 38.4206 132.892 40.019 133.324 42.0555C133.395 42.3811 133.436 42.7304 133.667 42.9672C134.04 43.352 134.668 43.2218 135.206 43.1803C136.894 43.0501 138.587 44.2341 139.042 45.8562L115.842 45.7733C115.641 44.9859 115.99 44.2874 116.635 43.796Z" fill="#F5F5F5"/>
<path d="M182.563 56.797C183.474 56.1103 184.8 56.0333 185.783 56.6076C187.092 53.9673 190.732 52.801 193.325 54.1922C194 51.3447 196.806 49.1602 199.731 49.1957C202.655 49.2313 205.408 51.4868 206.012 54.3461C206.107 54.802 206.172 55.2993 206.497 55.6308C207.024 56.1695 207.906 55.9919 208.658 55.9327C211.026 55.7492 213.412 57.4127 214.051 59.6978L181.432 59.5794C181.148 58.4724 181.639 57.4897 182.551 56.797H182.563Z" fill="#F0F0F0"/>
<path d="M29.418 167.977H54.874" stroke="black" stroke-width="0.444" stroke-linecap="round" stroke-linejoin="round"/>
<path d="M23.2695 171.281H48.7255" stroke="black" stroke-width="0.444" stroke-linecap="round" stroke-linejoin="round"/>
<path d="M107.328 80.3594H124.851" stroke="black" stroke-width="0.444" stroke-linecap="round" stroke-linejoin="round"/>
<path d="M103.098 82.5H120.621" stroke="black" stroke-width="0.444" stroke-linecap="round" stroke-linejoin="round"/>
<g clip-path="url(#clip0_374_3126)">
<path d="M243.5 2C233.199 2 224.757 10.4168 224.757 20.6896C224.757 24.6699 226.028 28.3693 228.179 31.4097L241.212 53.9403C243.037 56.3249 244.251 55.8719 245.768 53.8144L260.144 29.3514C260.433 28.826 260.662 28.2666 260.86 27.6952C261.772 25.4722 262.241 23.0924 262.241 20.6896C262.242 10.4168 253.802 2 243.5 2ZM243.5 10.757C249.047 10.757 253.459 15.1582 253.459 20.6896C253.459 26.221 249.047 30.6203 243.5 30.6203C237.953 30.6203 233.539 26.2216 233.539 20.6896C233.539 15.1582 237.953 10.7576 243.5 10.7576" fill="#52BC77"/>
<path d="M255.415 32.8105L255.385 32.8899C255.394 32.866 255.402 32.8414 255.411 32.8175L255.415 32.8105ZM233.424 45.5044C224.524 46.7619 218.3 49.7701 218.3 54.1984C218.3 60.1633 228.7 64.9985 243.5 64.9985C258.3 64.9985 268.7 60.1633 268.7 54.1984C268.7 49.7701 262.476 46.7619 253.578 45.5044L252.345 47.6036C259.052 48.5341 263.66 50.4896 263.66 52.7589C263.66 55.9404 254.634 58.519 243.5 58.519C232.366 58.519 223.34 55.9404 223.34 52.7589C223.339 50.4972 227.918 48.5435 234.645 47.6092C234.239 46.9074 233.831 46.2069 233.424 45.5044Z" fill="#52BC77"/>
</g>
<defs>
<clipPath id="clip0_374_3126">
<rect width="63" height="63" fill="white" transform="translate(212 2)"/>
</clipPath>
</defs>
</svg>
