<svg width="33" height="33" viewBox="0 0 33 33" fill="none" xmlns="http://www.w3.org/2000/svg">
<mask id="mask0_318_4483" style="mask-type:alpha" maskUnits="userSpaceOnUse" x="0" y="0" width="33" height="33">
<rect width="33" height="33" fill="#D9D9D9"/>
</mask>
<g mask="url(#mask0_318_4483)">
<path d="M6.87517 26.1252C6.48558 26.1252 6.15902 25.9935 5.89548 25.7299C5.63194 25.4664 5.50017 25.1398 5.50017 24.7502C5.50017 24.3606 5.63194 24.0341 5.89548 23.7705C6.15902 23.507 6.48558 23.3752 6.87517 23.3752H8.25017V13.7502C8.25017 11.8481 8.82309 10.158 9.96892 8.6799C11.1148 7.20177 12.6043 6.23354 14.4377 5.77521V4.81271C14.4377 4.23979 14.6382 3.75281 15.0392 3.35177C15.4403 2.95073 15.9273 2.75021 16.5002 2.75021C17.0731 2.75021 17.5601 2.95073 17.9611 3.35177C18.3622 3.75281 18.5627 4.23979 18.5627 4.81271V5.77521C20.396 6.23354 21.8856 7.20177 23.0314 8.6799C24.1773 10.158 24.7502 11.8481 24.7502 13.7502V23.3752H26.1252C26.5148 23.3752 26.8413 23.507 27.1049 23.7705C27.3684 24.0341 27.5002 24.3606 27.5002 24.7502C27.5002 25.1398 27.3684 25.4664 27.1049 25.7299C26.8413 25.9935 26.5148 26.1252 26.1252 26.1252H6.87517ZM16.5002 30.2502C15.7439 30.2502 15.0965 29.981 14.558 29.4424C14.0194 28.9039 13.7502 28.2565 13.7502 27.5002H19.2502C19.2502 28.2565 18.9809 28.9039 18.4424 29.4424C17.9038 29.981 17.2564 30.2502 16.5002 30.2502ZM11.0002 23.3752H22.0002V13.7502C22.0002 12.2377 21.4616 10.9429 20.3846 9.86584C19.3075 8.78876 18.0127 8.25021 16.5002 8.25021C14.9877 8.25021 13.6929 8.78876 12.6158 9.86584C11.5387 10.9429 11.0002 12.2377 11.0002 13.7502V23.3752Z" fill="white"/>
<ellipse cx="23.375" cy="9.62492" rx="4.125" ry="4.125" fill="#F33D3D" stroke="#47286F" stroke-width="2.30633"/>
</g>
</svg>
