<svg width="128" height="91" viewBox="0 0 128 91" fill="none" xmlns="http://www.w3.org/2000/svg">
<g clip-path="url(#clip0_318_4591)">
<path d="M119.697 66.2085C119.697 64.405 119.24 62.7062 118.438 61.2202H125.719C125.719 61.2202 128.027 65.0573 125.67 68.4968H119.275C119.473 67.691 119.697 67.0771 119.697 66.2085Z" fill="#52BC77"/>
<path d="M95.9955 24.3489C100.619 24.3489 113.036 44.7521 113.036 44.7521C113.036 44.7521 125.719 48.4008 125.719 50.6473V61.2204H118.438C116.663 57.9379 113.193 55.7089 109.201 55.7089C103.405 55.7089 98.7083 60.4076 98.7083 66.2052C98.7083 66.9901 98.7955 67.7505 98.9594 68.4866H81.8557V24.3489H95.992H95.9955Z" fill="#47286F"/>
<path d="M88.4265 49.0927H92.7713V47.3904H88.4265V49.0927Z" fill="#3F3D3E"/>
<path d="M15.0667 64.7388L78.3616 64.7388C80.436 64.7388 82.1177 63.0572 82.1177 60.9828V8.81464C82.1177 6.74022 80.436 5.05858 78.3616 5.05858L15.0667 5.05858C12.9922 5.05858 11.3106 6.74023 11.3106 8.81465V60.9828C11.3106 63.0572 12.9922 64.7388 15.0667 64.7388Z" fill="#52BC77"/>
<path d="M81.8987 40.8004H10.8381V45.8047H81.8987V40.8004Z" fill="white"/>
<path d="M81.8987 36.797H10.8381V37.7979H81.8987V36.797Z" fill="white"/>
<path d="M81.8987 40.8004H10.8381V45.8047H81.8987V40.8004Z" fill="white"/>
<path d="M81.8987 36.797H10.8381V37.7979H81.8987V36.797Z" fill="white"/>
<path d="M11.2287 68.5468L83.5329 68.5468V61.0346L11.2287 61.0346V68.5468Z" fill="#47286F"/>
<path d="M97.1606 27.6134H84.0216V42.519H96.1668L97.328 44.748H103.782V40.3492L97.1606 27.6134Z" fill="#52BC77"/>
<path d="M98.7099 27.6134H100.684C106.646 33.7773 113.038 44.748 113.038 44.748C109.935 44.748 106.521 41.3399 106.521 41.3399L98.7134 27.6134H98.7099Z" fill="#52BC77"/>
<path d="M23.6134 66.3215C23.3518 65.3064 23.2159 64.246 23.2159 63.1507C23.2159 56.1392 28.8996 50.4532 35.9085 50.4532C42.9174 50.4532 48.6011 56.1392 48.6011 63.1507C48.6011 64.246 48.4617 65.3064 48.2036 66.3215H23.6134Z" fill="#47286F"/>
<path d="M35.9049 76.0082C42.3255 76.0082 47.5305 70.8013 47.5305 64.3782C47.5305 57.9551 42.3255 52.7481 35.9049 52.7481C29.4842 52.7481 24.2793 57.9551 24.2793 64.3782C24.2793 70.8013 29.4842 76.0082 35.9049 76.0082Z" fill="black"/>
<path d="M35.9005 72.1377C40.1854 72.1377 43.659 68.6628 43.659 64.3762C43.659 60.0896 40.1854 56.6147 35.9005 56.6147C31.6156 56.6147 28.1419 60.0896 28.1419 64.3762C28.1419 68.6628 31.6156 72.1377 35.9005 72.1377Z" fill="#272828"/>
<path d="M39.3951 65.1989C39.8498 63.2714 38.6565 61.3401 36.7297 60.8851C34.8029 60.4302 32.8723 61.6239 32.4175 63.5515C31.9628 65.479 33.1561 67.4104 35.0829 67.8653C37.0097 68.3202 38.9403 67.1265 39.3951 65.1989Z" fill="#8EC7CA"/>
<path d="M36.4032 62.1413C36.4032 62.4168 36.1801 62.6401 35.9046 62.6401C35.6291 62.6401 35.4059 62.4168 35.4059 62.1413C35.4059 61.8657 35.6291 61.6424 35.9046 61.6424C36.1801 61.6424 36.4032 61.8657 36.4032 62.1413Z" fill="black"/>
<path d="M34.2144 62.8283C34.4515 62.9643 34.5352 63.2713 34.3958 63.5085C34.2598 63.7457 33.9529 63.8294 33.7158 63.6899C33.4787 63.5539 33.395 63.2469 33.5345 63.0097C33.6705 62.7725 33.9773 62.6888 34.2144 62.8283Z" fill="black"/>
<path d="M33.7221 65.063C33.9592 64.927 34.2625 65.0072 34.402 65.2444C34.538 65.4816 34.4578 65.7851 34.2207 65.9246C33.9836 66.0642 33.6802 65.9804 33.5407 65.7432C33.4047 65.506 33.4849 65.2025 33.7221 65.063Z" fill="black"/>
<path d="M35.4059 66.6138C35.4059 66.3382 35.6291 66.115 35.9046 66.115C36.1801 66.115 36.4032 66.3382 36.4032 66.6138C36.4032 66.8894 36.1801 67.1127 35.9046 67.1127C35.6291 67.1127 35.4059 66.8894 35.4059 66.6138Z" fill="black"/>
<path d="M37.598 65.9262C37.3609 65.7901 37.2772 65.4832 37.4167 65.246C37.5562 65.0088 37.8595 64.925 38.0966 65.0646C38.3338 65.2041 38.4175 65.5076 38.278 65.7448C38.142 65.982 37.8351 66.0657 37.598 65.9262Z" fill="black"/>
<path d="M38.0951 63.6884C37.858 63.8244 37.5546 63.7442 37.4151 63.507C37.2791 63.2698 37.3593 62.9663 37.5965 62.8267C37.8336 62.6907 38.1369 62.7709 38.2764 63.0081C38.4159 63.2453 38.3322 63.5488 38.0951 63.6884Z" fill="black"/>
<path d="M97.0471 68.4992C96.7856 67.4841 96.6496 66.4236 96.6496 65.3283C96.6496 58.3168 102.333 52.6308 109.342 52.6308C116.351 52.6308 122.035 58.3168 122.035 65.3283C122.035 66.4236 121.895 67.4841 121.637 68.4992H97.0506H97.0471Z" fill="#52BC77"/>
<path d="M109.339 75.7301C115.082 75.7301 119.737 71.0729 119.737 65.3279C119.737 59.583 115.082 54.9258 109.339 54.9258C103.596 54.9258 98.9406 59.583 98.9406 65.3279C98.9406 71.0729 103.596 75.7301 109.339 75.7301Z" fill="black"/>
<path d="M109.336 72.2653C113.168 72.2653 116.275 69.1574 116.275 65.3236C116.275 61.4898 113.168 58.3818 109.336 58.3818C105.503 58.3818 102.397 61.4898 102.397 65.3236C102.397 69.1574 105.503 72.2653 109.336 72.2653Z" fill="#272828"/>
<path d="M109.338 68.5379C111.11 68.5379 112.546 67.1011 112.546 65.3287C112.546 63.5562 111.11 62.1194 109.338 62.1194C107.567 62.1194 106.13 63.5562 106.13 65.3287C106.13 67.1011 107.567 68.5379 109.338 68.5379Z" fill="#8EC7CA"/>
<path d="M109.78 63.3287C109.78 63.5729 109.581 63.7717 109.337 63.7717C109.093 63.7717 108.894 63.5729 108.894 63.3287C108.894 63.0845 109.093 62.8857 109.337 62.8857C109.581 62.8857 109.78 63.0845 109.78 63.3287Z" fill="black"/>
<path d="M107.828 63.9456C108.041 64.0677 108.114 64.3398 107.992 64.5526C107.87 64.7654 107.598 64.8386 107.385 64.7165C107.173 64.5944 107.099 64.3223 107.222 64.1095C107.344 63.8968 107.616 63.8235 107.828 63.9456Z" fill="black"/>
<path d="M107.381 65.9434C107.594 65.8213 107.866 65.8946 107.988 66.1073C108.11 66.3201 108.037 66.5922 107.824 66.7143C107.612 66.8364 107.34 66.7631 107.218 66.5504C107.096 66.3376 107.169 66.0655 107.381 65.9434Z" fill="black"/>
<path d="M108.891 67.3321C108.891 67.0879 109.089 66.8891 109.333 66.8891C109.577 66.8891 109.776 67.0879 109.776 67.3321C109.776 67.5763 109.577 67.7751 109.333 67.7751C109.089 67.7751 108.891 67.5763 108.891 67.3321Z" fill="black"/>
<path d="M110.845 66.7104C110.633 66.5883 110.559 66.3162 110.681 66.1034C110.804 65.8906 111.076 65.8174 111.288 65.9395C111.501 66.0616 111.574 66.3337 111.452 66.5464C111.33 66.7592 111.058 66.8325 110.845 66.7104Z" fill="black"/>
<path d="M111.288 64.7165C111.076 64.8386 110.804 64.7654 110.681 64.5526C110.559 64.3398 110.633 64.0677 110.845 63.9456C111.058 63.8235 111.33 63.8968 111.452 64.1095C111.574 64.3223 111.501 64.5944 111.288 64.7165Z" fill="black"/>
<path d="M125.718 53.9757H121.534V58.3815H125.718V53.9757Z" fill="#FEFEFE"/>
<path d="M97.9412 63.3275H81.8557V68.4902H97.9412V63.3275Z" fill="#52BC77"/>
<path d="M103.787 38.615C103.696 38.615 103.605 38.622 103.515 38.6324V45.7137C103.605 45.7242 103.693 45.7311 103.787 45.7311C105.325 45.7311 106.573 44.137 106.573 42.1731C106.573 40.2091 105.325 38.615 103.787 38.615Z" fill="#272828"/>
</g>
<g clip-path="url(#clip1_318_4591)">
<g style="mix-blend-mode:multiply">
<path d="M11.0282 81.4378C21.0833 81.4378 29.2345 81.154 29.2345 80.8039C29.2345 80.4538 21.0833 80.17 11.0282 80.17C0.973214 80.17 -7.178 80.4538 -7.178 80.8039C-7.178 81.154 0.973214 81.4378 11.0282 81.4378Z" fill="#DEE2E2"/>
</g>
<path d="M12.4461 34.1229H9.46511V41.3767H12.4461V34.1229Z" fill="#E2B798"/>
<path d="M8.68672 36.7266C7.6724 37.2125 5.48631 37.5944 5.13013 38.0049C4.66814 38.5349 2.90791 43.4998 2.49237 44.5598C2.07683 45.6198 3.64865 46.8721 4.48231 46.1992C5.31596 45.5237 6.10832 42.6502 6.10832 42.6502L6.21673 54.1025H10.9606V38.4518C9.9385 38.0647 9.17195 37.319 8.68672 36.7292V36.7266Z" fill="black"/>
<path d="M8.68609 36.7266L8.05375 39.3247L10.0901 42.4346L10.9599 54.1025V38.4518C9.93786 38.0647 9.17131 37.319 8.68609 36.7292V36.7266Z" fill="black"/>
<path d="M2.90873 45.6522C2.9268 46.1615 3.38105 46.5408 3.79917 46.5018C4.21729 46.4628 4.45216 45.6522 4.45216 45.6522H2.90873Z" fill="#CCA183"/>
<path d="M5.73628 45.836H4.70323V62.9856H5.73628V45.836Z" fill="#232020"/>
<path d="M5.65265 45.1166H1.28305C1.10345 45.1166 0.957848 45.2632 0.957848 45.444V45.6154C0.957848 45.7962 1.10345 45.9428 1.28305 45.9428H5.65265C5.83226 45.9428 5.97786 45.7962 5.97786 45.6154V45.444C5.97786 45.2632 5.83226 45.1166 5.65265 45.1166Z" fill="#564141"/>
<path d="M1.98237 45.9292C1.60038 45.9292 1.47391 45.5499 1.47391 45.1342V44.321C1.47391 44.321 1.94623 43.6974 3.08961 43.6974C4.23298 43.6974 4.72337 44.2067 4.72337 44.7003C4.72337 45.1939 4.57883 45.9292 4.23298 45.9292H1.98237Z" fill="#ECC19E"/>
<path d="M2.23506 45.9296V44.7085C2.23506 44.6721 2.20667 44.6436 2.17312 44.6436C2.13957 44.6436 2.11118 44.6721 2.11118 44.7085V45.9296H2.23506Z" fill="#BF9B80"/>
<path d="M3.80281 45.9296V44.7085C3.80281 44.6721 3.77442 44.6436 3.74086 44.6436C3.70731 44.6436 3.67892 44.6721 3.67892 44.7085V45.9296H3.80281Z" fill="#BF9B80"/>
<path d="M2.99743 45.9292V44.5886C2.99743 44.5496 2.96904 44.5184 2.93549 44.5184C2.90194 44.5184 2.87355 44.5496 2.87355 44.5886V45.9292H2.99743Z" fill="#BF9B80"/>
<path d="M13.2324 36.7266C14.2467 37.2125 16.4328 37.5944 16.789 38.0049C17.251 38.5349 19.0112 43.4998 19.4268 44.5598C19.8423 45.6198 18.2705 46.8721 17.4368 46.1992C16.6032 45.5237 15.8108 42.6502 15.8108 42.6502L15.7024 54.1025H10.9586V38.4518C11.9806 38.0647 12.7472 37.319 13.2324 36.7292V36.7266Z" fill="black"/>
<path d="M13.2324 36.7266L13.8648 39.3247L11.8284 42.4346L10.9586 54.1025V38.4518C11.9806 38.0647 12.7472 37.319 13.2324 36.7292V36.7266Z" fill="black"/>
<path d="M19.0154 45.6522C18.9973 46.1615 18.543 46.5408 18.1249 46.5018C17.7068 46.4628 17.4719 45.6522 17.4719 45.6522H19.0154Z" fill="#CCA183"/>
<path d="M16.3216 62.9834H17.3546V45.8338H16.3216V62.9834Z" fill="#232020"/>
<path d="M16.2684 45.9337H20.638C20.8176 45.9337 20.9632 45.7872 20.9632 45.6064V45.4349C20.9632 45.2541 20.8176 45.1075 20.638 45.1075H16.2684C16.0888 45.1075 15.9432 45.2541 15.9432 45.4349V45.6064C15.9432 45.7872 16.0888 45.9337 16.2684 45.9337Z" fill="#564141"/>
<path d="M19.9432 45.9292C20.3252 45.9292 20.4516 45.5499 20.4516 45.1342V44.321C20.4516 44.321 19.9793 43.6974 18.8359 43.6974C17.6926 43.6974 17.2022 44.2067 17.2022 44.7003C17.2022 45.1939 17.3467 45.9292 17.6926 45.9292H19.9432Z" fill="#ECC19E"/>
<path d="M19.6926 45.9296V44.7085C19.6926 44.6721 19.721 44.6436 19.7545 44.6436C19.7881 44.6436 19.8165 44.6721 19.8165 44.7085V45.9296H19.6926Z" fill="#BF9B80"/>
<path d="M18.1209 45.9296V44.7085C18.1209 44.6721 18.1493 44.6436 18.1829 44.6436C18.2164 44.6436 18.2448 44.6721 18.2448 44.7085V45.9296H18.1209Z" fill="#BF9B80"/>
<path d="M18.9302 45.9292V44.5886C18.9302 44.5496 18.9586 44.5184 18.9922 44.5184C19.0257 44.5184 19.0541 44.5496 19.0541 44.5886V45.9292H18.9302Z" fill="#BF9B80"/>
<path d="M13.9325 78.743C14.0177 79.0443 15.6514 79.9511 16.3767 79.9511C17.1019 79.9511 17.6775 80.0706 17.6775 80.3382V80.8604H11.8187C11.8187 80.8604 11.829 80.32 11.829 79.9199C11.829 79.5198 12.1439 78.9794 12.1439 78.9794L13.9299 78.743H13.9325Z" fill="#101011"/>
<path d="M13.9383 78.309H12.1471V78.9819L13.9331 78.7455L13.9383 78.309Z" fill="#ECC19E"/>
<path d="M14.3373 77.918H11.3769V78.4221H14.3373V77.918Z" fill="#52BC77"/>
<path d="M7.96736 78.743C7.88218 79.0443 6.24842 79.9511 5.52317 79.9511C4.79791 79.9511 4.22235 80.0706 4.22235 80.3382V80.8604H10.0812C10.0812 80.8604 10.0709 80.32 10.0709 79.9199C10.0709 79.5198 9.75598 78.9794 9.75598 78.9794L7.96994 78.743H7.96736Z" fill="#101011"/>
<path d="M7.96016 78.309H9.75136V78.9819L7.96532 78.7455L7.96016 78.309Z" fill="#ECC19E"/>
<path d="M7.56031 78.4224H10.5207V77.9184H7.56031V78.4224Z" fill="#52BC77"/>
<path d="M7.99887 30.3736C8.15115 31.0413 8.08921 31.9402 7.77949 32.0493C7.47235 32.1584 7.03617 31.4336 6.88389 30.7659C6.73161 30.0982 6.92002 29.7422 7.22716 29.6331C7.5343 29.524 7.8466 29.7033 7.99887 30.371V30.3736Z" fill="#E0B89B"/>
<path d="M13.9312 30.3736C13.7789 31.0413 13.8408 31.9402 14.1505 32.0493C14.4577 32.1584 14.8939 31.4336 15.0461 30.7659C15.1984 30.0982 15.01 29.7422 14.7029 29.6331C14.3957 29.524 14.0834 29.7033 13.9312 30.371V30.3736Z" fill="#E0B89B"/>
<path d="M10.9583 25.1425C7.88173 25.1425 7.0842 28.3148 7.29068 30.8739C7.45845 32.9445 8.80056 35.805 10.9583 35.805C13.116 35.805 14.4581 32.9419 14.6258 30.8739C14.8323 28.3174 14.0322 25.1425 10.9583 25.1425Z" fill="#ECC19E"/>
<path d="M10.9583 25.1425C7.88173 25.1425 7.0842 28.3148 7.29068 30.8739C7.29584 30.9414 7.30359 31.0116 7.31133 31.0817C7.31133 29.619 9.03284 29.6606 11.3119 27.3665C13.245 25.4205 14.5303 29.4553 14.6387 30.692C14.7936 28.1693 13.9625 25.1425 10.9583 25.1425Z" fill="#3A2514"/>
<path d="M10.9564 28.6163C12.3682 28.6163 13.6768 29.7829 14.8795 29.627C14.6756 27.8005 13.6045 24.7868 10.9564 24.7868C8.30835 24.7868 7.23724 27.7979 7.03334 29.627C8.2335 29.7829 9.54464 28.6163 10.9564 28.6163Z" fill="black"/>
<path d="M13.9799 32.0014L10.9601 30.8114L7.94037 32.0014C7.94037 32.0014 8.82823 35.8075 10.9601 35.8075C13.0894 35.8075 13.9799 32.0014 13.9799 32.0014Z" fill="#E1FEFF"/>
<path d="M13.7344 32.04C14.1112 32.1985 14.3409 31.736 14.4441 30.8137C14.5474 29.8914 14.3977 29.6134 14.6455 29.6316" stroke="#EBFBFC" stroke-width="0.274524" stroke-miterlimit="10"/>
<path d="M8.18292 32.04C7.80609 32.1985 7.57638 31.736 7.47315 30.8137C7.36991 29.8914 7.5196 29.6134 7.27183 29.6316" stroke="#EBFBFC" stroke-width="0.274524" stroke-miterlimit="10"/>
<path d="M9.46914 36.2692C9.44849 36.4329 8.98133 36.5836 8.6871 36.7265C9.17232 37.3162 9.93888 38.0619 10.9609 38.449V36.4615L9.47172 36.2692H9.46914Z" fill="#E2B798"/>
<path d="M12.4426 36.2692C12.4632 36.4329 12.9304 36.5836 13.2246 36.7265C12.7394 37.3162 11.9728 38.0619 10.9507 38.449V36.4615L12.44 36.2692H12.4426Z" fill="#E2B798"/>
<path d="M22.011 75.8264H0.0390959V76.6214H22.011V75.8264Z" fill="#AD3939"/>
<path d="M3.75162 76.6201H2.26756V80.8601H3.75162V76.6201Z" fill="#232020"/>
<path d="M19.7614 76.6201H18.2773V80.8601H19.7614V76.6201Z" fill="#232020"/>
</g>
<path d="M37.5536 50.18H0.172022V83.944H37.5536V50.18Z" fill="#52BC77"/>
<path d="M37.5504 50.18H12.2275V83.944H37.5504V50.18Z" fill="#47286F"/>
<path d="M8.31524 49.8081H3.47538V58.7012H8.31524V49.8081Z" fill="#E6E4FD"/>
<path d="M29.6286 49.8081H24.7887V58.7012H29.6286V49.8081Z" fill="#E6E4FD"/>
<path d="M20.2647 75.864H14.2629V77.5193H20.2647V75.864Z" fill="#E6E4FD"/>
<path d="M20.2647 78.8119H14.2629V79.6669H20.2647V78.8119Z" fill="#E6E4FD"/>
<path d="M64.7717 71.8269H37.0316V90.9999H64.7717V71.8269Z" fill="#52BC77"/>
<path d="M64.7664 71.8269H46.0483V90.9999H64.7664V71.8269Z" fill="#47286F"/>
<path d="M43.0086 71.8274H39.4294V76.8152H43.0086V71.8274Z" fill="#E6E4FD"/>
<path d="M58.782 71.8274H55.2029V76.8152H58.782V71.8274Z" fill="#E6E4FD"/>
<path d="M51.8569 84.9753H47.4172V86.1976H51.8569V84.9753Z" fill="#E6E4FD"/>
<path d="M51.8569 87.1525H47.4172V87.7883H51.8569V87.1525Z" fill="#E6E4FD"/>
<defs>
<clipPath id="clip0_318_4591">
<rect width="118.215" height="75.9955" fill="white" transform="translate(9.35246) scale(1.00085)"/>
</clipPath>
<clipPath id="clip1_318_4591">
<rect width="44" height="57" fill="white" transform="translate(0 24.7868) scale(1.00085)"/>
</clipPath>
</defs>
</svg>
