<svg width="32" height="32" viewBox="0 0 32 32" fill="none" xmlns="http://www.w3.org/2000/svg">
<g clip-path="url(#clip0_0_192)">
<circle cx="16" cy="16" r="15" fill="white" stroke="#01A367" stroke-width="2"/>
<path d="M14.3334 20.1668H19.3334M19.3334 20.1668V11.0002C19.3334 10.5581 19.1578 10.1342 18.8453 9.82165C18.5327 9.50909 18.1088 9.3335 17.6667 9.3335H9.33341C8.89139 9.3335 8.46746 9.50909 8.1549 9.82165C7.84234 10.1342 7.66675 10.5581 7.66675 11.0002V19.3335C7.66675 19.5545 7.75455 19.7665 7.91083 19.9228C8.06711 20.079 8.27907 20.1668 8.50008 20.1668H9.33341M19.3334 20.1668V12.6668H21.0001C21.8841 12.6668 22.732 13.018 23.3571 13.6431C23.9822 14.2683 24.3334 15.1161 24.3334 16.0002V19.3335C24.3334 19.5545 24.2456 19.7665 24.0893 19.9228C23.9331 20.079 23.7211 20.1668 23.5001 20.1668M19.3334 20.1668H23.5001M23.5001 20.1668C23.5001 20.8299 23.2367 21.4658 22.7678 21.9346C22.299 22.4034 21.6631 22.6668 21.0001 22.6668C20.337 22.6668 19.7012 22.4034 19.2323 21.9346C18.7635 21.4658 18.5001 20.8299 18.5001 20.1668H23.5001ZM24.3334 17.6668H22.6667" stroke="#01A367" stroke-width="1.5" stroke-linecap="round" stroke-linejoin="round"/>
<path d="M11.8335 22.667C13.2142 22.667 14.3335 21.5477 14.3335 20.167C14.3335 18.7863 13.2142 17.667 11.8335 17.667C10.4528 17.667 9.3335 18.7863 9.3335 20.167C9.3335 21.5477 10.4528 22.667 11.8335 22.667Z" stroke="#01A367" stroke-width="1.5" stroke-linecap="round" stroke-linejoin="round"/>
</g>
<defs>
<clipPath id="clip0_0_192">
<rect width="32" height="32" fill="white"/>
</clipPath>
</defs>
</svg>
