<svg width="15" height="19" viewBox="0 0 15 19" fill="none" xmlns="http://www.w3.org/2000/svg">
<path d="M1.48566 5.51063C1.20946 3.70753 2.4921 2.08789 4.45149 1.4945C4.7992 1.38913 5.17436 1.41913 5.50053 1.57838C5.82671 1.73763 6.07935 2.01416 6.20698 2.35162L6.83601 4.01426C6.93728 4.28173 6.95559 4.57309 6.8886 4.85096C6.8216 5.12882 6.67237 5.3805 6.46004 5.57369L4.58886 7.27216C4.49663 7.35605 4.4279 7.46221 4.38938 7.58027C4.35086 7.69833 4.34386 7.82427 4.36906 7.94581L4.38642 8.02034L4.43124 8.20667C4.66395 9.11201 5.01852 9.9822 5.48541 10.7938C5.994 11.6562 6.62516 12.4416 7.35948 13.1258L7.41732 13.1774C7.51074 13.2596 7.62404 13.3164 7.74619 13.3422C7.86834 13.3681 7.99517 13.3622 8.11432 13.325L10.5335 12.5697C10.8085 12.4841 11.1029 12.4819 11.3791 12.5634C11.6553 12.6448 11.9007 12.8062 12.0837 13.0269L13.229 14.4043C13.7062 14.9776 13.6483 15.8204 13.1003 16.3263C11.6007 17.7124 9.53867 17.9961 8.10419 16.8538C6.34584 15.448 4.86354 13.7334 3.73136 11.7957C2.58999 9.85947 1.82903 7.72713 1.48566 5.51063ZM5.88452 8.04041L7.43468 6.63004C7.85958 6.24381 8.15832 5.74053 8.29256 5.1848C8.42681 4.62907 8.39041 4.04625 8.18806 3.51116L7.56048 1.84853C7.30359 1.16982 6.79538 0.613677 6.13932 0.293331C5.48327 -0.0270142 4.72869 -0.087473 4.02924 0.124265C1.59555 0.862417 -0.358049 3.02527 0.0555194 5.72706C0.344728 7.61329 1.01135 10.0126 2.48198 12.5181C3.70347 14.6074 5.30242 16.4561 7.19897 17.9718C9.35068 19.6846 12.2225 19.0998 14.0879 17.377C14.6217 16.8844 14.9457 16.2084 14.9938 15.4871C15.0419 14.7658 14.8105 14.0535 14.3468 13.4956L13.2015 12.1167C12.8351 11.676 12.3443 11.3537 11.7919 11.1913C11.2395 11.0289 10.6508 11.0337 10.1012 11.2051L8.09262 11.8315C7.57403 11.3015 7.11978 10.7132 6.73913 10.0786C6.37143 9.43696 6.08489 8.7529 5.88596 8.04184" fill="#01A367"/>
</svg>
