<svg width="28" height="28" viewBox="0 0 28 28" fill="none" xmlns="http://www.w3.org/2000/svg">
<mask id="mask0_318_4717" style="mask-type:alpha" maskUnits="userSpaceOnUse" x="0" y="0" width="28" height="28">
<rect width="27.9999" height="27.9999" fill="#D9D9D9"/>
</mask>
<g mask="url(#mask0_318_4717)">
<path d="M20.7082 23.6248C19.4832 23.6248 18.4478 23.2019 17.6019 22.356C16.7561 21.5102 16.3332 20.4748 16.3332 19.2498C16.3332 18.0248 16.7561 16.9894 17.6019 16.1436C18.4478 15.2977 19.4832 14.8748 20.7082 14.8748C21.9332 14.8748 22.9686 15.2977 23.8144 16.1436C24.6602 16.9894 25.0832 18.0248 25.0832 19.2498C25.0832 20.4748 24.6602 21.5102 23.8144 22.356C22.9686 23.2019 21.9332 23.6248 20.7082 23.6248ZM20.7082 21.2915C21.2721 21.2915 21.7533 21.0922 22.1519 20.6935C22.5505 20.2949 22.7498 19.8137 22.7498 19.2498C22.7498 18.6859 22.5505 18.2047 22.1519 17.8061C21.7533 17.4074 21.2721 17.2081 20.7082 17.2081C20.1443 17.2081 19.663 17.4074 19.2644 17.8061C18.8658 18.2047 18.6665 18.6859 18.6665 19.2498C18.6665 19.8137 18.8658 20.2949 19.2644 20.6935C19.663 21.0922 20.1443 21.2915 20.7082 21.2915ZM12.8332 20.4165H5.83322C5.50266 20.4165 5.22558 20.3047 5.00197 20.081C4.77836 19.8574 4.66655 19.5804 4.66655 19.2498C4.66655 18.9192 4.77836 18.6422 5.00197 18.4185C5.22558 18.1949 5.50266 18.0831 5.83322 18.0831H12.8332C13.1638 18.0831 13.4408 18.1949 13.6644 18.4185C13.8881 18.6422 13.9999 18.9192 13.9999 19.2498C13.9999 19.5804 13.8881 19.8574 13.6644 20.081C13.4408 20.3047 13.1638 20.4165 12.8332 20.4165ZM7.29155 13.1248C6.06655 13.1248 5.03114 12.7019 4.18531 11.8561C3.33947 11.0102 2.91656 9.97482 2.91656 8.74983C2.91656 7.52483 3.33947 6.48942 4.18531 5.64358C5.03114 4.79775 6.06655 4.37484 7.29155 4.37484C8.51654 4.37484 9.55196 4.79775 10.3978 5.64358C11.2436 6.48942 11.6665 7.52483 11.6665 8.74983C11.6665 9.97482 11.2436 11.0102 10.3978 11.8561C9.55196 12.7019 8.51654 13.1248 7.29155 13.1248ZM7.29155 10.7915C7.85543 10.7915 8.33668 10.5922 8.73529 10.1936C9.1339 9.79496 9.33321 9.31371 9.33321 8.74983C9.33321 8.18594 9.1339 7.70469 8.73529 7.30608C8.33668 6.90747 7.85543 6.70816 7.29155 6.70816C6.72766 6.70816 6.24641 6.90747 5.8478 7.30608C5.44919 7.70469 5.24989 8.18594 5.24989 8.74983C5.24989 9.31371 5.44919 9.79496 5.8478 10.1936C6.24641 10.5922 6.72766 10.7915 7.29155 10.7915ZM22.1665 9.91649H15.1665C14.836 9.91649 14.5589 9.80468 14.3353 9.58107C14.1117 9.35746 13.9999 9.08038 13.9999 8.74983C13.9999 8.41927 14.1117 8.14219 14.3353 7.91858C14.5589 7.69497 14.836 7.58316 15.1665 7.58316H22.1665C22.4971 7.58316 22.7741 7.69497 22.9978 7.91858C23.2214 8.14219 23.3332 8.41927 23.3332 8.74983C23.3332 9.08038 23.2214 9.35746 22.9978 9.58107C22.7741 9.80468 22.4971 9.91649 22.1665 9.91649Z" fill="#76889A"/>
</g>
</svg>
