<svg width="32" height="32" viewBox="0 0 32 32" fill="none" xmlns="http://www.w3.org/2000/svg">
<g clip-path="url(#clip0_0_135)">
<circle cx="16" cy="16" r="15" fill="white" stroke="#01A367" stroke-width="2"/>
<path d="M13.9168 14.7502H16.0001C16.2211 14.7502 16.4331 14.6624 16.5893 14.5061C16.7456 14.3499 16.8334 14.1379 16.8334 13.9169C16.8334 13.6959 16.7456 13.4839 16.5893 13.3276C16.4331 13.1714 16.2211 13.0836 16.0001 13.0836H15.1668V12.6669C15.1668 12.4459 15.079 12.2339 14.9227 12.0776C14.7664 11.9214 14.5544 11.8336 14.3334 11.8336C14.1124 11.8336 13.9004 11.9214 13.7442 12.0776C13.5879 12.2339 13.5001 12.4459 13.5001 12.6669V13.1252C12.9938 13.228 12.5437 13.5153 12.2373 13.9313C11.9309 14.3472 11.79 14.8622 11.8419 15.3763C11.8938 15.8903 12.1349 16.3667 12.5183 16.713C12.9017 17.0593 13.4001 17.2507 13.9168 17.2502H14.7501C14.8606 17.2502 14.9666 17.2941 15.0447 17.3723C15.1229 17.4504 15.1668 17.5564 15.1668 17.6669C15.1668 17.7774 15.1229 17.8834 15.0447 17.9615C14.9666 18.0397 14.8606 18.0836 14.7501 18.0836H12.6668C12.4457 18.0836 12.2338 18.1713 12.0775 18.3276C11.9212 18.4839 11.8334 18.6959 11.8334 18.9169C11.8334 19.1379 11.9212 19.3499 12.0775 19.5061C12.2338 19.6624 12.4457 19.7502 12.6668 19.7502H13.5001V20.1669C13.5001 20.3879 13.5879 20.5999 13.7442 20.7561C13.9004 20.9124 14.1124 21.0002 14.3334 21.0002C14.5544 21.0002 14.7664 20.9124 14.9227 20.7561C15.079 20.5999 15.1668 20.3879 15.1668 20.1669V19.7086C15.6731 19.6057 16.1231 19.3185 16.4295 18.9025C16.736 18.4865 16.8769 17.9715 16.825 17.4575C16.773 16.9435 16.532 16.4671 16.1486 16.1208C15.7651 15.7745 15.2667 15.583 14.7501 15.5836H13.9168C13.8062 15.5836 13.7003 15.5397 13.6221 15.4615C13.544 15.3834 13.5001 15.2774 13.5001 15.1669C13.5001 15.0564 13.544 14.9504 13.6221 14.8723C13.7003 14.7941 13.8062 14.7502 13.9168 14.7502ZM23.5001 16.0002H21.0001V8.50022C21.0007 8.35338 20.9624 8.20899 20.8893 8.08167C20.8161 7.95436 20.7106 7.84864 20.5834 7.77522C20.4567 7.70208 20.313 7.66357 20.1668 7.66357C20.0205 7.66357 19.8768 7.70208 19.7501 7.77522L17.2501 9.20855L14.7501 7.77522C14.6234 7.70208 14.4797 7.66357 14.3334 7.66357C14.1871 7.66357 14.0434 7.70208 13.9168 7.77522L11.4168 9.20855L8.91675 7.77522C8.79007 7.70208 8.64637 7.66357 8.50009 7.66357C8.35381 7.66357 8.2101 7.70208 8.08342 7.77522C7.95625 7.84864 7.85074 7.95436 7.77757 8.08167C7.7044 8.20899 7.66617 8.35338 7.66675 8.50022V21.8336C7.66675 22.4966 7.93015 23.1325 8.39899 23.6013C8.86783 24.0702 9.50371 24.3336 10.1668 24.3336H21.8334C22.4965 24.3336 23.1323 24.0702 23.6012 23.6013C24.07 23.1325 24.3334 22.4966 24.3334 21.8336V16.8336C24.3334 16.6125 24.2456 16.4006 24.0893 16.2443C23.9331 16.088 23.7211 16.0002 23.5001 16.0002ZM10.1668 22.6669C9.94574 22.6669 9.73378 22.5791 9.5775 22.4228C9.42122 22.2665 9.33342 22.0546 9.33342 21.8336V9.94189L11.0001 10.8919C11.1287 10.9591 11.2717 10.9941 11.4168 10.9941C11.5619 10.9941 11.7048 10.9591 11.8334 10.8919L14.3334 9.45855L16.8334 10.8919C16.962 10.9591 17.105 10.9941 17.2501 10.9941C17.3952 10.9941 17.5381 10.9591 17.6668 10.8919L19.3334 9.94189V21.8336C19.3357 22.1178 19.3864 22.3997 19.4834 22.6669H10.1668ZM22.6668 21.8336C22.6668 22.0546 22.579 22.2665 22.4227 22.4228C22.2664 22.5791 22.0544 22.6669 21.8334 22.6669C21.6124 22.6669 21.4004 22.5791 21.2442 22.4228C21.0879 22.2665 21.0001 22.0546 21.0001 21.8336V17.6669H22.6668V21.8336Z" fill="#01A367"/>
</g>
<defs>
<clipPath id="clip0_0_135">
<rect width="32" height="32" fill="white"/>
</clipPath>
</defs>
</svg>
