<svg width="215" height="271" viewBox="0 0 215 271" fill="none" xmlns="http://www.w3.org/2000/svg">
<g clip-path="url(#clip0_374_3350)">
<path d="M156.465 43.7713H134.041V81.5569H156.465V43.7713Z" fill="#47286F"/>
<path d="M174.11 81.1275L156.257 81.5487V43.7713H174.11V81.1275Z" fill="#3D186C"/>
<path d="M167.764 80.2676L164.586 80.2619L164.545 43.8692H167.764V80.2676Z" fill="white"/>
<path d="M194.582 226.549C195.567 231.512 169.22 249.915 116.021 260.399C62.8218 270.884 16.8541 275.497 1.9246 264.495C-2.23543 261.436 9.11719 248.114 62.3164 237.629C115.516 227.145 193.597 221.572 194.582 226.549Z" fill="#BFBBB8"/>
<path d="M164.125 235.526C180.122 235.526 193.09 222.216 193.09 205.797C193.09 189.378 180.122 176.067 164.125 176.067C148.128 176.067 135.16 189.378 135.16 205.797C135.16 222.216 148.128 235.526 164.125 235.526Z" fill="black"/>
<path d="M170.496 224.331C178.455 224.331 184.907 216.376 184.907 206.563C184.907 196.75 178.455 188.795 170.496 188.795C162.537 188.795 156.085 196.75 156.085 206.563C156.085 216.376 162.537 224.331 170.496 224.331Z" fill="#8EC7CA"/>
<path d="M56.7353 214.898C56.7353 214.898 72.8312 221.131 103.688 217.191C134.558 213.252 134.558 208.003 134.558 208.003C134.558 208.003 123.724 194.538 104.997 194.862C86.2833 195.186 56.7224 214.898 56.7224 214.898H56.7353Z" fill="#353535"/>
<path d="M123.719 207.663C123.719 207.663 130.614 159.064 140.463 148.23C150.312 137.396 100.405 142.981 100.405 142.981L83 207.339L123.719 207.663Z" fill="#3D186C"/>
<path d="M131.93 149.216C131.93 149.216 113.865 194.198 122.405 209.97C130.945 225.729 192.024 205.707 197.273 197.49C202.521 189.287 193.657 166.944 184.132 158.417C174.606 149.877 172.96 143.643 172.96 143.643L131.917 149.229L131.93 149.216Z" fill="#47286F"/>
<path d="M58.3622 213.912C58.3622 213.912 105.976 217.191 120.102 211.943C134.228 206.694 115.501 192.892 88.5711 195.523C61.641 198.154 47.191 210.634 47.191 210.634L58.3622 213.912Z" fill="black"/>
<path d="M61.9759 206.352C61.9759 206.352 69.1944 204.058 72.1492 201.259C75.104 198.46 79.7047 198.136 84.7978 198.965C89.8909 199.781 90.7074 201.596 90.7074 201.596C90.7074 201.596 91.8608 207.674 90.5389 209.644C89.217 211.614 74.1191 211.782 68.041 211.121C61.9629 210.46 58.0232 209.475 61.9629 206.365L61.9759 206.352Z" fill="#29496B"/>
<path d="M105.001 151.185C105.001 151.185 125.037 153.155 152.615 150.861C180.193 148.567 180.53 146.26 178.56 140.675C176.59 135.089 166.08 138.381 159.509 136.735C152.939 135.089 112.557 140.351 112.557 140.351L105.001 151.185Z" fill="#29496B"/>
<path d="M51.3485 110.765C51.3485 110.765 32.4015 116.778 28.1767 135.103C24.872 149.423 20.7508 176.275 24.3018 195.689C27.8527 215.102 52.4889 221.051 52.4889 221.051L57.6469 112.683L51.3615 110.765H51.3485Z" fill="#3D186C"/>
<path d="M158.869 81.2432H123.399V141.013H158.869V81.2432Z" fill="#369859"/>
<path d="M186.77 136.736L158.531 141V81.2432H186.77V136.736Z" fill="#52BC77"/>
<path d="M97.568 115.417L96.2331 119.045C96.2331 119.045 70.0288 122.493 61.2292 135.297C52.4296 148.114 47.2717 192.669 50.9004 195.352C54.5291 198.034 61.9938 198.034 65.2467 194.781C68.4995 191.529 75.1867 155.384 79.0227 150.226C82.8458 145.068 108.48 137.992 113.262 128.234C118.044 118.475 115.75 116.765 115.75 116.765L97.5809 115.43L97.568 115.417Z" fill="#0F2330"/>
<path d="M144.803 114.345C144.803 114.345 148.056 121.615 138.88 137.426C129.705 153.236 109.618 151.837 104.006 156.684C98.3946 161.531 97.8892 197.221 93.5477 200.539C89.2192 203.857 80.29 201.809 74.6785 200.539C69.067 199.269 85.1369 137.555 89.7246 130.674C94.3123 123.792 109.618 121.498 109.618 121.498L110.641 114.863L144.816 114.358L144.803 114.345Z" fill="#152D40"/>
<path d="M76.2425 111.035C76.2425 111.035 89.0984 117.32 94.5674 132.094C100.036 146.868 79.6249 214.634 68.687 219.286C57.7491 223.939 38.219 227.84 34.1108 189.816C30.0026 151.793 51.347 115.687 58.734 112.136" fill="#47286F"/>
<path d="M54.9748 106.504L42.715 105.636L31.1291 104.807C29.0167 104.651 27.4356 102.824 27.5912 100.724C27.7467 98.6119 29.574 97.0308 31.6734 97.1863L55.5191 98.884C57.6315 99.0395 59.2126 100.867 59.0571 102.966C58.9016 105.079 57.0743 106.66 54.9748 106.504Z" fill="#29496B"/>
<path d="M52.24 98.8441C52.24 98.8441 50.1406 96.291 48.5465 95.4616C46.9525 94.6322 45.5529 95.2024 45.5529 95.2024C45.5529 95.2024 43.894 94.1786 42.624 94.1786C41.354 94.1786 40.706 94.9432 40.706 94.9432C40.706 94.9432 39.3063 94.1138 38.3473 94.2434C37.3883 94.373 36.9477 95.008 36.9477 95.008C36.9477 95.008 35.7943 94.4378 34.4594 95.0728C33.1246 95.7079 30.9474 99.0903 31.5954 102.278C32.2304 105.466 35.0426 106.296 35.7424 106.037C36.4423 105.777 36.6367 105.272 36.6367 105.272C36.6367 105.272 38.0363 107.06 39.3841 106.477L40.7189 105.907C40.7189 105.907 42.313 107.06 43.3368 106.607L44.3606 106.166C44.3606 106.166 45.19 107.125 46.5248 106.931C47.8597 106.736 48.1189 106.296 48.4947 105.842C48.8835 105.402 46.4989 103.743 46.7063 102.849C47.8856 97.7425 52.253 98.8311 52.253 98.8311L52.24 98.8441Z" fill="#E1964F"/>
<path d="M103.501 49.1841C103.501 49.1841 94.066 48.3547 92.5368 62.3122C91.0075 76.2697 88.2083 75.8291 82.3376 79.7818C78.2164 82.5551 60.2803 83.4105 56.4572 89.1516C52.6341 94.8927 58.9455 103.303 72.7086 101.204C86.4717 99.1046 95.9192 96.8755 100.313 83.8641C104.706 70.8656 103.501 49.1841 103.501 49.1841Z" fill="black"/>
<path d="M98.5079 115.986L133.123 117.515C138.022 117.515 148.001 117.308 147.845 112.409C147.353 96.3522 147.197 50.1123 143.167 48.4276C137.776 46.1855 128.354 41.7015 128.354 41.7015L112.647 43.6455C112.647 43.6455 102.318 46.1855 99.9334 50.3715C99.3243 51.4472 98.7282 55.4258 98.1839 60.7651C97.7951 64.5752 97.4322 69.0722 97.1082 73.6859C96.551 81.656 96.0196 91.298 95.6697 98.2054C95.4235 103.156 93.5444 115.986 98.5079 115.986Z" fill="black"/>
<path d="M103.235 10.5643C103.235 10.5643 98.3493 23.0055 102.574 29.6797C106.799 36.3539 110.13 30.6776 110.13 30.6776L105.801 11.5622L103.248 10.5643H103.235Z" fill="black"/>
<path d="M126.554 32.5536L126.774 39.6685C126.774 39.6685 120.554 44.7746 116.484 44.5542C112.415 44.3339 112.998 43.2194 112.998 43.2194L112.92 38.2559C112.92 38.2559 122.692 32.6314 126.554 32.5536Z" fill="#C17638"/>
<path d="M105.176 30.065C105.617 37.6205 109.79 39.4478 113.341 40.5623C116.879 41.6639 123.41 38.4758 125.756 34.4972C125.756 34.4843 125.769 34.4713 125.782 34.4584C125.899 34.264 126.002 34.0566 126.106 33.8493C128.063 29.9873 127.661 25.6069 127.661 25.6069C127.661 25.6069 127.778 23.0928 127.648 20.125C127.519 17.1573 127.143 13.7619 126.184 11.9734C124.253 8.42249 118.447 7.56716 115.881 7.56716C113.315 7.56716 108.442 9.45926 106.433 12.1289C104.437 14.7986 105.021 27.849 105.163 30.078L105.176 30.065Z" fill="#E1964F"/>
<path d="M111.003 32.3814C111.003 32.3814 113.145 33.1203 114.651 32.5147C114.651 32.5147 114.651 32.4905 114.678 32.4783C114.803 32.2966 114.913 32.1149 115.01 31.9332C114.872 31.9696 112.993 32.4783 111.514 31.7515L111.003 32.3693V32.3814Z" fill="#EFF5E1"/>
<ellipse cx="112.495" cy="29.0963" rx="1.27299" ry="1.02661" fill="url(#paint0_linear_374_3350)"/>
<path d="M127.625 19.3365C127.625 19.3365 129.621 19.4532 130.684 21.5008C131.733 23.5614 130.956 28.2268 127.301 28.7193C123.634 29.2247 127.638 19.3365 127.638 19.3365H127.625Z" fill="#E1964F"/>
<path d="M105.225 13.0608C105.225 13.0608 107.675 13.8902 113.118 13.6181C118.561 13.3459 121.062 12.8405 121.062 12.8405C121.062 12.8405 120.557 15.9508 121.723 18.452C122.889 20.9532 124.172 20.3959 124.496 22.3399C124.82 24.2838 124.717 25.3336 125.715 25.2817C126.712 25.2299 126.635 20.8625 127.244 19.9164C127.853 18.9704 129.965 20.3312 130.16 20.7718C130.354 21.2124 133.102 12.996 127.801 10.1319C127.801 10.1319 126.168 6.07557 119.105 5.7775C112.055 5.46647 106.418 7.96768 105.212 13.0608H105.225Z" fill="#151A25"/>
<path d="M120.272 20.3097C120.272 20.3097 119.533 19.0138 117.537 19.0138C115.542 19.0138 115.347 20.232 114.725 20.1283C114.09 20.0117 114.349 17.977 116.397 17.5753C118.432 17.1735 120.324 18.1325 120.285 20.3097H120.272Z" fill="#151A25"/>
<path d="M105.67 20.2667C105.67 20.2667 106.305 18.9707 108.016 18.9707C109.727 18.9707 109.882 20.1889 110.426 20.0853C110.971 19.9686 110.737 17.934 109.001 17.5322C107.264 17.1305 105.644 18.0895 105.683 20.2667H105.67Z" fill="#151A25"/>
<path d="M116.231 22.4216C116.231 23.0566 116.529 23.5621 116.892 23.5621C117.254 23.5621 117.552 23.0566 117.552 22.4216C117.552 21.7866 117.254 21.2812 116.892 21.2812C116.529 21.2812 116.231 21.7866 116.231 22.4216Z" fill="#151A25"/>
<path d="M108.507 22.3668C108.507 23.0018 108.805 23.5073 109.168 23.5073C109.531 23.5073 109.829 23.0018 109.829 22.3668C109.829 21.7318 109.531 21.2264 109.168 21.2264C108.805 21.2264 108.507 21.7318 108.507 22.3668Z" fill="#151A25"/>
<path d="M126.704 22.6154L123.763 26.4255L124.177 26.7625L126.562 23.5096L126.704 22.6154Z" fill="#EFF5E1"/>
<path d="M101.816 13.076C101.868 20.0094 118.327 16.7954 121.619 16.0956C121.981 16.0178 122.189 15.966 122.189 15.966C122.189 15.966 123.005 28.7831 124.923 31.8156C125.908 33.3708 128.928 33.9799 131.779 32.7098C131.779 32.7098 131.779 32.7098 131.792 32.7098C134.5 31.4916 137.053 28.5757 137.52 23.1586C138.479 12.0522 134.332 2.64351 123.744 0.569971C113.143 -1.50357 101.751 2.04737 101.816 13.089V13.076Z" fill="#6FD191"/>
<path d="M121.618 16.0935C121.981 16.0157 122.189 15.9639 122.189 15.9639C122.189 15.9639 123.005 28.781 124.923 31.8135C125.908 33.3687 128.928 33.9778 131.779 32.7077C130.897 32.8632 128.487 33.0706 127.295 31.1526C125.804 28.781 123.666 15.1215 123.666 15.1215L121.67 14.3439L121.618 16.1065V16.0935Z" fill="black"/>
<path d="M123.715 15.3325C123.715 15.3325 123.676 14.2828 122.73 13.894C121.784 13.5052 112.57 11.1725 108.669 11.3928C104.781 11.6131 100.219 13.2849 99.4419 14.7752C98.6643 16.2785 108.436 17.7171 114.721 17.4449C120.994 17.1728 123.702 15.3325 123.702 15.3325H123.715Z" fill="black"/>
<path d="M130.445 20.4521C130.445 23.4588 131.806 25.8952 133.478 25.8952C135.15 25.8952 136.51 23.4588 136.51 20.4521C136.51 17.4455 135.15 15.0091 133.478 15.0091C131.806 15.0091 130.445 17.4455 130.445 20.4521Z" fill="black"/>
<path d="M97.31 73.7685C101.353 75.4921 109.285 78.1618 119.691 78.1618C135.061 78.1618 141.904 71.993 141.904 71.993L141.982 57.5949C141.982 57.5949 127.648 67.2757 114.183 66.1482C104.93 65.3707 100.343 62.5325 98.3727 60.8348C97.9839 64.6449 97.621 69.1419 97.297 73.7555L97.31 73.7685Z" fill="#6FD191"/>
<path d="M35.8417 96.4832C35.8417 96.4832 34.3902 100.656 35.8028 102.82C37.2154 104.972 35.6084 104.376 34.792 103.157C33.9755 101.952 33.9755 99.4769 35.8417 96.4832Z" fill="#C16A2F"/>
<path d="M39.7036 96.714C39.7036 96.714 38.2521 100.887 39.6647 103.051C41.0773 105.203 39.4703 104.606 38.6538 103.388C37.8374 102.183 37.8374 99.7077 39.7036 96.714Z" fill="#C16A2F"/>
<path d="M43.8667 97.5827C43.8667 97.5827 42.4152 101.756 43.8278 103.92C45.2404 106.071 43.6334 105.475 42.8169 104.257C42.0005 103.052 42.0005 100.576 43.8667 97.5827Z" fill="#C16A2F"/>
<path d="M128.573 41.7701L126.85 37.8045C126.85 37.8045 119.139 42.8846 116.223 43.1179L115.704 44.4657L115.108 42.8976C115.108 42.8976 113.307 42.444 112.866 41.7701C112.426 41.0962 111.739 44.8415 111.739 44.8415C111.739 44.8415 112.413 46.4097 116.897 46.4097C121.381 46.4097 128.56 41.7701 128.56 41.7701H128.573Z" fill="#47286F"/>
<path d="M115.996 46.1109C115.996 46.1109 110.384 96.8866 110.838 107.319H109.27C109.27 107.319 111.292 57.632 115.102 46.072L115.996 46.1109Z" fill="#B2BFE1"/>
<path d="M97.8822 100.955C97.8822 100.955 97.7526 98.9199 101.835 97.3906C105.917 95.8614 124.916 97.7794 129.763 95.4726C134.61 93.1788 135.115 94.2674 136.398 94.0082C137.681 93.749 136.787 78.8973 137.552 71.6269C138.316 64.3566 140.545 50.5935 142.709 48.4163C142.709 48.4163 144.77 45.7595 150.744 53.639C155.527 59.9503 153.038 106.035 142.904 110.441C129.231 116.376 107.33 117.128 102.548 115.793C97.7655 114.458 97.1953 109.871 97.1953 109.871L97.8951 100.942L97.8822 100.955Z" fill="black"/>
<path d="M108.951 107.101C108.951 111.066 105.828 114.268 101.966 114.268C98.104 114.268 94.9807 111.054 94.9807 107.101C94.9807 103.148 98.104 99.9342 101.966 99.9342C105.828 99.9342 108.951 103.148 108.951 107.101Z" fill="#102533"/>
<path d="M42.4211 92.7871C42.4211 92.7871 45.1038 86.6053 50.9615 85.7111C56.8322 84.8169 64.6728 87.1108 69.3901 92.8519C74.1074 98.593 87.7539 100.368 91.0586 102.792C94.3762 105.215 93.2228 111.591 89.0239 112.991C84.8121 114.391 71.5544 111.332 66.0724 114.145C60.5905 116.944 50.7153 115.609 46.1146 113.704C41.5269 111.786 37.1855 101.47 42.4211 92.8V92.7871Z" fill="#47286F"/>
<path d="M105.327 112.593L94.5839 111.219L84.4235 109.923C82.5703 109.69 81.2873 107.85 81.5465 105.828C81.8057 103.806 83.5163 102.355 85.3566 102.588L106.26 105.245C108.114 105.478 109.397 107.318 109.138 109.34C108.878 111.362 107.168 112.813 105.327 112.58V112.593Z" fill="#29496B"/>
<path d="M106.411 105.218C106.411 105.218 104.312 102.665 102.718 101.835C101.124 101.006 99.7242 101.576 99.7242 101.576C99.7242 101.576 98.0653 100.552 96.7953 100.552C95.5253 100.552 94.8773 101.317 94.8773 101.317C94.8773 101.317 93.4776 100.488 92.5186 100.617C91.5596 100.747 91.119 101.382 91.119 101.382C91.119 101.382 89.9656 100.812 88.6307 101.447C87.2959 102.082 85.1187 105.464 85.7667 108.652C86.4017 111.84 89.2139 112.67 89.9137 112.41C90.6136 112.151 90.8079 111.646 90.8079 111.646C90.8079 111.646 92.2076 113.434 93.5554 112.851L94.8902 112.281C94.8902 112.281 96.4843 113.434 97.5081 112.981L98.5319 112.54C98.5319 112.54 99.3613 113.499 100.696 113.305C102.031 113.11 102.29 112.67 102.666 112.216C103.055 111.775 100.67 110.117 100.878 109.222C102.057 104.116 106.424 105.205 106.424 105.205L106.411 105.218Z" fill="#E1964F"/>
<path d="M62.2974 102.307C63.6077 96.7556 60.1693 91.1926 54.6174 89.8822C49.0655 88.5719 43.5025 92.0103 42.1921 97.5622C40.8818 103.114 44.3202 108.677 49.8721 109.987C55.424 111.298 60.987 107.859 62.2974 102.307Z" fill="white"/>
<path d="M36.7821 266.047C53.9241 266.047 67.8204 251.785 67.8204 234.192C67.8204 216.599 53.9241 202.337 36.7821 202.337C19.6402 202.337 5.74384 216.599 5.74384 234.192C5.74384 251.785 19.6402 266.047 36.7821 266.047Z" fill="black"/>
<path d="M43.6075 254.06C52.1392 254.06 59.0554 245.537 59.0554 235.022C59.0554 224.508 52.1392 215.985 43.6075 215.985C35.0759 215.985 28.1597 224.508 28.1597 235.022C28.1597 245.537 35.0759 254.06 43.6075 254.06Z" fill="#8EC7CA"/>
<path d="M49.6728 205.436C49.6728 205.436 36.4281 241.568 40.0179 245.715C43.6077 249.862 48.014 249.849 50.7744 240.479C53.5348 231.096 58.2262 210.413 58.2262 210.413L49.6728 205.449V205.436Z" fill="black"/>
<path d="M2.71669 222.114C2.71669 222.114 6.48793 218.343 12.566 218.836C18.6441 219.328 18.4756 223.436 23.4002 223.436C28.3249 223.436 29.4783 215.233 43.7598 213.25C58.0413 211.28 60.9961 219.328 67.5666 220.805C74.1371 222.283 68.8755 211.125 53.9331 202.584C38.9907 194.044 22.8948 197.659 11.5681 205.37C0.2414 213.081 -2.88187 223.268 2.70373 222.114H2.71669Z" fill="#3D186C"/>
<path d="M57.2274 125.242C57.2274 125.242 68.7226 122.78 71.8458 123.933C74.9691 125.087 66.2603 127.873 72.6623 128.534C79.0644 129.195 89.7431 131.165 90.5595 132.797C91.376 134.443 69.7075 131.644 67.4137 131.152C65.1198 130.659 67.4137 126.395 67.4137 126.395H57.2274C56.5665 126.395 57.2274 125.242 57.2274 125.242Z" fill="#FEF6D4"/>
<path d="M71.9174 206.266C71.9174 206.266 89.3999 163.654 88.1688 150.85C86.9376 138.046 85.7064 149.373 80.0431 170.549C74.3797 191.725 66.5003 210.205 71.9174 206.266Z" fill="#3D186C"/>
<path d="M90.2712 103.135C90.2712 103.135 88.8198 107.308 90.2324 109.472C91.645 111.623 90.038 111.027 89.2215 109.809C88.4051 108.604 88.4051 106.128 90.2712 103.135Z" fill="#C16A2F"/>
<path d="M94.1292 103.366C94.1292 103.366 92.6777 107.539 94.0903 109.703C95.5029 111.854 93.8959 111.258 93.0794 110.04C92.263 108.835 92.263 106.359 94.1292 103.366Z" fill="#C16A2F"/>
<path d="M98.2962 104.234C98.2962 104.234 96.8447 108.407 98.2573 110.571C99.6699 112.736 98.0629 112.127 97.2465 110.908C96.43 109.703 96.43 107.228 98.2962 104.234Z" fill="#C16A2F"/>
<path d="M182.497 166.286C182.497 166.286 155.074 172.688 153.766 174.982C152.457 177.275 187.59 169.888 182.497 166.286Z" fill="#3D186C"/>
<path d="M184.301 173.669C184.301 173.669 156.878 180.071 155.569 182.365C154.26 184.659 189.394 177.272 184.301 173.669Z" fill="#3D186C"/>
<path d="M185.295 180.735C185.295 180.735 157.872 187.137 156.563 189.431C155.254 191.725 190.388 184.338 185.295 180.735Z" fill="#3D186C"/>
<path d="M176.751 138.215L171.723 138.966L171.658 81.3997H176.751V138.215Z" fill="white"/>
</g>
<defs>
<linearGradient id="paint0_linear_374_3350" x1="111.406" y1="29.1426" x2="113.261" y2="29.2613" gradientUnits="userSpaceOnUse">
<stop stop-color="#C17638"/>
<stop offset="1" stop-color="#E1964F"/>
</linearGradient>
<clipPath id="clip0_374_3350">
<rect width="214.646" height="270.371" fill="white" transform="scale(1.00165)"/>
</clipPath>
</defs>
</svg>
