<svg width="359" height="211" viewBox="0 0 359 211" fill="none" xmlns="http://www.w3.org/2000/svg">
<g clip-path="url(#clip0_318_3324)">
<path d="M172.06 210.867H100.843C92.2359 210.826 84.9643 203.488 85.0001 194.886L85.7575 15.5208C85.7933 6.90848 92.804 -0.0407581 101.416 0.00017995L172.961 0.332802C181.568 0.37374 188.512 7.37927 188.471 15.9814L187.714 195.346C187.678 203.954 180.667 210.903 172.055 210.867H172.06Z" fill="#311A50"/>
<path d="M172.852 7.14768L158.979 7.08628C157.122 7.07604 155.602 8.64704 155.597 10.5916L155.587 13.1093C155.581 15.0539 154.062 16.6249 152.204 16.6146L125.164 16.4918C123.307 16.4816 121.802 14.9003 121.813 12.9558L121.823 10.4381C121.833 8.49352 120.329 6.90717 118.471 6.90205L113.594 6.88159L101.451 6.8253C95.4229 6.79971 90.5104 11.6662 90.4848 17.6944L89.7428 192.771C89.7172 198.799 94.5786 203.707 100.607 203.732L172.008 204.06C178.036 204.085 182.949 199.219 182.974 193.191L183.716 18.114C183.742 12.0858 178.88 7.1835 172.852 7.1528V7.14768Z" fill="#F5F5F5"/>
<path d="M142.545 170.966C142.463 173.079 142.386 175.065 142.32 176.712H152.575L151.321 170.413L142.545 170.971V170.966Z" fill="#DEDEDE"/>
<path d="M100.864 173.602L100.951 176.708H141.3C141.367 174.963 141.444 173.024 141.52 171.028L100.864 173.602Z" fill="#DEDEDE"/>
<path d="M151.839 170.378L153.103 176.713H172.012L171.786 169.119L151.839 170.378Z" fill="#DEDEDE"/>
<path d="M143.57 81.8547L147.142 61.1247L137.777 60.4287V81.8547H143.57Z" fill="#DEDEDE"/>
<path d="M100.022 162.093L89.8588 166.074L89.8281 173.274L100.324 172.609L100.022 162.093Z" fill="#DEDEDE"/>
<path d="M99.9711 160.477L99.4133 141.169H99.4082V134.358L89.9822 135.356L89.8594 164.427L99.966 160.467L99.9711 160.477Z" fill="#DEDEDE"/>
<path d="M99.4126 119.159L90.0582 117.926L89.9917 133.815L99.4126 132.817V119.159Z" fill="#DEDEDE"/>
<path d="M169.096 134.645L168.702 140.181L157.659 141.369L158.514 145.749L171.051 144.802L170.862 138.523L171.865 134.368L169.096 134.645Z" fill="#DEDEDE"/>
<path d="M149.196 146.448L158.003 145.788L156.084 135.958L148.398 136.736L149.196 146.448Z" fill="#DEDEDE"/>
<path d="M149.285 147.473L149.96 155.666L151.152 166.903L151.644 169.365L171.76 168.096L171.089 145.825L149.285 147.473Z" fill="#DEDEDE"/>
<path d="M114.659 108.781L115.432 110.106L99.9215 119.153V140.615L116.292 139.458L147.845 136.276L146.688 122.208L116.542 118.268L116.742 116.748L146.56 120.642L144.605 96.8317L115.094 99.6718L114.997 98.6535L144.524 95.8134L143.505 83.3887H115.115L90.1834 87.9277L90.0605 116.38L99.5019 117.623L114.659 108.786V108.781ZM101.508 138.568C101.508 138.568 101.626 120.873 101.508 120.207L114.168 113.473L115.811 137.662L101.513 138.568H101.508Z" fill="#DEDEDE"/>
<path d="M168.063 134.752L156.596 135.908L157.466 140.36L167.746 139.255L168.063 134.752Z" fill="#DEDEDE"/>
<path d="M142.691 167.175C142.656 168.106 142.62 169.027 142.584 169.938L151.12 169.396L150.679 167.195L142.686 167.175H142.691Z" fill="#DEDEDE"/>
<path d="M124.31 81.854L125.814 75.0378H137.272V60.3922L101.441 57.7363V71.4864L90.2492 74.0194L90.1929 86.3623L114.981 81.854H124.31Z" fill="#DEDEDE"/>
<path d="M148.214 41.1048L147.907 39.8511L161.591 34.4371L152.692 16.5727C152.533 16.5983 152.369 16.6136 152.201 16.6136L137.079 16.542L137.488 41.5449L148.214 41.1048Z" fill="#DEDEDE"/>
<path d="M168.959 31.5211L168.944 7.12716L158.986 7.0811C157.128 7.07087 155.608 8.64187 155.603 10.5864L155.593 13.1041C155.593 14.3067 155.01 15.3608 154.129 15.9903L163.033 33.87L168.959 31.5263V31.5211Z" fill="#DEDEDE"/>
<path d="M117.517 32.5704L116.365 6.88684L113.592 6.87149L102.769 6.82031L98.1582 29.7917L117.517 32.5704ZM115.045 9.48641L115.414 30.4058L101.029 28.3026L104.181 9.49152H115.045V9.48641Z" fill="#DEDEDE"/>
<path d="M118.044 32.6473V32.8673C118.07 34.8733 118.11 38.481 118.141 42.3394L136.988 41.5718L136.579 16.5433L125.172 16.4921C123.315 16.4819 121.81 14.9006 121.82 12.9561L121.831 10.4384C121.841 8.49381 120.336 6.91258 118.479 6.90234H116.882L118.039 32.6524H118.044V32.6473Z" fill="#DEDEDE"/>
<path d="M96.635 29.5714L101.2 6.8252C95.284 6.93266 90.5096 11.7378 90.484 17.684L90.438 29.0239L90.484 28.6912L96.635 29.5765V29.5714Z" fill="#DEDEDE"/>
<path d="M99.907 57.6244L90.3224 56.9131L90.2559 72.444L99.907 70.2589V57.6244Z" fill="#DEDEDE"/>
<path d="M96.5332 30.0733L90.4385 29.1982L90.3311 54.3496L91.6411 54.4468L96.5332 30.0733Z" fill="#DEDEDE"/>
<path d="M115.892 160.184L116.051 139.991L99.9263 141.132L100.494 160.911L115.892 160.184Z" fill="#DEDEDE"/>
<path d="M118.854 155.523L141.692 166.464C141.963 159.315 142.209 152.632 142.183 152.202L142.68 152.177L142.92 151.696C143.135 151.805 143.186 153.483 143.074 156.731C142.976 159.448 142.843 163.066 142.705 166.689H150.601L149.434 155.718L147.879 136.789L118.04 139.798L118.849 155.523H118.854Z" fill="#DEDEDE"/>
<path d="M174.837 122.016L174.581 119.35L147.208 122.2L148.36 136.226L171.991 133.842L174.837 122.016Z" fill="#DEDEDE"/>
<path d="M137.27 76.5732H127.046L125.879 81.8543H137.27V76.5732Z" fill="#DEDEDE"/>
<path d="M170.611 78.3536L144.999 76.583L143.956 82.6316L145.035 95.7625L172.044 93.1629L170.611 78.3485V78.3536ZM145.946 82.6214L147.323 78.8039L169.567 80.2111L170.857 91.1365L146.704 94.0022L145.951 82.6265L145.946 82.6214Z" fill="#DEDEDE"/>
<path d="M173.265 105.799L172.144 94.1875L145.12 96.782L146.133 109.145L173.265 105.799Z" fill="#DEDEDE"/>
<path d="M100.357 173.638L89.8717 174.298L89.8257 173.617L89.8154 176.713H100.444L100.357 173.638Z" fill="#DEDEDE"/>
<path d="M183.527 25.7538L183.681 26.1427L183.717 18.1035C183.742 12.0753 178.881 7.17301 172.853 7.1423L169.45 7.12695L169.465 31.3162L183.527 25.7538Z" fill="#DEDEDE"/>
<path d="M141.674 167.02L118.365 155.854L117.541 139.853L116.564 139.95L116.4 160.67L100.511 161.422L100.527 161.882V161.893L100.834 172.577L141.562 170.003C141.598 169.011 141.639 168.013 141.674 167.02ZM101.509 162.742L123.749 161.181L138.215 167.895L101.509 169.881V162.742Z" fill="#DEDEDE"/>
<path d="M176.903 52.625L177.855 46.9704C169.493 43.987 168.915 35.2723 168.94 32.6318L163.485 34.7913L171.704 51.2843L176.903 52.6301V52.625Z" fill="#DEDEDE"/>
<path d="M147.078 120.668L158.443 119.486L156.202 109.446L146.259 110.674L147.078 120.668Z" fill="#DEDEDE"/>
<path d="M170.651 61.2932H149.425L147.665 61.1602L145.265 75.0638L170.462 76.8036L169.879 70.7601L172.355 61.8356L170.651 61.2932Z" fill="#DEDEDE"/>
<path d="M170.133 58.7345L170.399 52.0974L162.058 35.3486L149.121 40.4659L153.568 58.7294H170.133V58.7345ZM161.551 37.3904L169.196 51.9337L168.091 56.4676L155.011 55.9763L151.741 42.2211L161.551 37.3955V37.3904Z" fill="#DEDEDE"/>
<path d="M173.433 138.789L173.822 151.823L183.022 151.306L183.048 151.818L173.837 152.335L174.308 167.932L183.002 167.379L183.068 168.403L174.338 168.956L174.569 176.713H183.043L183.227 133.222L174.564 134.097L173.433 138.789Z" fill="#DEDEDE"/>
<path d="M117.529 33.087L98.0528 30.293L93.1812 54.559L117.611 56.3705C117.708 52.6349 117.621 41.1723 117.524 33.0921L117.529 33.087Z" fill="#DEDEDE"/>
<path d="M149.567 58.7347H152.509L148.339 41.6123L137.5 42.0575L137.761 57.8647L149.567 58.7347Z" fill="#DEDEDE"/>
<path d="M89.7614 189.169L89.7461 192.761C89.7461 192.874 89.7563 192.981 89.7614 193.089V189.169Z" fill="#DEDEDE"/>
<path d="M118.114 56.4055L137.248 57.823L136.987 42.0771L118.135 42.8499C118.176 48.1769 118.191 53.8571 118.109 56.4106L118.114 56.4055Z" fill="#DEDEDE"/>
<path d="M173.413 107.328L156.715 109.385L158.957 119.43L174.431 117.824L173.413 107.328Z" fill="#DEDEDE"/>
<path d="M177.944 46.4533L179.014 40.1078L183.624 40.4661L183.681 26.7979L169.46 32.4268C169.168 42.0473 175.212 45.4298 177.944 46.4584V46.4533Z" fill="#DEDEDE"/>
<path d="M172.464 70.9897L173.047 76.982L183.461 77.7036L183.512 65.3556L174.792 62.6025L172.464 70.9897Z" fill="#DEDEDE"/>
<path d="M177.429 122.193L174.691 133.568L183.232 132.708L183.283 120.78C180.663 120.089 178.375 119.526 177.142 119.291L177.424 122.198L177.429 122.193Z" fill="#DEDEDE"/>
<path d="M171.658 58.9298L183.53 62.6807L183.556 55.9311L171.899 52.917L171.658 58.9298Z" fill="#DEDEDE"/>
<path d="M176.994 117.726C177.951 117.869 179.762 118.253 183.288 119.184L183.401 93.1016L174.691 93.9408L176.994 117.726Z" fill="#DEDEDE"/>
<path d="M174.592 92.9229L183.404 92.0735L183.46 79.2445L173.2 78.5332L174.592 92.9229Z" fill="#DEDEDE"/>
<path d="M178.924 46.7809C180.592 47.2875 182.148 47.6816 183.586 47.9681L183.611 41.4948L179.861 41.2031L178.919 46.7809H178.924Z" fill="#DEDEDE"/>
<path d="M177.894 52.8805L183.558 54.344L183.584 48.4899C182.12 48.1982 180.539 47.7991 178.835 47.2822L177.894 52.8754V52.8805Z" fill="#DEDEDE"/>
<path d="M100.355 173.637L100.442 176.713H100.954L100.867 173.607L141.523 171.033C141.447 173.029 141.37 174.968 141.303 176.713H142.327C142.393 175.065 142.47 173.08 142.552 170.966L151.328 170.409L152.582 176.708H153.104L151.84 170.373L171.782 169.109L172.012 176.703H174.571L174.335 168.945L183.065 168.392L182.999 167.369L174.305 167.916L173.839 152.319L183.05 151.802L183.019 151.29L173.824 151.807L173.435 138.774L174.566 134.076L183.234 133.201V132.684L174.694 133.544L177.431 122.168L177.15 119.261C178.378 119.497 180.665 120.06 183.291 120.751V119.154C179.77 118.228 177.958 117.844 177.001 117.696L174.699 93.9106L183.408 93.0714V92.0428L174.601 92.8923L173.21 78.5025L183.47 79.2138V77.6735L173.061 76.952L172.483 70.9546L174.811 62.5725L183.531 65.3256L183.541 62.6441L171.674 58.8983L171.915 52.8855L183.572 55.8996V54.3183L177.912 52.8548L178.854 47.2616C180.553 47.7785 182.134 48.1776 183.603 48.4693V47.9422C182.165 47.6557 180.609 47.2616 178.941 46.755L179.882 41.1772L183.633 41.4689V40.4403L179.028 40.0821L177.958 46.4275C175.231 45.399 169.187 42.0164 169.474 32.396L183.695 26.767V26.1171L183.541 25.7282L169.479 31.2907L169.464 7.10138H168.952L168.967 31.4954L163.042 33.8391L154.137 15.9594C153.718 16.2613 153.237 16.4609 152.71 16.5376L161.609 34.402L147.925 39.816L148.232 41.0698L137.506 41.5098L137.097 16.5069H136.585L136.995 41.5354L118.148 42.303C118.117 38.4446 118.076 34.8369 118.051 32.831V32.6109H118.04L116.884 6.85575H116.372L117.523 32.5393L98.1649 29.7606L102.776 6.78923H101.455C101.373 6.78411 101.292 6.78923 101.205 6.79435L96.6399 29.5406L90.489 28.6553L90.4429 28.9879V29.1619L96.5427 30.0369L91.6506 54.4053L90.3355 54.3081L90.3252 56.8719L99.9099 57.5832V70.2228L90.2587 72.4079V73.984L101.445 71.4509V57.7009L137.276 60.3567V75.0023H125.819L124.314 81.8185H114.985L90.2024 86.3268V87.8876L115.129 83.3486H143.519L144.538 95.7733L115.011 98.6133L115.108 99.6317L144.619 96.7916L146.574 120.602L116.756 116.708L116.556 118.228L146.702 122.168L147.859 136.235L116.306 139.418L99.9355 140.575V119.113L115.446 110.066L114.673 108.74L99.5158 117.578L90.0745 116.334V117.88L99.4186 119.113V132.771L90.0029 133.769V135.314L99.4186 134.316V141.128H99.4237L99.9815 160.435V160.425L89.8698 164.385V166.038L100.028 162.057L100.329 172.573L89.834 173.238V173.581L89.8749 174.262L100.36 173.597L100.355 173.637ZM142.588 169.938C142.624 169.027 142.659 168.101 142.695 167.174L150.688 167.195L151.129 169.395L142.593 169.938H142.588ZM151.64 169.365L151.149 166.903L149.957 155.666L149.286 147.473L171.091 145.83L171.761 168.095L151.645 169.37L151.64 169.365ZM156.599 135.908L168.067 134.751L167.744 139.255L157.464 140.365L156.594 135.913L156.599 135.908ZM156.087 135.959L158.006 145.784L149.199 146.449L148.401 136.732L156.087 135.954V135.959ZM171.055 144.802L158.518 145.748L157.663 141.368L168.706 140.176L169.1 134.644L171.864 134.363L170.866 138.523L171.055 144.802ZM156.205 109.447L158.446 119.482L147.081 120.664L146.262 110.67L156.21 109.441L156.205 109.447ZM158.958 119.43L156.717 109.385L173.414 107.328L174.433 117.824L158.958 119.435V119.43ZM170.462 76.8036L145.264 75.0586L147.664 61.1601L149.424 61.2932H170.651L172.355 61.8356L169.873 70.7652L170.456 76.8087L170.462 76.8036ZM168.942 32.6263C168.916 35.2668 169.494 43.9815 177.856 46.9648L176.904 52.6194L171.705 51.2736L163.487 34.7806L168.942 32.6212V32.6263ZM162.054 35.3538L170.395 52.1026L170.129 58.7397H153.564L149.117 40.4762L162.054 35.3589V35.3538ZM148.34 41.6122L152.51 58.7345H149.563L137.762 57.8595L137.501 42.0523L148.34 41.6071V41.6122ZM136.99 42.0779L137.251 57.8237L118.117 56.4062C118.199 53.8527 118.178 48.1725 118.143 42.8454L136.995 42.0727L136.99 42.0779ZM98.0574 30.2928L117.534 33.0868C117.631 41.1721 117.718 52.6296 117.621 56.3652L93.1909 54.5537L98.0625 30.2877L98.0574 30.2928ZM147.147 61.1243L143.57 81.8543H137.783V60.4283L147.147 61.1243ZM127.047 76.5733H137.271V81.8543H125.88L127.047 76.5733ZM143.959 82.6321L145.003 76.5835L170.615 78.3541L172.048 93.1686L145.039 95.7682L143.959 82.6373V82.6321ZM172.145 94.1869L173.271 105.803L146.139 109.145L145.126 96.7865L172.15 94.1869H172.145ZM147.209 122.199L174.581 119.354L174.837 122.015L171.992 133.841L148.355 136.225L147.204 122.199H147.209ZM149.445 155.712L150.612 166.683H142.716C142.854 163.065 142.987 159.447 143.084 156.725C143.197 153.477 143.146 151.799 142.931 151.69L142.69 152.171L142.194 152.196C142.214 152.621 141.974 159.309 141.703 166.458L118.864 155.517L118.056 139.792L147.894 136.783L149.45 155.712H149.445ZM116.055 139.992L115.896 160.184L100.503 160.916L99.9355 141.138L116.06 139.997L116.055 139.992ZM100.529 161.893V161.883L100.514 161.423L116.403 160.67L116.567 139.951L117.544 139.853L118.368 155.855L141.677 167.021C141.641 168.014 141.6 169.011 141.564 170.004L100.836 172.578L100.529 161.893Z" fill="white"/>
<path d="M123.751 161.182L101.512 162.742V169.881L138.218 167.89L123.751 161.182Z" fill="#949292"/>
<path d="M169.56 80.211L147.315 78.8037L145.944 82.6212L146.696 93.9969L170.85 91.1312L169.56 80.211Z" fill="#949292"/>
<path d="M100.614 203.722L172.015 204.05C178.043 204.075 182.956 199.209 182.981 193.18L183.053 176.708H89.8163L89.7651 189.163V193.083C89.9135 198.958 94.6982 203.691 100.614 203.717V203.722Z" fill="#949292"/>
<path d="M115.417 30.4057L115.044 9.48633H104.18L101.027 28.3025L115.417 30.4057Z" fill="#949292"/>
<path d="M168.094 56.4678L169.199 51.9339L161.554 37.3906L151.739 42.2213L155.014 55.9765L168.094 56.4678Z" fill="#949292"/>
<path d="M101.51 120.214C101.628 120.874 101.51 138.575 101.51 138.575L115.808 137.669L114.165 113.479L101.505 120.214H101.51Z" fill="#949292"/>
<path d="M149.197 134.583L148.445 123.617L172.967 120.465V122.358L170.004 132.444L149.197 134.583Z" fill="#EBEBEB"/>
<path d="M131.061 43.633C131.061 45.2808 129.726 46.6215 128.073 46.6215C126.42 46.6215 125.084 45.2859 125.084 43.633C125.084 41.9801 126.42 40.6445 128.073 40.6445C129.726 40.6445 131.061 41.9801 131.061 43.633Z" fill="#E8505B"/>
<g opacity="0.6">
<path d="M131.062 43.5058C131.134 45.1535 129.854 46.5454 128.206 46.6171C126.559 46.6887 125.167 45.4094 125.095 43.7616C125.024 42.1139 126.303 40.722 127.951 40.6503C129.598 40.5787 130.99 41.858 131.062 43.5058Z" fill="#5CFFBB"/>
</g>
<path d="M128.076 45.5169C129.173 45.5169 130.062 44.628 130.062 43.5314C130.062 42.4348 129.173 41.5459 128.076 41.5459C126.98 41.5459 126.091 42.4348 126.091 43.5314C126.091 44.628 126.98 45.5169 128.076 45.5169Z" fill="#059659"/>
<path d="M174.242 162.942C174.242 163.648 173.669 164.216 172.968 164.216C172.266 164.216 171.693 163.643 171.693 162.942C171.693 162.241 172.266 161.668 172.968 161.668C173.669 161.668 174.242 162.241 174.242 162.942Z" fill="#059659"/>
<path d="M172.203 162.527L171.896 155.373L150.337 156.422C149.774 156.453 149.211 156.33 148.709 156.074L118.134 140.63C117.428 140.272 116.962 139.561 116.921 138.768L112.761 58.0479C112.74 57.659 112.889 57.2855 113.165 57.0143C113.441 56.743 113.825 56.6049 114.209 56.6305L127.314 57.6027V43.2744H128.849V57.7972C128.849 58.1708 128.691 58.5341 128.419 58.7848C128.143 59.0407 127.775 59.1686 127.401 59.143L114.306 58.1708L118.456 138.681C118.466 138.921 118.61 139.141 118.83 139.254L149.405 154.698C149.671 154.831 149.968 154.897 150.27 154.882L172.008 153.823C172.377 153.807 172.72 153.93 172.991 154.176C173.262 154.421 173.416 154.754 173.431 155.122L173.748 162.455L172.213 162.522L172.203 162.527Z" fill="#00BD6E"/>
<path d="M115.258 96.9648C117.394 96.9648 119.126 95.2328 119.126 93.0962C119.126 90.9596 117.394 89.2275 115.258 89.2275C113.121 89.2275 111.389 90.9596 111.389 93.0962C111.389 95.2328 113.121 96.9648 115.258 96.9648Z" fill="#00BD6E"/>
<path d="M115.255 95.7813C116.739 95.7813 117.942 94.5785 117.942 93.0948C117.942 91.611 116.739 90.4082 115.255 90.4082C113.772 90.4082 112.569 91.611 112.569 93.0948C112.569 94.5785 113.772 95.7813 115.255 95.7813Z" fill="#FAFAFA"/>
<path d="M115.255 95.9749C113.669 95.9749 112.374 94.6854 112.374 93.0939C112.374 91.5024 113.664 90.2129 115.255 90.2129C116.847 90.2129 118.136 91.5024 118.136 93.0939C118.136 94.6854 116.847 95.9749 115.255 95.9749ZM115.255 90.6018C113.879 90.6018 112.758 91.7225 112.758 93.099C112.758 94.4756 113.879 95.5963 115.255 95.5963C116.632 95.5963 117.752 94.4756 117.752 93.099C117.752 91.7225 116.632 90.6018 115.255 90.6018Z" fill="#059659"/>
<path d="M131.964 33.5979C131.964 31.2388 129.835 29.3812 127.394 29.8367C125.859 30.1232 124.636 31.377 124.364 32.9173C124.196 33.8793 124.395 34.7851 124.835 35.5322L124.845 35.5475C124.994 35.7932 125.178 35.9723 125.362 36.2332L127.588 39.1808C127.865 39.5492 128.417 39.5492 128.694 39.1808L130.879 36.2844C130.879 36.2844 131.288 35.7983 131.436 35.5475L131.447 35.5373C131.779 34.9693 131.974 34.3092 131.974 33.603L131.964 33.5979ZM128.131 35.2661C127.199 35.2661 126.447 34.5138 126.447 33.5825C126.447 32.6512 127.199 31.8989 128.131 31.8989C129.062 31.8989 129.814 32.6512 129.814 33.5825C129.814 34.5138 129.062 35.2661 128.131 35.2661Z" fill="#12C278"/>
<path d="M103.838 189.229C104.38 186.927 102.952 184.621 100.649 184.08C98.3463 183.538 96.0407 184.966 95.4993 187.269C94.9579 189.572 96.3858 191.877 98.6885 192.419C100.991 192.96 103.297 191.532 103.838 189.229Z" fill="#6632AA"/>
<path d="M97.94 189.04C97.94 189.04 98.3391 188.994 99.0402 188.974C99.7412 188.953 100.739 188.938 101.937 188.928L101.85 189.117C101.512 188.728 101.143 188.298 100.754 187.853L100.688 187.771L100.754 187.689C101.097 187.259 101.461 186.809 101.834 186.338L101.937 186.553C101.783 186.553 101.614 186.553 101.45 186.553C100.186 186.553 98.9941 186.543 97.94 186.538L98.0577 186.42C98.0474 187.72 98.0321 188.815 98.0116 189.583C97.9911 190.35 97.9655 190.795 97.94 190.795C97.9144 190.795 97.8888 190.35 97.8683 189.583C97.8479 188.815 97.8325 187.72 97.8223 186.42V186.302H97.94C98.9941 186.302 100.186 186.292 101.45 186.287C101.619 186.287 101.783 186.287 101.937 186.287H102.213L102.039 186.502C101.66 186.968 101.297 187.418 100.949 187.843V187.679C101.328 188.129 101.691 188.564 102.024 188.958L102.187 189.153H101.937C100.739 189.137 99.7361 189.122 99.0402 189.102C98.3391 189.081 97.94 189.061 97.94 189.035V189.04Z" fill="#FAFAFA"/>
<path d="M168.974 180.95H156.023C154.656 180.95 153.546 182.061 153.546 183.427V193.621C153.546 194.987 154.656 196.097 156.023 196.097H156.35V198.528L159.17 196.097H168.974C170.341 196.097 171.451 194.987 171.451 193.621V183.427C171.451 182.061 170.341 180.95 168.974 180.95Z" fill="#6632AA"/>
<path d="M157.256 185.627V190.857C157.256 190.97 157.348 191.062 157.461 191.062H168.422C168.535 191.062 168.627 190.97 168.627 190.857L168.601 188.943C168.601 188.902 168.586 188.856 168.56 188.826L166.989 186.722C166.954 186.671 166.892 186.641 166.826 186.641L165.014 186.625C164.902 186.625 164.815 186.533 164.815 186.42V185.632C164.815 185.52 164.722 185.428 164.61 185.428H157.461C157.348 185.428 157.256 185.52 157.256 185.632V185.627Z" fill="#FAFAFA"/>
<path d="M165.321 187.08V188.759C165.321 188.825 165.372 188.876 165.439 188.876L167.859 188.835C167.951 188.835 168.008 188.728 167.951 188.651L166.82 186.983C166.8 186.952 166.759 186.932 166.718 186.932L165.428 186.967C165.367 186.967 165.316 187.019 165.316 187.085L165.321 187.08Z" fill="#6632AA"/>
<path d="M168.842 191.221H157.036V191.584H168.842V191.221Z" fill="#FAFAFA"/>
<path d="M160.942 191.359C160.942 192.004 160.42 192.526 159.776 192.526C159.131 192.526 158.609 192.004 158.609 191.359C158.609 190.714 159.131 190.192 159.776 190.192C160.42 190.192 160.942 190.714 160.942 191.359Z" fill="#6632AA"/>
<path d="M160.465 191.359C160.465 191.737 160.158 192.044 159.779 192.044C159.401 192.044 159.094 191.737 159.094 191.359C159.094 190.98 159.401 190.673 159.779 190.673C160.158 190.673 160.465 190.98 160.465 191.359Z" fill="#FAFAFA"/>
<path d="M164.801 191.062C164.77 191.062 164.75 189.798 164.75 188.242C164.75 186.687 164.776 185.423 164.801 185.423C164.827 185.423 164.852 186.682 164.852 188.242C164.852 189.803 164.827 191.062 164.801 191.062Z" fill="#6632AA"/>
<path d="M167.306 191.359C167.306 192.004 166.784 192.526 166.139 192.526C165.494 192.526 164.972 192.004 164.972 191.359C164.972 190.714 165.494 190.192 166.139 190.192C166.784 190.192 167.306 190.714 167.306 191.359Z" fill="#6632AA"/>
<path d="M166.822 191.36C166.822 191.738 166.515 192.045 166.136 192.045C165.757 192.045 165.45 191.738 165.45 191.36C165.45 190.981 165.757 190.674 166.136 190.674C166.515 190.674 166.822 190.981 166.822 191.36Z" fill="#FAFAFA"/>
<path d="M166.139 189.204C166.139 189.234 165.97 189.255 165.765 189.255C165.56 189.255 165.392 189.229 165.392 189.204C165.392 189.178 165.56 189.152 165.765 189.152C165.97 189.152 166.139 189.178 166.139 189.204Z" fill="#6632AA"/>
<path d="M286.605 180.275H246.063V190.062H286.605V180.275Z" fill="#161B13"/>
<path d="M285.934 122.852L289.059 135.262L285.369 137.749L280.459 122.852H285.934Z" fill="#101410"/>
<path d="M314.035 211.193C323.212 209.446 329.236 200.589 327.488 191.412C325.741 182.234 316.884 176.211 307.707 177.958C298.529 179.706 292.506 188.562 294.253 197.74C296.001 206.917 304.857 212.94 314.035 211.193Z" fill="#161B13"/>
<path d="M316.623 206C322.926 202.822 325.459 195.136 322.281 188.832C319.102 182.529 311.416 179.996 305.113 183.175C298.809 186.353 296.276 194.039 299.455 200.343C302.633 206.646 310.32 209.179 316.623 206Z" fill="#2B3028"/>
<path d="M303.701 199.24C301.134 195.275 302.264 189.978 306.229 187.411C310.193 184.843 315.49 185.974 318.058 189.938C320.625 193.903 319.495 199.2 315.53 201.767C311.566 204.335 306.269 203.204 303.701 199.24Z" fill="#8EC7CA"/>
<path d="M311.909 195.993C314.202 194.507 314.856 191.439 313.371 189.146L300.92 169.937L292.611 175.322L305.062 194.531C306.548 196.824 309.616 197.478 311.909 195.993Z" fill="#161B13"/>
<path d="M222.599 197.313C224.103 188.092 217.847 179.399 208.626 177.895C199.405 176.392 190.712 182.648 189.208 191.869C187.705 201.09 193.961 209.783 203.182 211.286C212.403 212.79 221.096 206.534 222.599 197.313Z" fill="#161B13"/>
<path d="M205.898 207.374C212.957 207.374 218.679 201.652 218.679 194.592C218.679 187.533 212.957 181.811 205.898 181.811C198.838 181.811 193.116 187.533 193.116 194.592C193.116 201.652 198.838 207.374 205.898 207.374Z" fill="#2B3028"/>
<path d="M197.366 194.593C197.366 189.87 201.194 186.042 205.909 186.034C210.633 186.034 214.46 189.861 214.468 194.577C214.468 199.3 210.641 203.128 205.925 203.136C201.202 203.136 197.374 199.309 197.366 194.593Z" fill="#8EC7CA"/>
<path d="M206.013 196.329C206.869 196.329 207.563 195.635 207.563 194.771L207.547 168.488H204.438L204.455 194.771C204.455 195.627 205.149 196.321 206.013 196.321V196.329Z" fill="#E8E9EA"/>
<path d="M291.714 136.886C294.823 142.893 297.173 149.385 299.159 153.866C298.02 153.778 297.649 154.109 297.245 153.455C296.446 152.146 293.717 145.776 291.957 142.417C290.616 139.873 290.818 138.694 291.714 136.886Z" fill="#8EC7CA"/>
<path d="M191.571 156.274H195.891C197.312 157.712 197.111 159.746 196.473 162.314C195.883 164.672 194.801 166.884 193.768 168.644C193.404 168.362 193.203 168.2 193.203 168.2C193.203 168.2 190.15 165.552 190.15 161.579C190.15 157.607 191.58 156.282 191.58 156.282L191.571 156.274Z" fill="#B13A36"/>
<path d="M246.059 168.313C246.059 171.753 254.925 187.668 254.925 187.668C250.799 187.668 237.573 175.08 237.226 171.576C236.878 168.071 231.444 157.72 231.444 157.72L231.897 156.274H249.337C249.337 156.274 246.059 164.866 246.059 168.305V168.313Z" fill="#64CE89"/>
<path d="M231.816 187.746C235.393 191.001 238.187 192.874 240.262 193.948L233.867 194.9C232.188 193.794 230.194 192.26 227.868 190.145C224.929 187.464 222.587 185.389 220.496 183.79L226.35 182.918C227.957 184.258 229.733 185.849 231.816 187.746Z" fill="#C4870C"/>
<path d="M277.39 118.27C277.39 124.304 277.705 128.505 281.769 126.541C285.827 124.576 287.624 122.472 287.624 119.764C287.624 112.627 277.396 111.155 277.396 114.201V118.27H277.39Z" fill="#47286F"/>
<path d="M281.491 129.349C283.136 129.349 284.47 128.015 284.47 126.369C284.47 124.724 283.136 123.39 281.491 123.39C279.845 123.39 278.511 124.724 278.511 126.369C278.511 128.015 279.845 129.349 281.491 129.349Z" fill="#272B27"/>
<path d="M280.974 129.343C282.334 129.343 283.437 128.241 283.437 126.881C283.437 125.521 282.334 124.418 280.974 124.418C279.614 124.418 278.511 125.521 278.511 126.881C278.511 128.241 279.614 129.343 280.974 129.343Z" fill="#101410"/>
<path d="M299.713 177.357C292.148 182.259 288.885 191.302 290.961 199.578C303.306 199.344 310.848 193.845 315.644 188.92C318.067 186.433 322.944 184.301 327.619 182.695C321.288 173.772 308.983 171.342 299.713 177.357Z" fill="#47286F"/>
<path d="M297.904 174.477C298.009 174.404 298.179 174.275 298.405 174.113C300.512 172.579 301.78 170.149 301.828 167.541V167.274C301.941 161.638 300.795 156.051 298.477 150.907C295.756 144.884 291.929 136.769 288.756 131.408C288.756 131.408 288.166 130.35 285.663 131.545C285.025 131.852 284.412 132.336 283.838 132.95C284.702 138.093 286.907 152.207 286.907 162.163C286.907 167.848 286.543 173.726 286.156 178.425C285.72 183.714 281.263 187.759 275.958 187.662H275.312L260.963 187.654C257.217 187.654 254.286 185.256 252.049 182.252C247.439 176.051 244.742 171.925 243.603 170.133C238.274 161.735 234.867 156.269 234.867 156.269H191.58C191.58 156.269 190.15 157.593 190.15 161.566C190.15 165.538 193.203 168.187 193.203 168.187C193.203 168.187 203.691 176.842 211.54 176.842C219.388 176.842 222.747 179.491 231.806 187.743C240.874 195.995 244.944 195.381 244.944 195.381H287.827C287.827 195.381 287.859 195.276 287.924 195.05C286.979 185.765 290.298 179.903 297.896 174.477H297.904Z" fill="#47286F"/>
<path d="M324.086 184.006C318.725 177.296 309.043 175.617 301.688 180.389C295.26 184.555 292.604 192.339 294.647 199.324C304.837 198.193 311.345 193.332 315.648 188.916C317.457 187.059 320.638 185.395 324.086 184.006Z" fill="#64CE89"/>
<path d="M295.855 145.271C298.439 157.253 296.073 170.407 293.465 178.215C294.733 176.931 296.202 175.695 297.89 174.484C297.995 174.411 298.164 174.282 298.39 174.121C300.498 172.587 301.765 170.156 301.814 167.548V167.282C301.927 161.646 300.78 156.058 298.463 150.915C297.672 149.171 296.792 147.241 295.855 145.263V145.271Z" fill="#64CE89"/>
<path d="M214.543 158.601C175.866 158.601 173 195.404 173 195.404H251.879L214.551 158.609L214.543 158.601Z" fill="#47286F"/>
<path d="M208.429 168.631C193.652 168.631 181.67 180.613 181.67 195.39H235.187C235.187 180.613 223.205 168.631 208.429 168.631Z" fill="#64CE89"/>
<path d="M218.429 156.274C199.551 156.274 182.635 172.23 182.635 172.23C182.635 172.23 183.297 156.274 192.623 156.274H218.429Z" fill="#161B13"/>
<path d="M190.62 152.414H249.41C250.573 152.414 251.526 153.367 251.526 154.53C251.526 155.692 250.573 156.645 249.41 156.645H190.62C189.458 156.645 188.505 155.692 188.505 154.53C188.505 153.367 189.458 152.414 190.62 152.414Z" fill="#161B13"/>
<path d="M288.887 120.286C288.29 112.868 289.13 111.74 285.714 113.503C282.751 115.031 281.475 116.841 281.475 119.063C281.475 124.917 287.91 125.282 287.91 124.858C287.91 122.355 288.968 121.285 288.887 120.286Z" fill="#47286F"/>
<path d="M289.102 118.78C289.102 115.429 288.569 112.702 287.915 112.702C287.261 112.702 286.728 115.418 286.728 118.78C286.728 122.142 287.261 124.857 287.915 124.857C288.569 124.857 289.102 122.142 289.102 118.78Z" fill="#E8E9EA"/>
<path d="M252.92 106.964C252.92 106.964 253.219 105.042 253.291 104.59C253.364 104.138 255.237 104.008 256.214 104.162C257.191 104.315 257.829 103.451 257.918 102.886C258.007 102.321 258.475 99.3494 258.475 99.3494C258.475 99.3494 259.565 99.519 259.791 99.5593C260.018 99.5916 259.993 99.0103 259.67 98.114C259.347 97.2177 258.919 96.2569 259.008 95.6917C259.097 95.1265 262.48 87.0439 255.205 85.098C247.93 83.152 245.605 86.2607 244.579 87.706C243.408 89.3532 241.866 93.665 243.497 97.0401C244.918 99.9792 246.097 101.174 246.218 102.507C246.339 103.847 245.928 105.865 245.928 105.865L252.912 106.964H252.92Z" fill="#ECC19E"/>
<path d="M245.921 105.854C245.743 106.249 244.185 108.123 243.603 109.689C239.017 121.995 240.107 124.417 238.565 144.401L254.165 142.94C254.165 142.94 254.1 132.419 254.778 128.147C255.457 123.876 256.248 117.336 255.295 112.903C254.342 108.47 252.994 105.725 252.994 105.725L245.929 105.854H245.921Z" fill="black"/>
<path d="M275.54 121.963C278.479 121.64 282.105 121.503 283.17 122.262C284.236 123.012 285.262 123.529 285.262 124.248V127.365C285.262 127.744 284.236 128.358 284.236 127.365C284.236 126.371 284.172 125.193 284.172 124.805C284.172 124.417 282.734 123.666 281.975 123.666C281.216 123.666 279.916 123.699 279.44 124.417C278.964 125.136 278.859 125.483 278.859 126.404C278.859 127.324 279.198 127.615 279.715 127.897C280.231 128.18 280.296 128.527 280.126 128.729C279.957 128.931 278.342 128.253 277.591 127.599C276.84 126.945 276.17 126.339 276.17 126.339L275.54 121.955V121.963Z" fill="#ECC19E"/>
<path d="M273.869 176.581C273.942 177.582 277.494 181.264 279.788 181.725C282.081 182.185 283.833 182.928 283.663 183.767C283.494 184.607 283.332 185.407 283.332 185.407L264.785 181.684C264.785 181.684 264.527 180.069 264.785 178.81C265.036 177.542 265.375 176.549 265.375 176.549L273.877 176.581H273.869Z" fill="#101011"/>
<path d="M238.574 144.39C238.574 148.572 237.225 154.217 247.73 154.217C258.235 154.217 268.183 153.756 268.183 153.756C268.183 153.756 267.149 157.309 266.148 169.413C266.003 171.133 264.977 175.88 265.373 176.542C265.769 177.196 267.044 182.356 269.669 180.717C272.293 179.078 273.867 176.575 273.867 176.575C273.867 176.575 277.089 151.528 276.5 149.097C275.91 146.667 275.514 145.746 271.905 145.746C268.296 145.746 255.441 145.286 254.804 145.157C254.166 145.028 254.182 142.937 254.182 142.937L238.582 144.398L238.574 144.39Z" fill="#64CE89"/>
<path d="M243.506 97.0251C241.875 93.6499 242.674 88.6115 243.845 86.9643C244.871 85.519 247.931 83.137 255.214 85.0829C258.815 86.0438 259.493 87.9413 259.623 89.0717C259.195 91.1469 258.831 92.5276 255.174 90.073C253.623 89.0314 252.905 93.222 252.735 94.7804C252.566 96.3387 251.75 98.2039 251.637 97.5176C251.524 96.8394 251.435 96.0077 250.846 95.2891C250.256 94.5704 249.287 94.6754 249.053 96.1127C248.827 97.5499 250.216 99.2778 250.216 99.2778C250.216 99.2778 248.294 101.724 246.219 102.419C246.066 101.111 244.903 99.9076 243.514 97.0251H243.506Z" fill="#2D1B1A"/>
<path d="M259.978 92.0577C261.084 85.9695 255.222 80.1963 248.262 82.5298C242.19 84.5646 242.586 92.7117 242.586 92.7117L259.978 92.0577Z" fill="black"/>
<path d="M253.068 87.6562C266.366 90.0786 267.351 89.5699 267.351 90.668C267.351 92.3798 251.63 92.3798 251.63 92.3798L253.076 87.6562H253.068Z" fill="black"/>
<path d="M259.285 96.3743C256.484 98.5786 253.456 97.6662 253.456 97.6662L251.994 102.931C254.118 104.408 257.234 104.82 257.234 104.82C257.234 104.82 260.335 103.439 260.262 100.29C260.214 98.3122 259.293 96.3662 259.293 96.3662L259.285 96.3743Z" fill="#A5CFE5"/>
<path d="M253.212 98.5138L253.447 97.6659C253.447 97.6659 256.474 98.5783 259.276 96.374C259.276 96.374 259.422 96.6566 259.599 97.1249C256.765 99.2485 253.778 98.6591 253.212 98.5218V98.5138Z" fill="#E6FEFF"/>
<path d="M254.126 97.7923L252.527 103.259C252.349 103.154 252.172 103.049 251.994 102.928L253.456 97.6631C253.456 97.6631 253.706 97.7358 254.126 97.7923Z" fill="#D3E3EF"/>
<path d="M254.095 98.3451L254.127 98.0786C253.562 98.0059 252.803 97.0289 252.197 96.2376C251.551 95.406 251.14 94.8892 250.8 94.8892C250.687 94.8731 250.599 94.9376 250.526 95.0265L250.736 95.196C250.736 95.196 250.784 95.1637 250.792 95.1637C251.026 95.1637 251.535 95.8258 251.979 96.4072C252.649 97.2792 253.408 98.2643 254.087 98.3531L254.095 98.3451Z" fill="#E6FEFF"/>
<path d="M252.534 103.034L252.687 102.816C250.127 101.039 248.916 97.8902 249.07 97.1958C249.078 97.1555 249.094 97.1232 249.11 97.1151L249.062 96.8486C248.989 96.8648 248.852 96.9132 248.803 97.1312C248.617 97.9629 249.909 101.209 252.534 103.034Z" fill="#E6FEFF"/>
<path d="M254.96 109.028C252.884 105.063 247.176 105.822 247.176 112.08C247.176 116.917 246.869 119.678 251.673 125.637L257.519 121.705C257.519 115.657 256.316 111.62 254.952 109.028H254.96Z" fill="black"/>
<path d="M257.002 131.426C258.964 131.111 276.292 126.307 276.292 126.307L275.557 121.938C275.557 121.938 258.472 125.838 258.367 125.039C258.326 124.764 257.995 123.464 257.511 121.704L251.665 125.636C252.343 126.856 253.086 128.228 253.918 129.795C254.443 130.78 255.04 131.733 257.002 131.418V131.426Z" fill="#ECC19E"/>
<path d="M220.072 102.457H177.09V151.579H220.072V102.457Z" fill="#47286F"/>
<path d="M232.358 102.457H220.077V151.579H232.358V102.457Z" fill="#47286F"/>
<path d="M232.356 129.068H177.094V139.302H232.356V129.068Z" fill="white"/>
</g>
<defs>
<clipPath id="clip0_318_3324">
<rect width="358.244" height="211" fill="white"/>
</clipPath>
</defs>
</svg>
