<svg width="24" height="24" viewBox="0 0 24 24" fill="none" xmlns="http://www.w3.org/2000/svg">
<mask id="mask0_318_4729" style="mask-type:alpha" maskUnits="userSpaceOnUse" x="0" y="0" width="24" height="24">
<rect width="23.9998" height="23.9998" fill="#D9D9D9"/>
</mask>
<g mask="url(#mask0_318_4729)">
<path d="M11.9998 20.0002C11.4498 20.0002 10.979 19.8044 10.5873 19.4127C10.1957 19.0211 9.99983 18.5502 9.99983 18.0002C9.99983 17.4502 10.1957 16.9794 10.5873 16.5877C10.979 16.1961 11.4498 16.0002 11.9998 16.0002C12.5498 16.0002 13.0206 16.1961 13.4123 16.5877C13.804 16.9794 13.9998 17.4502 13.9998 18.0002C13.9998 18.5502 13.804 19.0211 13.4123 19.4127C13.0206 19.8044 12.5498 20.0002 11.9998 20.0002ZM11.9998 14.0003C11.4498 14.0003 10.979 13.8044 10.5873 13.4128C10.1957 13.0211 9.99983 12.5503 9.99983 12.0003C9.99983 11.4503 10.1957 10.9794 10.5873 10.5878C10.979 10.1961 11.4498 10.0003 11.9998 10.0003C12.5498 10.0003 13.0206 10.1961 13.4123 10.5878C13.804 10.9794 13.9998 11.4503 13.9998 12.0003C13.9998 12.5503 13.804 13.0211 13.4123 13.4128C13.0206 13.8044 12.5498 14.0003 11.9998 14.0003ZM11.9998 8.00031C11.4498 8.00031 10.979 7.80447 10.5873 7.41281C10.1957 7.02115 9.99983 6.55032 9.99983 6.00032C9.99983 5.45033 10.1957 4.9795 10.5873 4.58783C10.979 4.19617 11.4498 4.00034 11.9998 4.00034C12.5498 4.00034 13.0206 4.19617 13.4123 4.58783C13.804 4.9795 13.9998 5.45033 13.9998 6.00032C13.9998 6.55032 13.804 7.02115 13.4123 7.41281C13.0206 7.80447 12.5498 8.00031 11.9998 8.00031Z" fill="#76889A"/>
</g>
</svg>
