<svg width="28" height="28" viewBox="0 0 28 28" fill="none" xmlns="http://www.w3.org/2000/svg">
<mask id="mask0_318_4588" style="mask-type:alpha" maskUnits="userSpaceOnUse" x="0" y="0" width="28" height="28">
<rect x="28" y="28" width="28" height="28" transform="rotate(-180 28 28)" fill="#D9D9D9"/>
</mask>
<g mask="url(#mask0_318_4588)">
<path d="M16.8583 14L8.28331 5.42505C7.99165 5.13339 7.85067 4.79311 7.8604 4.40422C7.87012 4.01533 8.02081 3.67505 8.31248 3.38339C8.60414 3.09172 8.94442 2.94589 9.33331 2.94589C9.7222 2.94589 10.0625 3.09172 10.3541 3.38339L19.3375 12.3375C19.5708 12.5709 19.7458 12.8334 19.8625 13.125C19.9791 13.4167 20.0375 13.7084 20.0375 14C20.0375 14.2917 19.9791 14.5834 19.8625 14.875C19.7458 15.1667 19.5708 15.4292 19.3375 15.6625L10.3541 24.6459C10.0625 24.9375 9.71734 25.0785 9.31873 25.0688C8.92011 25.0591 8.57498 24.9084 8.28331 24.6167C7.99164 24.325 7.84581 23.9848 7.84581 23.5959C7.84581 23.207 7.99164 22.8667 8.28331 22.575L16.8583 14Z" fill="#52BC77"/>
</g>
</svg>
