<svg width="20" height="20" viewBox="0 0 20 20" fill="none" xmlns="http://www.w3.org/2000/svg">
<path d="M18.4615 5.38596H15.0885C15.126 5.35423 15.1644 5.32346 15.201 5.2898C15.493 5.03036 15.7283 4.71345 15.8923 4.35889C16.0563 4.00434 16.1453 3.61976 16.1538 3.22923C16.1665 2.80199 16.0917 2.37668 15.934 1.97941C15.7763 1.58213 15.5391 1.22128 15.2369 0.919001C14.9347 0.616722 14.5739 0.379396 14.1767 0.221593C13.7795 0.0637894 13.3542 -0.0111611 12.9269 0.00134244C12.5362 0.00975768 12.1515 0.0987318 11.7967 0.262695C11.442 0.426659 11.1249 0.662081 10.8654 0.954227C10.5062 1.37047 10.2143 1.84023 10 2.34653C9.78575 1.84023 9.49377 1.37047 9.13462 0.954227C8.87506 0.662081 8.558 0.426659 8.20327 0.262695C7.84854 0.0987318 7.46378 0.00975768 7.07308 0.00134244C6.64584 -0.0111611 6.22055 0.0637894 5.82332 0.221593C5.4261 0.379396 5.06531 0.616722 4.76312 0.919001C4.46094 1.22128 4.22372 1.58213 4.06603 1.97941C3.90835 2.37668 3.83352 2.80199 3.84615 3.22923C3.8547 3.61976 3.94374 4.00434 4.1077 4.35889C4.27166 4.71345 4.50701 5.03036 4.79904 5.2898C4.83558 5.32153 4.87404 5.3523 4.91154 5.38596H1.53846C1.13044 5.38596 0.739122 5.54805 0.450605 5.83656C0.162087 6.12508 0 6.51639 0 6.92442V10.0013C0 10.4094 0.162087 10.8007 0.450605 11.0892C0.739122 11.3777 1.13044 11.5398 1.53846 11.5398V17.6936C1.53846 18.1017 1.70055 18.493 1.98907 18.7815C2.27758 19.07 2.6689 19.2321 3.07692 19.2321H16.9231C17.3311 19.2321 17.7224 19.07 18.0109 18.7815C18.2995 18.493 18.4615 18.1017 18.4615 17.6936V11.5398C18.8696 11.5398 19.2609 11.3777 19.5494 11.0892C19.8379 10.8007 20 10.4094 20 10.0013V6.92442C20 6.51639 19.8379 6.12508 19.5494 5.83656C19.2609 5.54805 18.8696 5.38596 18.4615 5.38596ZM12.0192 1.97346C12.141 1.83896 12.2893 1.73109 12.4548 1.65663C12.6203 1.58217 12.7993 1.54272 12.9808 1.54077H13.0279C13.2405 1.54209 13.4508 1.58586 13.6463 1.66949C13.8419 1.75312 14.0187 1.87494 14.1666 2.0278C14.3144 2.18066 14.4303 2.3615 14.5074 2.55971C14.5844 2.75792 14.6211 2.96952 14.6154 3.18211C14.6134 3.36355 14.574 3.54263 14.4995 3.7081C14.4251 3.87357 14.3172 4.02185 14.1827 4.14365C13.2702 4.95134 11.7558 5.23596 10.8173 5.33596C10.9327 4.31769 11.25 2.83788 12.0192 1.97346ZM5.85673 2.00807C6.15475 1.71008 6.55837 1.54179 6.97981 1.5398H7.02692C7.20836 1.54176 7.38744 1.58121 7.55291 1.65567C7.71838 1.73013 7.86667 1.838 7.98846 1.9725C8.79519 2.88403 9.07981 4.39557 9.17981 5.33019C8.24519 5.23403 6.73365 4.94557 5.82212 4.13884C5.68762 4.01705 5.57975 3.86876 5.50529 3.70329C5.43083 3.53782 5.39138 3.35874 5.38942 3.1773C5.38346 2.96118 5.42147 2.7461 5.50113 2.54511C5.5808 2.34413 5.70047 2.16142 5.85288 2.00807H5.85673ZM1.53846 6.92442H9.23077V10.0013H1.53846V6.92442ZM3.07692 11.5398H9.23077V17.6936H3.07692V11.5398ZM16.9231 17.6936H10.7692V11.5398H16.9231V17.6936ZM18.4615 10.0013H10.7692V6.92442H18.4615V10.0013Z" fill="#01A367"/>
</svg>
