<svg width="320" height="175" viewBox="0 0 320 175" fill="none" xmlns="http://www.w3.org/2000/svg">
<g clip-path="url(#clip0_374_2986)">
<path d="M149.564 174.804C230.595 174.804 296.282 170.198 296.282 164.517C296.282 158.836 230.595 154.231 149.564 154.231C68.5343 154.231 2.84635 158.836 2.84635 164.517C2.84635 170.198 68.5343 174.804 149.564 174.804Z" fill="#BFBBB8"/>
<path d="M205.974 26.5281H122.585V112.613H205.974V26.5281Z" fill="#52BC77"/>
<path d="M288.697 26.5281H205.308V112.613H288.697V26.5281Z" fill="#369859"/>
<path d="M48.3202 157.747C51.5637 153.545 53.609 147.991 53.7716 141.855C53.9514 135.043 51.7776 128.821 48.1234 124.302L48.0806 116.96L34.4306 116.626V116.994C34.3108 116.994 34.1995 116.977 34.0797 116.977C22.8516 116.677 13.455 127.341 13.1041 140.785C12.7532 154.23 21.5679 165.372 32.796 165.663C33.1897 165.672 33.5748 165.663 33.9599 165.655L48.363 165.689L48.3202 157.747Z" fill="black"/>
<path d="M68.6537 141.891C69.0082 128.444 60.1911 117.303 48.9603 117.007C37.7294 116.711 28.3376 127.372 27.9832 140.819C27.6287 154.266 36.4458 165.406 47.6766 165.702C58.9075 165.998 68.2992 155.338 68.6537 141.891Z" fill="black"/>
<path d="M201.749 155.906C204.846 151.892 206.806 146.586 206.96 140.716C207.131 134.203 205.052 128.264 201.56 123.942L201.517 116.916L188.467 116.591V116.942C188.347 116.942 188.244 116.925 188.133 116.925C177.401 116.642 168.424 126.835 168.081 139.689C167.739 152.543 176.169 163.189 186.9 163.471C187.277 163.48 187.645 163.471 188.013 163.463L201.783 163.497L201.74 155.906H201.749Z" fill="black"/>
<path d="M221.184 140.755C221.523 127.904 213.096 117.256 202.361 116.973C191.626 116.69 182.649 126.879 182.31 139.731C181.972 152.582 190.399 163.23 201.134 163.513C211.869 163.796 220.846 153.607 221.184 140.755Z" fill="black"/>
<path d="M236.693 124.36H106.765V144.942H236.693V124.36Z" fill="black"/>
<path d="M267.582 159.063C271.228 154.339 273.539 148.091 273.718 141.185C273.924 133.517 271.468 126.525 267.36 121.442L267.308 113.175L251.947 112.798V113.209C251.81 113.209 251.682 113.192 251.553 113.183C238.913 112.85 228.352 124.848 227.95 139.978C227.548 155.109 237.475 167.646 250.107 167.98C250.552 167.989 250.988 167.98 251.416 167.963L267.625 167.997L267.574 159.063H267.582Z" fill="black"/>
<path d="M290.47 141.231C290.869 126.102 280.95 113.568 268.316 113.235C255.682 112.902 245.117 124.896 244.718 140.025C244.319 155.154 254.238 167.688 266.872 168.021C279.506 168.354 290.072 156.36 290.47 141.231Z" fill="black"/>
<path d="M281.902 140.524C281.688 148.782 275.911 155.338 269.013 155.149C262.116 154.97 256.698 148.123 256.912 139.865C257.126 131.606 262.903 125.051 269.801 125.239C276.698 125.419 282.116 132.265 281.902 140.524Z" fill="#8EC7CA"/>
<path d="M270.198 118.001C277.515 118.198 283.908 122.477 287.93 128.981C290.369 127.398 291.978 124.66 291.978 121.536C291.978 116.632 288.007 112.661 283.104 112.661H199.595C194.537 112.661 190.498 108.434 190.737 103.384L193.108 51.3348C193.339 46.2856 189.308 42.0579 184.25 42.0579H87.896C84.8323 42.0579 81.9825 43.6411 80.3565 46.2428L59.6205 79.5504C58.7903 80.894 57.6093 81.9895 56.2058 82.7254L20.8528 101.262C18.3025 102.606 16.5567 105.087 16.1716 107.946L14.5028 120.372C13.7925 125.687 17.9345 130.428 23.3089 130.428H100.125C103.848 121.168 112.466 114.69 122.505 114.69C132.543 114.69 141.161 121.168 144.884 130.428H250.429C254.674 122.777 262 117.796 270.198 118.019V118.001Z" fill="#47286F"/>
<path d="M94.8623 139.283H36.5568V149.972H94.8623V139.283Z" fill="#152D40"/>
<path d="M124.072 160.337C127.718 155.613 130.029 149.366 130.209 142.46C130.414 134.792 127.958 127.8 123.85 122.716L123.799 114.449L108.437 114.073V114.484C108.3 114.484 108.172 114.467 108.043 114.458C95.4032 114.124 84.8426 126.122 84.4404 141.253C84.0382 156.384 93.9654 168.921 106.597 169.255C107.033 169.263 107.478 169.255 107.906 169.238L124.115 169.272L124.064 160.337H124.072Z" fill="black"/>
<path d="M144.878 130.41C141.156 121.15 132.538 114.672 122.499 114.672C112.461 114.672 103.843 121.15 100.12 130.41L80.9332 131.822C80.9332 131.822 85.546 124.291 86.3847 122.34C89.0548 116.101 93.445 109.024 107.771 105.592C122.097 102.16 139.016 104.385 144.878 130.41Z" fill="#47286F"/>
<path d="M149.544 47.8249L133.669 79.8317L95.9969 79.5322L93.0102 79.5151L89.5699 79.4894L82.0817 79.421L77.6829 79.3867L75.3808 79.3782L66.6858 79.3012L84.9828 47.8249H149.544Z" fill="white"/>
<path d="M141.402 80.1019L156.73 47.864H183.568C186.358 47.864 188.566 50.2174 188.394 52.9988L186.777 79.306L141.402 80.1019Z" fill="white"/>
<path d="M140.258 78.3616L142.406 73.6547H147.652C147.652 73.6547 148.73 69.2131 153.163 68.4087C157.605 67.6042 160.694 68.0064 161.635 71.9089C162.577 75.8113 157.605 79.1746 151.143 78.2332C144.691 77.2919 140.249 78.3702 140.249 78.3702L140.258 78.3616Z" fill="black"/>
<path d="M94.4616 144.128H16.5839C12.014 144.128 8.30836 140.423 8.30836 135.853C8.30836 131.283 12.014 127.577 16.5839 127.577H94.4616C99.0315 127.577 102.737 131.283 102.737 135.853C102.737 140.423 99.0315 144.128 94.4616 144.128Z" fill="black"/>
<path d="M98.5033 127.589H82.3458C80.0109 127.589 78.1182 129.482 78.1182 131.817V139.904C78.1182 142.239 80.0109 144.132 82.3458 144.132H98.5033C100.838 144.132 102.731 142.239 102.731 139.904V131.817C102.731 129.482 100.838 127.589 98.5033 127.589Z" fill="black"/>
<path d="M17.2616 118.928L18.3142 109.848C18.588 107.46 20.6077 105.663 23.0125 105.663H71.1255C73.9325 105.663 76.1148 108.085 75.8324 110.875L74.9253 119.724C74.6771 122.128 72.6574 123.96 70.244 123.968L21.9941 124.191C19.1614 124.208 16.9449 121.735 17.2701 118.919L17.2616 118.928Z" fill="#6FD191"/>
<path d="M146.949 142.51C147.348 127.381 137.429 114.847 124.795 114.514C112.161 114.181 101.595 126.175 101.197 141.304C100.798 156.433 110.716 168.967 123.351 169.3C135.985 169.633 146.55 157.639 146.949 142.51Z" fill="black"/>
<path d="M138.392 141.8C138.61 133.541 133.194 126.698 126.296 126.516C119.398 126.335 113.629 132.882 113.411 141.141C113.194 149.4 118.609 156.243 125.507 156.425C132.406 156.607 138.174 150.059 138.392 141.8Z" fill="#8EC7CA"/>
<path d="M80.3371 110.241C80.9447 110.446 115.04 89.0601 136.828 87.2372L133.397 82.5988C133.397 82.5988 107.979 88.0502 80.1317 108.427L80.3371 110.241Z" fill="#47286F"/>
<path d="M27.2328 102.852L74.49 103.1L78.7262 100.037L31.178 100.268L60.4977 84.1272L57.8105 83.4511L26.7536 100.995C25.8721 101.491 26.223 102.835 27.2328 102.844V102.852Z" fill="#47286F"/>
<path d="M141.195 81.4493L140.929 115.613C140.929 115.613 147.117 88.039 141.195 81.4493Z" fill="#47286F"/>
<path d="M26.979 121.329C30.4907 121.329 33.3375 118.348 33.3375 114.671C33.3375 110.994 30.4907 108.013 26.979 108.013C23.4672 108.013 20.6204 110.994 20.6204 114.671C20.6204 118.348 23.4672 121.329 26.979 121.329Z" fill="white"/>
<path d="M64.9081 121.329C68.4198 121.329 71.2667 118.348 71.2667 114.671C71.2667 110.994 68.4198 108.013 64.9081 108.013C61.3964 108.013 58.5495 110.994 58.5495 114.671C58.5495 118.348 61.3964 121.329 64.9081 121.329Z" fill="white"/>
<path d="M116.876 65.4112L117.013 69.9299C117.013 69.9299 113.059 73.1733 110.475 73.0364C107.89 72.8995 108.267 72.1892 108.267 72.1892L108.224 69.0398C108.224 69.0398 114.437 65.4626 116.876 65.4198V65.4112Z" fill="#C17638"/>
<path d="M103.295 63.8292C103.577 68.6303 106.222 69.7941 108.481 70.4959C110.732 71.1976 114.874 69.1694 116.372 66.6448C116.372 66.6448 116.372 66.6277 116.389 66.6191C116.466 66.4908 116.534 66.3624 116.594 66.234C117.835 63.7779 117.587 60.9965 117.587 60.9965C117.587 60.9965 117.655 59.3962 117.578 57.5134C117.493 55.6307 117.262 53.4655 116.654 52.3359C115.43 50.0765 111.742 49.5374 110.116 49.5374C108.49 49.5374 105.392 50.7355 104.117 52.43C102.85 54.1245 103.218 62.4172 103.304 63.8292H103.295Z" fill="#E1964F"/>
<path d="M117.54 57.0169C117.54 57.0169 118.806 57.0853 119.482 58.3947C120.15 59.7041 119.662 62.6651 117.334 62.9818C115.006 63.2984 117.548 57.0169 117.548 57.0169H117.54Z" fill="#E1964F"/>
<path d="M103.322 53.0301C103.322 53.0301 104.871 53.5607 108.329 53.381C111.786 53.2013 113.369 52.8846 113.369 52.8846C113.369 52.8846 113.053 54.8615 113.789 56.4448C114.533 58.028 115.338 57.6771 115.552 58.918C115.766 60.1504 115.689 60.8265 116.33 60.7837C116.964 60.7494 116.912 57.9766 117.298 57.3776C117.683 56.7785 119.026 57.6429 119.146 57.9253C119.266 58.2077 121.012 52.9873 117.648 51.1731C117.648 51.1731 116.604 48.5971 112.128 48.4003C107.644 48.2034 104.067 49.7952 103.305 53.0216L103.322 53.0301Z" fill="#151A25"/>
<path d="M112.877 57.6277C112.877 57.6277 112.406 56.8061 111.139 56.8061C109.873 56.8061 109.753 57.5849 109.351 57.5079C108.948 57.4394 109.12 56.1472 110.412 55.8819C111.704 55.6251 112.902 56.2327 112.885 57.6191L112.877 57.6277Z" fill="#151A25"/>
<path d="M103.595 57.6003C103.595 57.6003 103.998 56.7787 105.085 56.7787C106.171 56.7787 106.274 57.5575 106.608 57.4805C106.95 57.412 106.805 56.1198 105.701 55.8545C104.597 55.5977 103.57 56.2054 103.587 57.5918L103.595 57.6003Z" fill="#151A25"/>
<path d="M110.312 58.9759C110.312 59.3781 110.5 59.7033 110.731 59.7033C110.962 59.7033 111.15 59.3781 111.15 58.9759C111.15 58.5737 110.962 58.2485 110.731 58.2485C110.5 58.2485 110.312 58.5737 110.312 58.9759Z" fill="#151A25"/>
<path d="M105.836 59.6642C106.067 59.6642 106.255 59.3385 106.255 58.9368C106.255 58.535 106.067 58.2094 105.836 58.2094C105.604 58.2094 105.417 58.535 105.417 58.9368C105.417 59.3385 105.604 59.6642 105.836 59.6642Z" fill="#151A25"/>
<path d="M106.804 65.376C106.804 65.376 108.409 66.1144 109.538 65.5092C109.538 65.5092 109.538 65.485 109.559 65.4728C109.652 65.2913 109.735 65.1097 109.807 64.9281C109.704 64.9645 108.296 65.4728 107.188 64.7466L106.804 65.3639V65.376Z" fill="#EFF5E1"/>
<path d="M118.148 70.9671C118.148 70.9671 124.661 72.3107 126.809 74.7326C128.957 77.1545 129.368 79.9787 129.368 79.9787L95.8805 79.5764C95.8805 79.5764 99.2437 75.1348 102.744 74.0651C106.244 72.9868 118.157 70.9757 118.157 70.9757L118.148 70.9671Z" fill="black"/>
<path d="M118.145 70.963L117.066 68.4726C117.066 68.4726 112.222 71.6733 110.382 71.8103L110.057 72.6575L109.681 71.6733C109.681 71.6733 108.551 71.3909 108.269 70.9716C107.986 70.5522 107.567 72.8971 107.567 72.8971C107.567 72.8971 107.986 73.8813 110.81 73.8813C113.635 73.8813 118.145 70.963 118.145 70.963Z" fill="#152D40"/>
<path d="M85.6641 71.4949C80.7347 71.4949 76.584 74.8411 75.3774 79.3683L77.688 79.3854C78.9375 76.4072 81.8814 74.3191 85.3218 74.3191C88.7621 74.3191 91.7916 76.4671 93.0154 79.5052L96.0021 79.5309C94.8554 74.9181 90.6705 71.4949 85.6726 71.4949H85.6641Z" fill="#151A25"/>
<path d="M90.8219 76.341C90.8219 76.341 93.4749 74.3213 94.5532 74.287C95.6315 74.2528 96.2991 75.9387 96.5729 76.1356C96.8382 76.341 98.7894 77.8129 99.8677 79.6358L93.0042 79.516C93.0042 79.516 92.2682 79.1651 92.1056 78.6944C91.9345 78.2237 90.4283 77.753 90.8305 76.341H90.8219Z" fill="#C17638"/>
<path d="M78.8932 73.8843C78.8932 73.8843 79.6292 75.9724 79.5693 76.6742C79.5008 77.3845 78.9617 77.9151 78.5594 77.7867C78.5594 77.7867 78.6279 79.1816 77.6865 79.387L75.1619 79.4298C75.1619 79.4298 74.8624 78.7195 75.0935 78.1889C75.3331 77.6498 75.1962 76.5116 75.7011 76.0066C76.206 75.5017 76.2402 74.3293 76.7794 73.7901C77.3185 73.251 78.5594 73.4906 78.9018 73.8928L78.8932 73.8843Z" fill="#C17638"/>
<path d="M81.1127 75.4634C81.1127 75.4634 81.4807 76.2678 81.01 77.4831C80.5393 78.6983 79.829 79.1005 79.2984 78.9636C78.7593 78.8267 78.6908 78.0907 79.1273 77.0808C79.5637 76.071 81.1127 75.4634 81.1127 75.4634Z" fill="#E1964F"/>
<path d="M89.5749 79.4908L82.0866 79.4224C82.7285 77.959 84.1577 76.9491 85.8179 76.9491C87.4782 76.9491 88.9416 77.9932 89.5749 79.4908Z" fill="#151A25"/>
<path d="M82.2938 74.3721L84.3649 78.4114H86.6327L84.5703 73.9698L82.2938 74.3721Z" fill="#151A25"/>
<path d="M152.158 119.921C152.158 119.921 182.222 82.5996 183.429 86.0228C184.635 89.4546 185.046 114.273 182.222 120.922C179.398 127.58 153.168 125.561 151.559 124.962C149.941 124.354 150.352 122.343 152.166 119.921H152.158Z" fill="#47286F"/>
<path d="M230.33 32.7174H212.307V41.3267H230.33V32.7174Z" fill="white"/>
<path d="M254.944 26.5281H243.109V112.339H254.944V26.5281Z" fill="white"/>
<ellipse cx="107.877" cy="62.5781" rx="1.27206" ry="1.02585" fill="url(#paint0_linear_374_2986)"/>
</g>
<defs>
<linearGradient id="paint0_linear_374_2986" x1="106.702" y1="62.6343" x2="108.556" y2="62.753" gradientUnits="userSpaceOnUse">
<stop stop-color="#C17638"/>
<stop offset="1" stop-color="#E1964F"/>
</linearGradient>
<clipPath id="clip0_374_2986">
<rect width="319.708" height="174.646" fill="white" transform="scale(1.00091)"/>
</clipPath>
</defs>
</svg>
