<svg width="28" height="28" viewBox="0 0 28 28" fill="none" xmlns="http://www.w3.org/2000/svg">
<mask id="mask0_0_100" style="mask-type:alpha" maskUnits="userSpaceOnUse" x="0" y="0" width="28" height="28">
<rect width="27.9999" height="27.9999" fill="#D9D9D9"/>
</mask>
<g mask="url(#mask0_0_100)">
<path d="M6.81846 22.8174C5.90784 22.8174 5.13469 22.4989 4.49902 21.862C3.86334 21.2251 3.5455 20.4517 3.5455 19.5418H2.62565C2.32686 19.5418 2.07642 19.4407 1.87432 19.2386C1.67221 19.0365 1.57116 18.7861 1.57116 18.4873V7.35918C1.57116 6.76986 1.77532 6.27103 2.18366 5.8627C2.59199 5.45437 3.0908 5.2502 3.68011 5.2502H17.4557C18.0357 5.2502 18.5321 5.45671 18.9451 5.86973C19.3582 6.28273 19.5647 6.77921 19.5647 7.35918V9.69251H21.6063C21.9402 9.69251 22.2566 9.76719 22.5553 9.91656C22.8541 10.066 23.1001 10.2725 23.2935 10.5361L26.2191 14.4534C26.2894 14.5413 26.3421 14.638 26.3773 14.7434C26.4124 14.8488 26.43 14.9631 26.43 15.0861V18.4873C26.43 18.7861 26.329 19.0365 26.1269 19.2386C25.9248 19.4407 25.6743 19.5418 25.3755 19.5418H24.3211C24.3211 20.4517 24.0023 21.2251 23.3649 21.862C22.7275 22.4989 21.9534 22.8174 21.0428 22.8174C20.1322 22.8174 19.359 22.4989 18.7234 21.862C18.0877 21.2251 17.7698 20.4517 17.7698 19.5418H10.0967C10.0967 20.4542 9.778 21.2282 9.14056 21.8639C8.50313 22.4995 7.7291 22.8174 6.81846 22.8174ZM6.82111 21.0674C7.24889 21.0674 7.61011 20.9201 7.90477 20.6255C8.19943 20.3308 8.34676 19.9696 8.34676 19.5418C8.34676 19.114 8.19943 18.7528 7.90477 18.4581C7.61011 18.1635 7.24889 18.0161 6.82111 18.0161C6.39332 18.0161 6.03209 18.1635 5.73743 18.4581C5.44277 18.7528 5.29544 19.114 5.29544 19.5418C5.29544 19.9696 5.44277 20.3308 5.73743 20.6255C6.03209 20.9201 6.39332 21.0674 6.82111 21.0674ZM3.32112 17.7918H4.16471C4.41297 17.3596 4.77157 16.9972 5.24049 16.7048C5.70941 16.4124 6.23628 16.2662 6.82111 16.2662C7.39099 16.2662 7.91412 16.4105 8.39051 16.6992C8.8669 16.9879 9.22923 17.3521 9.47752 17.7918H17.8147V7.35918C17.8147 7.25447 17.781 7.16846 17.7137 7.10114C17.6464 7.03382 17.5604 7.00017 17.4557 7.00017H3.68011C3.59037 7.00017 3.5081 7.03756 3.4333 7.11234C3.35852 7.18714 3.32112 7.26942 3.32112 7.35918V17.7918ZM21.0455 21.0674C21.4732 21.0674 21.8344 20.9201 22.1291 20.6255C22.4238 20.3308 22.5711 19.9696 22.5711 19.5418C22.5711 19.114 22.4238 18.7528 22.1291 18.4581C21.8344 18.1635 21.4732 18.0161 21.0455 18.0161C20.6177 18.0161 20.2564 18.1635 19.9618 18.4581C19.6671 18.7528 19.5198 19.114 19.5198 19.5418C19.5198 19.9696 19.6671 20.3308 19.9618 20.6255C20.2564 20.9201 20.6177 21.0674 21.0455 21.0674ZM19.5647 15.4585H24.7922L21.8755 11.5883C21.8381 11.5434 21.7951 11.5079 21.7465 11.4817C21.6979 11.4555 21.6437 11.4424 21.5839 11.4424H19.5647V15.4585Z" fill="white"/>
</g>
</svg>
