<svg width="194" height="25" viewBox="0 0 194 25" fill="none" xmlns="http://www.w3.org/2000/svg">
<path d="M98.5495 13.4249H86.2894C86.3037 14.7032 86.5921 15.8285 87.1512 16.8006C87.7102 17.7763 88.4509 18.5098 89.3767 19.0048C90.3025 19.4997 91.3245 19.7454 92.4426 19.7454C93.194 19.7454 93.8776 19.6671 94.4972 19.5104C95.1168 19.3537 95.7186 19.1045 96.299 18.7697C96.8795 18.435 97.4171 18.0718 97.905 17.6872C98.3964 17.3027 99.0302 16.7828 99.81 16.124C100.131 15.8783 100.59 15.7537 101.188 15.7537C101.833 15.7537 102.353 15.9104 102.748 16.2273C103.147 16.5442 103.346 16.9893 103.346 17.5662C103.346 18.0754 103.125 18.6665 102.68 19.3466C102.235 20.0267 101.566 20.6784 100.672 21.3015C99.778 21.9247 98.6528 22.4446 97.2961 22.8576C95.9429 23.2707 94.3833 23.4736 92.6242 23.4736C88.5969 23.4736 85.4669 22.4446 83.2342 20.3864C80.998 18.3282 79.8834 15.5329 79.8834 12.0041C79.8834 10.3447 80.1576 8.80286 80.7095 7.38207C81.2615 5.96128 82.0627 4.74347 83.1203 3.72506C84.1778 2.71021 85.4776 1.93039 87.023 1.38913C88.5684 0.847881 90.2847 0.577255 92.1649 0.577255C94.6147 0.577255 96.7156 1.04017 98.4676 1.96599C100.22 2.89182 101.534 4.09183 102.406 5.55891C103.278 7.02955 103.716 8.52512 103.716 10.0492C103.716 11.4628 103.264 12.378 102.363 12.7982C101.459 13.2183 100.191 13.4249 98.5531 13.4249H98.5495ZM86.2859 10.2343H97.6522C97.499 8.31146 96.9222 6.87287 95.918 5.91856C94.9139 4.96425 93.5963 4.48708 91.9583 4.48708C90.3203 4.48708 89.1132 4.97137 88.1126 5.93992C87.1084 6.90848 86.4995 8.33995 86.2859 10.2343Z" fill="white"/>
<path d="M92.6266 24.0537C88.4532 24.0537 85.1523 22.9605 82.8093 20.8026C80.4626 18.6411 79.2733 15.6821 79.2733 12.0073C79.2733 10.2874 79.5653 8.66359 80.1386 7.18583C80.719 5.69383 81.5736 4.39411 82.6882 3.32585C83.8027 2.25403 85.1915 1.42078 86.8152 0.851042C88.4212 0.288425 90.223 0 92.1708 0C94.7132 0 96.9352 0.491395 98.7691 1.46351C100.614 2.43919 102.017 3.7211 102.942 5.2772C103.865 6.82618 104.331 8.43214 104.331 10.0488C104.331 11.6654 103.761 12.7942 102.636 13.3176C101.639 13.7806 100.304 14.0049 98.5554 14.0049H86.9327C87.0146 14.945 87.2675 15.7924 87.6912 16.5295C88.1933 17.402 88.8627 18.0679 89.6817 18.5058C90.5114 18.9474 91.4408 19.1717 92.4485 19.1717C93.1429 19.1717 93.7803 19.0969 94.3429 18.9545C94.9055 18.8121 95.4575 18.5842 95.9845 18.2779C96.54 17.9575 97.0563 17.6085 97.5192 17.2453C97.9999 16.8678 98.6195 16.3622 99.4065 15.6927C99.8587 15.3438 100.453 15.1764 101.19 15.1764C101.977 15.1764 102.633 15.3794 103.142 15.7853C103.683 16.2162 103.957 16.8144 103.957 17.5658C103.957 18.1889 103.712 18.869 103.199 19.6489C102.715 20.3895 101.988 21.1017 101.034 21.7676C100.09 22.4263 98.8937 22.9783 97.4836 23.4056C96.077 23.8329 94.4426 24.0501 92.6266 24.0501V24.0537ZM92.1672 1.15372C90.3654 1.15372 88.7061 1.41366 87.2354 1.92998C85.7826 2.43919 84.5434 3.17985 83.5535 4.1306C82.5636 5.08135 81.798 6.2422 81.2816 7.58108C80.7582 8.93065 80.4911 10.4191 80.4911 12.0037C80.4911 15.3545 81.5558 18.0358 83.6603 19.9693C85.7683 21.91 88.7844 22.8964 92.6266 22.8964C94.3144 22.8964 95.8242 22.697 97.1133 22.3053C98.3987 21.9136 99.4741 21.4186 100.314 20.8346C101.144 20.2578 101.767 19.6524 102.166 19.04C102.547 18.456 102.739 17.9575 102.739 17.5622C102.739 17.0281 102.522 16.7966 102.362 16.6649C102.074 16.437 101.693 16.3266 101.194 16.3266C100.742 16.3266 100.411 16.4085 100.201 16.5687C99.4207 17.2275 98.7904 17.7438 98.299 18.1284C97.7898 18.5272 97.2236 18.9082 96.6219 19.2572C95.9916 19.6204 95.3328 19.891 94.6598 20.0619C93.9939 20.2329 93.2462 20.3183 92.4485 20.3183C91.2307 20.3183 90.0984 20.0441 89.0835 19.5029C88.0615 18.9581 87.2318 18.1391 86.6194 17.0708C86.014 16.0168 85.7007 14.7918 85.6829 13.4245L85.6758 12.8405H98.5518C100.09 12.8405 101.279 12.6482 102.095 12.2708C102.775 11.9538 103.11 11.2239 103.11 10.0416C103.11 8.62442 102.697 7.21075 101.878 5.83626C101.066 4.46888 99.8195 3.33297 98.1744 2.46412C96.5222 1.5917 94.4996 1.1466 92.1708 1.1466L92.1672 1.15372ZM98.3133 10.8108H85.6117L85.6829 10.1734C85.9108 8.15438 86.5838 6.59472 87.6805 5.53715C88.7951 4.4582 90.2372 3.91339 91.9607 3.91339C93.6841 3.91339 95.2367 4.45108 96.3548 5.51578C97.4587 6.56624 98.0996 8.14014 98.2634 10.1948L98.3133 10.8144V10.8108ZM86.9861 9.65707H96.9779C96.7714 8.19356 96.2729 7.07544 95.4859 6.32766C94.5957 5.48017 93.442 5.06711 91.9571 5.06711C90.5541 5.06711 89.436 5.48373 88.5458 6.34546C87.7589 7.10393 87.2354 8.21848 86.9826 9.65707H86.9861Z" fill="white"/>
<path d="M40.082 23.6709C33.3983 23.6709 27.9608 18.5219 27.9608 12.1942C27.9608 5.86654 33.3983 0.717523 40.082 0.717523C46.7658 0.717523 52.2032 5.86654 52.2032 12.1942C52.2032 18.5219 46.7658 23.6709 40.082 23.6709ZM40.082 6.6535C36.8523 6.6535 34.228 9.13898 34.228 12.1942C34.228 15.2494 36.8523 17.7349 40.082 17.7349C43.3118 17.7349 45.9361 15.2494 45.9361 12.1942C45.9361 9.13898 43.3118 6.6535 40.082 6.6535Z" fill="white"/>
<path d="M6.46654 1.30459H0V22.5274H6.46654V1.30459Z" fill="white"/>
<path d="M24.4191 1.30459H17.9525V13.7142H24.4191V1.30459Z" fill="white"/>
<mask id="mask0_318_4442" style="mask-type:luminance" maskUnits="userSpaceOnUse" x="-1" y="1" width="27" height="15">
<path d="M25.0166 1.30851H-0.717768V15.73H25.0166V1.30851Z" fill="white"/>
</mask>
<g mask="url(#mask0_318_4442)">
<path d="M12.2014 13.5731C5.51764 13.5731 0.080188 8.42406 0.080188 2.09639C0.080188 -4.23127 5.51764 -9.38028 12.2014 -9.38028C18.8851 -9.38028 24.3226 -4.23127 24.3226 2.09639C24.3226 8.42406 18.8851 13.5731 12.2014 13.5731ZM12.2014 -3.44432C8.97168 -3.44432 6.34732 -0.958831 6.34732 2.09639C6.34732 5.15162 8.97168 7.63711 12.2014 7.63711C15.4311 7.63711 18.0555 5.15162 18.0555 2.09639C18.0555 -0.958831 15.4311 -3.44432 12.2014 -3.44432Z" fill="white"/>
</g>
<path d="M21.1865 22.4856C23.3007 22.4856 25.0145 20.8627 25.0145 18.8607C25.0145 16.8587 23.3007 15.2357 21.1865 15.2357C19.0724 15.2357 17.3586 16.8587 17.3586 18.8607C17.3586 20.8627 19.0724 22.4856 21.1865 22.4856Z" fill="white"/>
<path d="M144.602 1.30459H138.135V22.5274H144.602V1.30459Z" fill="white"/>
<mask id="mask1_318_4442" style="mask-type:luminance" maskUnits="userSpaceOnUse" x="151" y="0" width="20" height="10">
<path d="M170.101 0.107408H151.424V9.99594H170.101V0.107408Z" fill="white"/>
</mask>
<g mask="url(#mask1_318_4442)">
<path d="M160.804 20.225C155.106 20.225 150.47 15.8345 150.47 10.4433C150.47 5.05216 155.106 0.661612 160.804 0.661612C166.501 0.661612 171.137 5.05216 171.137 10.4433C171.137 15.8345 166.501 20.225 160.804 20.225ZM160.804 7.87237C159.308 7.87237 158.09 9.02253 158.09 10.4398C158.09 11.857 159.308 13.0072 160.804 13.0072C162.299 13.0072 163.517 11.857 163.517 10.4398C163.517 9.02253 162.299 7.87237 160.804 7.87237Z" fill="white"/>
</g>
<path d="M170.103 7.45135H163.54V22.407H170.103V7.45135Z" fill="white"/>
<path d="M158.054 7.45135H151.463V22.5245H158.054V7.45135Z" fill="white"/>
<path d="M183.228 1.12852H176.277V16.0842H183.228V1.12852Z" fill="white"/>
<mask id="mask2_318_4442" style="mask-type:luminance" maskUnits="userSpaceOnUse" x="175" y="14" width="20" height="10">
<path d="M194.097 14.4265H175.833V23.6954H194.097V14.4265Z" fill="white"/>
</mask>
<g mask="url(#mask2_318_4442)">
<path d="M185.105 23.3217C180.202 23.3217 176.21 19.5436 176.21 14.9003C176.21 10.2569 180.202 6.4788 185.105 6.4788C190.008 6.4788 194 10.2569 194 14.9003C194 19.5436 190.008 23.3217 185.105 23.3217ZM185.105 13.1198C184.069 13.1198 183.221 13.9175 183.221 14.9003C183.221 15.8831 184.065 16.6807 185.105 16.6807C186.145 16.6807 186.989 15.8831 186.989 14.9003C186.989 13.9175 186.145 13.1198 185.105 13.1198Z" fill="white"/>
</g>
<path d="M189.156 2.60819H181.661V8.1774H189.156V2.60819Z" fill="white"/>
<path d="M60.2019 4.22723L65.618 18.6416L71.0518 4.12396C71.3332 3.36194 71.5468 2.83137 71.6892 2.53226C71.8317 2.23314 72.0631 1.96607 72.3907 1.7275C72.7183 1.48892 73.1634 1.36786 73.7296 1.36786C74.1427 1.36786 74.5273 1.46044 74.8798 1.6456C75.2323 1.83077 75.51 2.07646 75.713 2.38626C75.916 2.69605 76.0157 3.00585 76.0157 3.3192C76.0157 3.53286 75.9836 3.76788 75.916 4.01714C75.8519 4.2664 75.77 4.5121 75.6703 4.75068C75.5706 4.98926 75.4745 5.23852 75.3783 5.49134L69.5848 19.539C69.3782 20.0767 69.1717 20.5859 68.9652 21.0701C68.7586 21.5544 68.5201 21.9782 68.2459 22.3449C67.9753 22.7117 67.612 23.0108 67.1598 23.2458C66.7076 23.4809 66.1557 23.5984 65.504 23.5984C64.8524 23.5984 64.3004 23.4844 63.8482 23.253C63.396 23.0251 63.0328 22.7188 62.755 22.3449C62.4773 21.9675 62.2351 21.5402 62.0286 21.063C61.8221 20.5859 61.6155 20.0767 61.409 19.539L55.7152 5.60885C55.6155 5.35603 55.5158 5.10677 55.4125 4.86107C55.3092 4.61537 55.2238 4.35186 55.1526 4.07055C55.0813 3.78568 55.0457 3.54711 55.0457 3.35126C55.0457 2.85274 55.2701 2.39694 55.7152 1.98744C56.1603 1.57794 56.7194 1.37141 57.3959 1.37141C58.222 1.37141 58.806 1.59931 59.1514 2.05154C59.4933 2.50733 59.8458 3.23374 60.2054 4.23079L60.2019 4.22723Z" fill="white"/>
<path d="M65.5074 24.6098C64.6813 24.6098 63.9513 24.4531 63.3459 24.1433C62.7477 23.8406 62.2563 23.4276 61.8824 22.9219C61.562 22.4839 61.2771 21.989 61.0421 21.4406C60.8284 20.9456 60.6148 20.4222 60.4082 19.8774L54.7215 5.96505C54.6218 5.70155 54.5221 5.46297 54.4224 5.22795C54.3013 4.93952 54.1981 4.62616 54.1126 4.29144C54.02 3.92823 53.9773 3.61843 53.9773 3.34068C53.9773 2.57154 54.3192 1.84869 54.9708 1.25402C55.6224 0.655795 56.4379 0.353121 57.3957 0.353121C58.8735 0.353121 59.6391 0.95491 60.0165 1.45699C60.4225 1.99824 60.8142 2.79231 61.2094 3.88906L65.6178 15.6186L70.0475 3.78224C70.3431 2.98817 70.5603 2.44336 70.717 2.11576C70.9306 1.66709 71.2724 1.2647 71.7389 0.926416C72.2552 0.548964 72.9247 0.356686 73.7294 0.356686C74.3241 0.356686 74.8832 0.491993 75.3959 0.762619C75.9087 1.03325 76.3218 1.40002 76.6173 1.85581C76.9235 2.32584 77.0802 2.81724 77.0802 3.31932C77.0802 3.61487 77.0375 3.93179 76.952 4.25939C76.8772 4.55139 76.7811 4.83625 76.6672 5.114C76.571 5.34902 76.4749 5.5876 76.3823 5.83686L70.5816 19.9059C70.3822 20.4293 70.1686 20.9563 69.9585 21.4513C69.7235 22.0032 69.4422 22.5017 69.1252 22.929C68.7585 23.4204 68.2742 23.8264 67.6795 24.1362C67.0706 24.4531 66.3406 24.6133 65.511 24.6133L65.5074 24.6098ZM57.3993 2.37926C57.004 2.37926 56.7085 2.48252 56.4628 2.71041C56.153 2.99528 56.1174 3.2125 56.1174 3.35138C56.1174 3.41547 56.1281 3.56859 56.1957 3.83565C56.2527 4.07067 56.3239 4.28788 56.4094 4.48373C56.5162 4.74011 56.623 4.99649 56.7227 5.26L62.4094 19.1723C62.616 19.71 62.8189 20.2085 63.0219 20.6786C63.1964 21.0845 63.4029 21.4513 63.6344 21.7646C63.816 22.0139 64.0546 22.2062 64.3572 22.3629C64.6492 22.5124 65.0374 22.5872 65.5074 22.5872C65.9774 22.5872 66.3584 22.5088 66.6504 22.3593C66.9602 22.199 67.1953 22.0032 67.3769 21.7611C67.6012 21.4584 67.8042 21.0987 67.9786 20.6857C68.1816 20.2156 68.3846 19.71 68.584 19.1866L74.3846 5.114C74.4772 4.87542 74.5769 4.6226 74.6766 4.3769C74.7585 4.17749 74.8262 3.97452 74.8796 3.76443C74.9223 3.59707 74.9473 3.44395 74.9473 3.3122C74.9473 3.19113 74.901 3.05938 74.8048 2.91339C74.7016 2.75315 74.5556 2.62496 74.3633 2.52525C74.171 2.42199 73.9609 2.37214 73.733 2.37214C73.4161 2.37214 73.1811 2.42198 73.0493 2.51812C72.8642 2.65344 72.736 2.79588 72.6683 2.93832C72.5793 3.12348 72.4048 3.5401 72.0665 4.45168L65.6285 21.6542L59.2011 4.54426C58.7987 3.42259 58.4818 2.88489 58.2895 2.62851C58.1613 2.45759 57.8622 2.36857 57.4029 2.36857L57.3993 2.37926Z" fill="white"/>
<path d="M114.188 1.30459H107.722V22.5274H114.188V1.30459Z" fill="white"/>
<path d="M132.143 1.30459H125.677V13.7142H132.143V1.30459Z" fill="white"/>
<mask id="mask3_318_4442" style="mask-type:luminance" maskUnits="userSpaceOnUse" x="107" y="1" width="26" height="15">
<path d="M132.738 1.30851H107.004V15.73H132.738V1.30851Z" fill="white"/>
</mask>
<g mask="url(#mask3_318_4442)">
<path d="M119.923 13.5731C113.239 13.5731 107.802 8.42406 107.802 2.09639C107.802 -4.23127 113.239 -9.38028 119.923 -9.38028C126.607 -9.38028 132.044 -4.23127 132.044 2.09639C132.044 8.42406 126.607 13.5731 119.923 13.5731ZM119.923 -3.44432C116.693 -3.44432 114.069 -0.958831 114.069 2.09639C114.069 5.15162 116.693 7.63711 119.923 7.63711C123.153 7.63711 125.777 5.15162 125.777 2.09639C125.777 -0.958831 123.153 -3.44432 119.923 -3.44432Z" fill="white"/>
</g>
<path d="M128.906 22.4856C131.02 22.4856 132.734 20.8627 132.734 18.8607C132.734 16.8587 131.02 15.2357 128.906 15.2357C126.792 15.2357 125.078 16.8587 125.078 18.8607C125.078 20.8627 126.792 22.4856 128.906 22.4856Z" fill="white"/>
</svg>
