<svg width="24" height="24" viewBox="0 0 24 24" fill="none" xmlns="http://www.w3.org/2000/svg">
<mask id="mask0_0_84" style="mask-type:alpha" maskUnits="userSpaceOnUse" x="1" y="1" width="22" height="22">
<ellipse cx="11.9999" cy="11.9998" rx="11" ry="10.9998" fill="#D9D9D9"/>
</mask>
<g mask="url(#mask0_0_84)">
<rect width="23.9999" height="23.9995" fill="#FFB37C"/>
</g>
<path d="M11.4472 6.05987C11.6215 5.98312 11.8099 5.94356 12.0003 5.94373C12.1906 5.94377 12.3788 5.98348 12.5529 6.06033C12.727 6.13717 12.8832 6.24945 13.0115 6.39002C13.1398 6.53059 13.2374 6.69636 13.298 6.87674C13.3587 7.05713 13.3811 7.24818 13.3638 7.4377L12.8178 13.4466C12.7966 13.6486 12.7013 13.8356 12.5503 13.9715C12.3994 14.1075 12.2034 14.1827 12.0003 14.1827C11.7972 14.1827 11.6012 14.1075 11.4503 13.9715C11.2993 13.8356 11.2041 13.6486 11.1828 13.4466L10.6353 7.4377C10.618 7.24805 10.6405 7.05688 10.7012 6.87639C10.7619 6.6959 10.8597 6.53006 10.9881 6.38947C11.1166 6.24888 11.2729 6.13662 11.4472 6.05987Z" fill="white"/>
<path d="M13.3088 16.7473C13.3088 17.4699 12.723 18.0557 12.0004 18.0557C11.2777 18.0557 10.6919 17.4699 10.6919 16.7473C10.6919 16.0246 11.2777 15.4388 12.0004 15.4388C12.723 15.4388 13.3088 16.0246 13.3088 16.7473Z" fill="white"/>
</svg>
