<svg width="28" height="28" viewBox="0 0 28 28" fill="none" xmlns="http://www.w3.org/2000/svg">
<mask id="mask0_318_4721" style="mask-type:alpha" maskUnits="userSpaceOnUse" x="0" y="0" width="28" height="28">
<rect width="27.9999" height="27.9999" fill="#D9D9D9"/>
</mask>
<g mask="url(#mask0_318_4721)">
<path d="M12.8333 22.6623V14.6706L5.8333 10.6165V18.6081L12.8333 22.6623ZM15.1666 22.6623L22.1666 18.6081V10.6165L15.1666 14.6706V22.6623ZM12.8333 25.3456L4.66663 20.6498C4.29719 20.4359 4.01038 20.1539 3.80622 19.8039C3.60205 19.4539 3.49997 19.065 3.49997 18.6373V9.3623C3.49997 8.93452 3.60205 8.54563 3.80622 8.19563C4.01038 7.84563 4.29719 7.56369 4.66663 7.3498L12.8333 2.65398C13.2027 2.44009 13.5916 2.33315 13.9999 2.33315C14.4083 2.33315 14.7972 2.44009 15.1666 2.65398L23.3332 7.3498C23.7027 7.56369 23.9895 7.84563 24.1937 8.19563C24.3978 8.54563 24.4999 8.93452 24.4999 9.3623V18.6373C24.4999 19.065 24.3978 19.4539 24.1937 19.8039C23.9895 20.1539 23.7027 20.4359 23.3332 20.6498L15.1666 25.3456C14.7972 25.5595 14.4083 25.6664 13.9999 25.6664C13.5916 25.6664 13.2027 25.5595 12.8333 25.3456ZM18.6666 9.94563L20.9124 8.6623L13.9999 4.66647L11.7249 5.97897L18.6666 9.94563ZM13.9999 12.6581L16.2749 11.3456L9.36245 7.3498L7.08746 8.6623L13.9999 12.6581Z" fill="#01A367"/>
</g>
</svg>
