<svg width="29" height="29" viewBox="0 0 29 29" fill="none" xmlns="http://www.w3.org/2000/svg">
<path d="M6.34375 5.4375C5.14199 5.4375 3.98945 5.9149 3.13967 6.76467C2.2899 7.61445 1.8125 8.76699 1.8125 9.96875V10.875H27.1875V9.96875C27.1875 8.76699 26.7101 7.61445 25.8603 6.76467C25.0106 5.9149 23.858 5.4375 22.6562 5.4375H6.34375ZM27.1875 12.6875H1.8125V19.0312C1.8125 20.233 2.2899 21.3856 3.13967 22.2353C3.98945 23.0851 5.14199 23.5625 6.34375 23.5625H22.6562C23.858 23.5625 25.0106 23.0851 25.8603 22.2353C26.7101 21.3856 27.1875 20.233 27.1875 19.0312V12.6875ZM19.0312 18.125H22.6562C22.8966 18.125 23.1271 18.2205 23.2971 18.3904C23.467 18.5604 23.5625 18.7909 23.5625 19.0312C23.5625 19.2716 23.467 19.5021 23.2971 19.6721C23.1271 19.842 22.8966 19.9375 22.6562 19.9375H19.0312C18.7909 19.9375 18.5604 19.842 18.3904 19.6721C18.2205 19.5021 18.125 19.2716 18.125 19.0312C18.125 18.7909 18.2205 18.5604 18.3904 18.3904C18.5604 18.2205 18.7909 18.125 19.0312 18.125Z" fill="white"/>
</svg>
