<svg width="32" height="32" viewBox="0 0 32 32" fill="none" xmlns="http://www.w3.org/2000/svg">
<g clip-path="url(#clip0_0_162)">
<circle cx="16" cy="16" r="15" fill="white" stroke="#01A367" stroke-width="2"/>
<path d="M23.0834 11H13.9167C13.2264 11 12.6667 11.5596 12.6667 12.25V17.25C12.6667 17.9404 13.2264 18.5 13.9167 18.5H23.0834C23.7738 18.5 24.3334 17.9404 24.3334 17.25V12.25C24.3334 11.5596 23.7738 11 23.0834 11Z" stroke="#01A367" stroke-width="1.5" stroke-linejoin="round"/>
<path d="M16 13.5V16M21 13.5V16" stroke="#01A367" stroke-width="1.5" stroke-linecap="round"/>
<path d="M21.0001 11V8.5H16.0001V11M24.3334 21H11.0001C10.7791 21 10.5671 20.9122 10.4108 20.7559C10.2545 20.5996 10.1667 20.3877 10.1667 20.1667V10.5833C10.1667 10.3623 10.079 10.1504 9.92267 9.99408C9.76639 9.8378 9.55443 9.75 9.33341 9.75H7.66675M13.9167 23.5C13.5852 23.5 13.2673 23.3683 13.0329 23.1339C12.7984 22.8995 12.6667 22.5815 12.6667 22.25V21H15.1667V22.25C15.1667 22.5815 15.0351 22.8995 14.8006 23.1339C14.5662 23.3683 14.2483 23.5 13.9167 23.5ZM21.4167 23.5C21.0852 23.5 20.7673 23.3683 20.5329 23.1339C20.2984 22.8995 20.1667 22.5815 20.1667 22.25V21H22.6667V22.25C22.6667 22.5815 22.5351 22.8995 22.3006 23.1339C22.0662 23.3683 21.7483 23.5 21.4167 23.5Z" stroke="#01A367" stroke-width="1.5" stroke-linecap="round" stroke-linejoin="round"/>
</g>
<defs>
<clipPath id="clip0_0_162">
<rect width="32" height="32" fill="white"/>
</clipPath>
</defs>
</svg>
