<svg width="28" height="28" viewBox="0 0 28 28" fill="none" xmlns="http://www.w3.org/2000/svg">
<mask id="mask0_0_87" style="mask-type:alpha" maskUnits="userSpaceOnUse" x="0" y="0" width="28" height="28">
<rect width="28.0002" height="28.0002" fill="#D9D9D9"/>
</mask>
<g mask="url(#mask0_0_87)">
<path d="M6.81827 22.8176C5.90765 22.8176 5.13449 22.4991 4.49881 21.8622C3.86313 21.2253 3.54529 20.4519 3.54529 19.5419H2.62542C2.32664 19.5419 2.07619 19.4409 1.87408 19.2388C1.67198 19.0367 1.57092 18.7862 1.57092 18.4875V7.35924C1.57092 6.76992 1.77509 6.27109 2.18343 5.86275C2.59176 5.45441 3.09059 5.25025 3.67989 5.25025H17.4556C18.0356 5.25025 18.5321 5.45676 18.9451 5.86978C19.3581 6.28278 19.5646 6.77927 19.5646 7.35924V9.69259H21.6062C21.9402 9.69259 22.2565 9.76728 22.5553 9.91665C22.854 10.066 23.1001 10.2725 23.2934 10.5362L26.2191 14.4535C26.2894 14.5414 26.3421 14.6381 26.3773 14.7435C26.4124 14.849 26.43 14.9632 26.43 15.0862V18.4875C26.43 18.7862 26.3289 19.0367 26.1268 19.2388C25.9247 19.4409 25.6743 19.5419 25.3755 19.5419H24.321C24.321 20.4519 24.0023 21.2253 23.3649 21.8622C22.7274 22.4991 21.9534 22.8176 21.0427 22.8176C20.1321 22.8176 19.359 22.4991 18.7233 21.8622C18.0876 21.2253 17.7697 20.4519 17.7697 19.5419H10.0966C10.0966 20.4543 9.77784 21.2284 9.14039 21.8641C8.50296 22.4997 7.72892 22.8176 6.81827 22.8176ZM6.82093 21.0676C7.24871 21.0676 7.60993 20.9203 7.90459 20.6256C8.19925 20.331 8.34659 19.9697 8.34659 19.5419C8.34659 19.1142 8.19925 18.7529 7.90459 18.4583C7.60993 18.1636 7.24871 18.0163 6.82093 18.0163C6.39313 18.0163 6.0319 18.1636 5.73723 18.4583C5.44257 18.7529 5.29524 19.1142 5.29524 19.5419C5.29524 19.9697 5.44257 20.331 5.73723 20.6256C6.0319 20.9203 6.39313 21.0676 6.82093 21.0676ZM3.32091 17.792H4.1645C4.41277 17.3597 4.77136 16.9974 5.24029 16.7049C5.70921 16.4125 6.23609 16.2663 6.82093 16.2663C7.39081 16.2663 7.91394 16.4106 8.39034 16.6993C8.86673 16.988 9.22907 17.3522 9.47736 17.792H17.8146V7.35924C17.8146 7.25454 17.781 7.16852 17.7136 7.1012C17.6463 7.03389 17.5603 7.00023 17.4556 7.00023H3.67989C3.59015 7.00023 3.50788 7.03762 3.43308 7.11241C3.3583 7.18721 3.32091 7.26949 3.32091 7.35924V17.792ZM21.0454 21.0676C21.4732 21.0676 21.8344 20.9203 22.1291 20.6256C22.4237 20.331 22.5711 19.9697 22.5711 19.5419C22.5711 19.1142 22.4237 18.7529 22.1291 18.4583C21.8344 18.1636 21.4732 18.0163 21.0454 18.0163C20.6176 18.0163 20.2564 18.1636 19.9617 18.4583C19.667 18.7529 19.5197 19.1142 19.5197 19.5419C19.5197 19.9697 19.667 20.331 19.9617 20.6256C20.2564 20.9203 20.6176 21.0676 21.0454 21.0676ZM19.5646 15.4586H24.7922L21.8755 11.5884C21.8381 11.5435 21.7951 11.508 21.7465 11.4818C21.6979 11.4556 21.6436 11.4425 21.5838 11.4425H19.5646V15.4586Z" fill="white"/>
</g>
</svg>
