<svg width="32" height="32" viewBox="0 0 32 32" fill="none" xmlns="http://www.w3.org/2000/svg">
<g clip-path="url(#clip0_0_108)">
<circle cx="16" cy="16" r="15" fill="white" stroke="#01A367" stroke-width="2"/>
<path d="M16.4159 14.5425C16.4159 14.3767 16.4817 14.2177 16.5989 14.1005C16.7161 13.9833 16.8751 13.9175 17.0409 13.9175H19.9575C20.1233 13.9175 20.2823 13.9833 20.3995 14.1005C20.5167 14.2177 20.5825 14.3767 20.5825 14.5425C20.5825 14.7082 20.5167 14.8672 20.3995 14.9844C20.2823 15.1016 20.1233 15.1675 19.9575 15.1675H17.0409C16.8751 15.1675 16.7161 15.1016 16.5989 14.9844C16.4817 14.8672 16.4159 14.7082 16.4159 14.5425ZM17.0409 18.5008C16.8751 18.5008 16.7161 18.5667 16.5989 18.6839C16.4817 18.8011 16.4159 18.9601 16.4159 19.1258C16.4159 19.2916 16.4817 19.4505 16.5989 19.5678C16.7161 19.685 16.8751 19.7508 17.0409 19.7508H19.9575C20.1233 19.7508 20.2823 19.685 20.3995 19.5678C20.5167 19.4505 20.5825 19.2916 20.5825 19.1258C20.5825 18.9601 20.5167 18.8011 20.3995 18.6839C20.2823 18.5667 20.1233 18.5008 19.9575 18.5008H17.0409ZM14.9825 14.1508C15.0439 14.0936 15.0932 14.0246 15.1273 13.9479C15.1615 13.8713 15.1799 13.7885 15.1813 13.7046C15.1828 13.6207 15.1674 13.5373 15.136 13.4595C15.1045 13.3817 15.0577 13.311 14.9984 13.2516C14.939 13.1923 14.8683 13.1455 14.7905 13.114C14.7127 13.0826 14.6293 13.0672 14.5454 13.0687C14.4615 13.0701 14.3787 13.0885 14.3021 13.1227C14.2254 13.1568 14.1564 13.2061 14.0992 13.2675L12.8742 14.4925L12.4825 14.1008C12.364 13.9904 12.2073 13.9303 12.0454 13.9332C11.8835 13.936 11.729 14.0016 11.6145 14.1161C11.5 14.2306 11.4344 14.3851 11.4315 14.547C11.4287 14.709 11.4888 14.8657 11.5992 14.9841L12.4325 15.8175C12.5497 15.9345 12.7086 16.0003 12.8742 16.0003C13.0398 16.0003 13.1987 15.9345 13.3159 15.8175L14.9825 14.1508ZM14.9825 17.8508C15.0996 17.968 15.1653 18.1269 15.1653 18.2925C15.1653 18.4581 15.0996 18.617 14.9825 18.7341L13.3159 20.4008C13.1987 20.5179 13.0398 20.5836 12.8742 20.5836C12.7086 20.5836 12.5497 20.5179 12.4325 20.4008L11.5992 19.5675C11.5378 19.5103 11.4885 19.4413 11.4544 19.3646C11.4202 19.2879 11.4018 19.2052 11.4004 19.1212C11.3989 19.0373 11.4143 18.954 11.4458 18.8761C11.4772 18.7983 11.524 18.7276 11.5833 18.6683C11.6427 18.6089 11.7134 18.5621 11.7912 18.5307C11.869 18.4993 11.9524 18.4838 12.0363 18.4853C12.1202 18.4868 12.203 18.5052 12.2796 18.5393C12.3563 18.5735 12.4253 18.6227 12.4825 18.6841L12.8742 19.0758L14.0992 17.8508C14.2164 17.7338 14.3752 17.668 14.5409 17.668C14.7065 17.668 14.8653 17.7338 14.9825 17.8508ZM19.3275 9.40415C19.2926 8.93208 19.0804 8.4907 18.7336 8.16858C18.3867 7.84646 17.9309 7.66745 17.4575 7.66748H14.5409C14.0797 7.66749 13.6346 7.83749 13.2909 8.14496C12.9471 8.45243 12.7288 8.8758 12.6775 9.33415H11.2075C10.7102 9.33415 10.2333 9.53169 9.88169 9.88332C9.53006 10.235 9.33252 10.7119 9.33252 11.2091V22.4591C9.33252 22.9564 9.53006 23.4333 9.88169 23.785C10.2333 24.1366 10.7102 24.3341 11.2075 24.3341H20.7909C21.0371 24.3341 21.2809 24.2856 21.5084 24.1914C21.7359 24.0972 21.9426 23.9591 22.1167 23.785C22.2908 23.6109 22.4289 23.4042 22.5231 23.1767C22.6174 22.9492 22.6659 22.7054 22.6659 22.4591V11.2091C22.6659 10.9629 22.6174 10.7191 22.5231 10.4916C22.4289 10.2641 22.2908 10.0574 22.1167 9.88332C21.9426 9.70921 21.7359 9.5711 21.5084 9.47687C21.2809 9.38265 21.0371 9.33415 20.7909 9.33415H19.3209L19.3275 9.40415ZM19.3275 9.41415L19.3325 9.54248C19.3325 9.49915 19.33 9.45665 19.3275 9.41415ZM14.5409 11.4175H17.4575C18.1075 11.4175 18.68 11.0866 19.0167 10.5841H20.7909C20.9566 10.5841 21.1156 10.65 21.2328 10.7672C21.35 10.8844 21.4159 11.0434 21.4159 11.2091V22.4591C21.4159 22.6249 21.35 22.7839 21.2328 22.9011C21.1156 23.0183 20.9566 23.0841 20.7909 23.0841H11.2075C11.0418 23.0841 10.8828 23.0183 10.7656 22.9011C10.6484 22.7839 10.5825 22.6249 10.5825 22.4591V11.2091C10.5825 11.0434 10.6484 10.8844 10.7656 10.7672C10.8828 10.65 11.0418 10.5841 11.2075 10.5841H12.9817C13.3184 11.0866 13.8909 11.4175 14.5409 11.4175ZM14.5409 8.91748H17.4575C17.6233 8.91748 17.7823 8.98333 17.8995 9.10054C18.0167 9.21775 18.0825 9.37672 18.0825 9.54248C18.0825 9.70824 18.0167 9.86721 17.8995 9.98442C17.7823 10.1016 17.6233 10.1675 17.4575 10.1675H14.5409C14.3751 10.1675 14.2161 10.1016 14.0989 9.98442C13.9817 9.86721 13.9159 9.70824 13.9159 9.54248C13.9159 9.37672 13.9817 9.21775 14.0989 9.10054C14.2161 8.98333 14.3751 8.91748 14.5409 8.91748Z" fill="#01A367"/>
</g>
<defs>
<clipPath id="clip0_0_108">
<rect width="32" height="32" fill="white"/>
</clipPath>
</defs>
</svg>
