<svg width="196" height="180" viewBox="0 0 196 180" fill="none" xmlns="http://www.w3.org/2000/svg">
<path d="M15.265 162.768L99.7216 177.999L93.3714 81.7675L171.008 76.648L179.348 65.7033L161.278 54.1148L179.348 15.3058" stroke="#53FF8F" stroke-width="3" stroke-linecap="round" stroke-linejoin="round"/>
<path d="M93.17 81.7679V85.9218V92.1526L99.5202 176.614L55.0693 169.691L14.4285 162.768" stroke="#202020" stroke-linecap="round" stroke-linejoin="round" stroke-dasharray="4 4"/>
<path d="M93.1771 81.7679L170.177 76.6498L178.517 65.7051L160.447 54.1166L181.444 9.76764" stroke="#202020" stroke-linecap="round" stroke-linejoin="round" stroke-dasharray="4 4"/>
<path d="M185.5 21.0001C191.299 21.0001 196 16.2987 196 10.5001C196 4.70105 191.299 0 185.5 0C179.701 0 175 4.70105 175 10.5001C175 16.2987 179.701 21.0001 185.5 21.0001Z" fill="#53FF8F"/>
<path d="M12.4616 171.769C19.3439 171.769 24.9232 166.19 24.9232 159.308C24.9232 152.425 19.3439 146.846 12.4616 146.846C5.57926 146.846 0 152.425 0 159.308C0 166.19 5.57926 171.769 12.4616 171.769Z" fill="#53FF8F"/>
<g clip-path="url(#clip0_318_4937)">
<path d="M17.9355 155.043C18.2262 154.287 17.4835 153.544 16.7277 153.835L6.13778 157.908C5.29105 158.234 5.3581 159.453 6.23543 159.684L10.6037 160.834C10.7667 160.877 10.8938 161.004 10.9367 161.167L12.0863 165.535C12.3171 166.412 13.5368 166.479 13.8624 165.633L17.9355 155.043Z" fill="#3B3F34"/>
</g>
<defs>
<clipPath id="clip0_318_4937">
<rect width="12.4615" height="12.4615" fill="white" transform="translate(5.53861 153.77)"/>
</clipPath>
</defs>
</svg>
