<svg width="27" height="27" viewBox="0 0 27 27" fill="none" xmlns="http://www.w3.org/2000/svg">
<path d="M17.7188 16.875C17.495 16.875 17.2804 16.9639 17.1221 17.1221C16.9639 17.2804 16.875 17.495 16.875 17.7188C16.875 17.9425 16.9639 18.1571 17.1221 18.3154C17.2804 18.4736 17.495 18.5625 17.7188 18.5625H21.0938C21.3175 18.5625 21.5321 18.4736 21.6904 18.3154C21.8486 18.1571 21.9375 17.9425 21.9375 17.7188C21.9375 17.495 21.8486 17.2804 21.6904 17.1221C21.5321 16.9639 21.3175 16.875 21.0938 16.875H17.7188ZM1.6875 9.28125C1.6875 8.16237 2.13197 7.08931 2.92314 6.29814C3.71431 5.50697 4.78737 5.0625 5.90625 5.0625H21.0938C22.2126 5.0625 23.2857 5.50697 24.0769 6.29814C24.868 7.08931 25.3125 8.16237 25.3125 9.28125V17.7188C25.3125 18.8376 24.868 19.9107 24.0769 20.7019C23.2857 21.493 22.2126 21.9375 21.0938 21.9375H5.90625C4.78737 21.9375 3.71431 21.493 2.92314 20.7019C2.13197 19.9107 1.6875 18.8376 1.6875 17.7188V9.28125ZM23.625 10.125V9.28125C23.625 8.60992 23.3583 7.96609 22.8836 7.49139C22.4089 7.01668 21.7651 6.75 21.0938 6.75H5.90625C5.23492 6.75 4.59109 7.01668 4.11639 7.49139C3.64168 7.96609 3.375 8.60992 3.375 9.28125V10.125H23.625ZM3.375 11.8125V17.7188C3.375 18.3901 3.64168 19.0339 4.11639 19.5086C4.59109 19.9833 5.23492 20.25 5.90625 20.25H21.0938C21.7651 20.25 22.4089 19.9833 22.8836 19.5086C23.3583 19.0339 23.625 18.3901 23.625 17.7188V11.8125H3.375Z" fill="white"/>
</svg>
