<svg width="23" height="23" viewBox="0 0 23 23" fill="none" xmlns="http://www.w3.org/2000/svg">
<g clip-path="url(#clip0_318_3053)">
<path d="M11.4319 0.719248C6.76003 0.719248 2.77097 3.738 1.29754 7.90675H21.6382C20.1288 3.738 16.1397 0.719248 11.4319 0.719248Z" fill="#F26600"/>
<path d="M11.4319 22.2817C16.1397 22.2817 20.1288 19.2989 21.6022 15.0942H1.29754C2.77097 19.2989 6.76003 22.2817 11.4319 22.2817Z" fill="#4A9607"/>
<path d="M1.28984 7.90575C0.894527 9.01981 0.678902 10.2417 0.678902 11.4995C0.678902 12.7573 0.894527 13.9792 1.28984 15.0933H21.6305C22.0258 13.9792 22.2414 12.7573 22.2414 11.4995C22.2414 10.2417 22.0258 9.01981 21.6305 7.90575H1.28984Z" fill="white"/>
<path d="M11.4303 14.375C13.0181 14.375 14.3053 13.0878 14.3053 11.5C14.3053 9.91218 13.0181 8.625 11.4303 8.625C9.84245 8.625 8.55527 9.91218 8.55527 11.5C8.55527 13.0878 9.84245 14.375 11.4303 14.375Z" fill="#428BC1"/>
<path d="M11.43 14.0159C12.8194 14.0159 13.9456 12.8896 13.9456 11.5002C13.9456 10.1109 12.8194 8.98462 11.43 8.98462C10.0407 8.98462 8.91439 10.1109 8.91439 11.5002C8.91439 12.8896 10.0407 14.0159 11.43 14.0159Z" fill="white"/>
<path d="M10.5017 9.34699C10.6009 9.34699 10.6814 9.26654 10.6814 9.1673C10.6814 9.06806 10.6009 8.98761 10.5017 8.98761C10.4025 8.98761 10.322 9.06806 10.322 9.1673C10.322 9.26654 10.4025 9.34699 10.5017 9.34699Z" fill="#428BC1"/>
<path d="M9.92291 9.66975C10.0221 9.66975 10.1026 9.5893 10.1026 9.49007C10.1026 9.39083 10.0221 9.31038 9.92291 9.31038C9.82367 9.31038 9.74322 9.39083 9.74322 9.49007C9.74322 9.5893 9.82367 9.66975 9.92291 9.66975Z" fill="#428BC1"/>
<path d="M9.4537 10.139C9.55294 10.139 9.63339 10.0585 9.63339 9.95927C9.63339 9.86003 9.55294 9.77958 9.4537 9.77958C9.35447 9.77958 9.27402 9.86003 9.27402 9.95927C9.27402 10.0585 9.35447 10.139 9.4537 10.139Z" fill="#428BC1"/>
<path d="M9.13443 10.7128C9.23366 10.7128 9.31411 10.6323 9.31411 10.5331C9.31411 10.4338 9.23366 10.3534 9.13443 10.3534C9.03519 10.3534 8.95474 10.4338 8.95474 10.5331C8.95474 10.6323 9.03519 10.7128 9.13443 10.7128Z" fill="#428BC1"/>
<path d="M8.95461 11.3593C9.05385 11.3593 9.1343 11.2788 9.1343 11.1796C9.1343 11.0804 9.05385 10.9999 8.95461 10.9999C8.85538 10.9999 8.77493 11.0804 8.77493 11.1796C8.77493 11.2788 8.85538 11.3593 8.95461 11.3593Z" fill="#428BC1"/>
<path d="M8.95461 12.0048C9.05385 12.0048 9.1343 11.9244 9.1343 11.8251C9.1343 11.7259 9.05385 11.6454 8.95461 11.6454C8.85538 11.6454 8.77493 11.7259 8.77493 11.8251C8.77493 11.9244 8.85538 12.0048 8.95461 12.0048Z" fill="#428BC1"/>
<path d="M9.13443 12.6543C9.23366 12.6543 9.31411 12.5739 9.31411 12.4746C9.31411 12.3754 9.23366 12.295 9.13443 12.295C9.03519 12.295 8.95474 12.3754 8.95474 12.4746C8.95474 12.5739 9.03519 12.6543 9.13443 12.6543Z" fill="#428BC1"/>
<path d="M9.4537 13.2281C9.55294 13.2281 9.63339 13.1477 9.63339 13.0485C9.63339 12.9492 9.55294 12.8688 9.4537 12.8688C9.35447 12.8688 9.27402 12.9492 9.27402 13.0485C9.27402 13.1477 9.35447 13.2281 9.4537 13.2281Z" fill="#428BC1"/>
<path d="M9.92291 13.6944C10.0221 13.6944 10.1026 13.6139 10.1026 13.5147C10.1026 13.4154 10.0221 13.335 9.92291 13.335C9.82367 13.335 9.74322 13.4154 9.74322 13.5147C9.74322 13.6139 9.82367 13.6944 9.92291 13.6944Z" fill="#428BC1"/>
<path d="M10.5017 14.0191C10.6009 14.0191 10.6814 13.9387 10.6814 13.8394C10.6814 13.7402 10.6009 13.6597 10.5017 13.6597C10.4025 13.6597 10.322 13.7402 10.322 13.8394C10.322 13.9387 10.4025 14.0191 10.5017 14.0191Z" fill="#428BC1"/>
<path d="M11.1109 14.1616C11.2101 14.1616 11.2906 14.0811 11.2906 13.9819C11.2906 13.8826 11.2101 13.8022 11.1109 13.8022C11.0116 13.8022 10.9312 13.8826 10.9312 13.9819C10.9312 14.0811 11.0116 14.1616 11.1109 14.1616Z" fill="#428BC1"/>
<path d="M11.6101 14.0178C11.6101 13.91 11.682 13.8381 11.7538 13.8022C11.8616 13.8022 11.9335 13.8741 11.9695 13.9459C11.9695 14.0538 11.8976 14.1256 11.8257 14.1616C11.682 14.1975 11.6101 14.1256 11.6101 14.0178Z" fill="#428BC1"/>
<path d="M12.4084 14.0191C12.5076 14.0191 12.5881 13.9387 12.5881 13.8394C12.5881 13.7402 12.5076 13.6597 12.4084 13.6597C12.3092 13.6597 12.2287 13.7402 12.2287 13.8394C12.2287 13.9387 12.3092 14.0191 12.4084 14.0191Z" fill="#428BC1"/>
<path d="M12.9777 13.6944C13.077 13.6944 13.1574 13.6139 13.1574 13.5147C13.1574 13.4154 13.077 13.335 12.9777 13.335C12.8785 13.335 12.798 13.4154 12.798 13.5147C12.798 13.6139 12.8785 13.6944 12.9777 13.6944Z" fill="#428BC1"/>
<path d="M13.4469 13.2281C13.5462 13.2281 13.6266 13.1477 13.6266 13.0485C13.6266 12.9492 13.5462 12.8688 13.4469 12.8688C13.3477 12.8688 13.2672 12.9492 13.2672 13.0485C13.2672 13.1477 13.3477 13.2281 13.4469 13.2281Z" fill="#428BC1"/>
<path d="M13.7662 12.6543C13.8654 12.6543 13.9459 12.5739 13.9459 12.4746C13.9459 12.3754 13.8654 12.295 13.7662 12.295C13.667 12.295 13.5865 12.3754 13.5865 12.4746C13.5865 12.5739 13.667 12.6543 13.7662 12.6543Z" fill="#428BC1"/>
<path d="M13.946 12.0048C14.0453 12.0048 14.1257 11.9244 14.1257 11.8251C14.1257 11.7259 14.0453 11.6454 13.946 11.6454C13.8468 11.6454 13.7663 11.7259 13.7663 11.8251C13.7663 11.9244 13.8468 12.0048 13.946 12.0048Z" fill="#428BC1"/>
<path d="M13.9521 11.3593C13.8443 11.3593 13.7724 11.2874 13.7364 11.2155C13.7364 11.1077 13.8083 11.0359 13.8802 10.9999C13.988 10.9999 14.0599 11.0718 14.0958 11.1437C14.1318 11.2515 14.0599 11.3234 13.9521 11.3593Z" fill="#428BC1"/>
<path d="M13.7662 10.7128C13.8654 10.7128 13.9459 10.6323 13.9459 10.5331C13.9459 10.4338 13.8654 10.3534 13.7662 10.3534C13.667 10.3534 13.5865 10.4338 13.5865 10.5331C13.5865 10.6323 13.667 10.7128 13.7662 10.7128Z" fill="#428BC1"/>
<path d="M13.4469 10.139C13.5462 10.139 13.6266 10.0585 13.6266 9.95927C13.6266 9.86003 13.5462 9.77958 13.4469 9.77958C13.3477 9.77958 13.2672 9.86003 13.2672 9.95927C13.2672 10.0585 13.3477 10.139 13.4469 10.139Z" fill="#428BC1"/>
<path d="M12.9777 9.66975C13.077 9.66975 13.1574 9.5893 13.1574 9.49007C13.1574 9.39083 13.077 9.31038 12.9777 9.31038C12.8785 9.31038 12.798 9.39083 12.798 9.49007C12.798 9.5893 12.8785 9.66975 12.9777 9.66975Z" fill="#428BC1"/>
<path d="M12.5843 9.23894C12.5484 9.34675 12.4406 9.38269 12.3327 9.34675C12.2249 9.31081 12.189 9.203 12.2249 9.09518C12.2609 8.98737 12.3687 8.95144 12.4765 8.98737C12.5843 9.05925 12.6202 9.16706 12.5843 9.23894ZM11.9374 9.02331C11.9374 9.13112 11.8296 9.203 11.7218 9.16706C11.614 9.16706 11.5421 9.05925 11.5781 8.95144C11.5781 8.84362 11.6859 8.77175 11.7937 8.80769C11.9015 8.84362 11.9734 8.95144 11.9374 9.02331ZM11.2906 8.98737C11.2906 9.09519 11.2187 9.16706 11.1468 9.203C11.039 9.203 10.9671 9.13112 10.9312 9.05925C10.9312 8.95144 11.0031 8.87956 11.0749 8.84362C11.1827 8.80769 11.2906 8.87956 11.2906 8.98737Z" fill="#428BC1"/>
<path d="M11.4304 12.0432C11.7281 12.0432 11.9695 11.8018 11.9695 11.5041C11.9695 11.2064 11.7281 10.965 11.4304 10.965C11.1327 10.965 10.8913 11.2064 10.8913 11.5041C10.8913 11.8018 11.1327 12.0432 11.4304 12.0432Z" fill="#428BC1"/>
<path d="M11.4381 8.98761L11.3662 10.5329L11.4381 11.5032L11.5459 10.5329L11.4381 8.98761ZM10.7912 9.05949L11.1146 10.6048L11.4381 11.5032L11.2943 10.5329L10.7912 9.05949Z" fill="#428BC1"/>
<path d="M10.1766 9.31038L10.8954 10.7119L11.4344 11.5026L11.0391 10.6041L10.1766 9.31038ZM9.67349 9.70569L10.7157 10.8916L11.4344 11.5026L10.8235 10.7479L9.67349 9.70569Z" fill="#428BC1"/>
<path d="M9.27402 10.2458L10.5678 11.1083L11.4303 11.5036L10.6396 10.9286L9.27402 10.2458Z" fill="#428BC1"/>
<path d="M9.0227 10.8575L10.4961 11.3246L11.4305 11.5043L10.5321 11.1809L9.0227 10.8575ZM8.91489 11.5043L10.4961 11.5762L11.4305 11.5043L10.4961 11.4325L8.91489 11.5043Z" fill="#428BC1"/>
<path d="M9.02447 12.1509L10.5338 11.8274L11.4323 11.504L10.4979 11.6837L9.02447 12.1509ZM9.27603 12.7618L10.6417 12.079L11.4323 11.504L10.5698 11.8993L9.27603 12.7618Z" fill="#428BC1"/>
<path d="M9.67349 13.2649L10.8235 12.2587L11.4344 11.504L10.7157 12.1149L9.67349 13.2649ZM10.1766 13.6962L11.0391 12.3665L11.4344 11.504L10.8954 12.2946L10.1766 13.6962Z" fill="#428BC1"/>
<path d="M10.7912 13.9477L11.2943 12.4743L11.4381 11.504L11.1146 12.4024L10.7912 13.9477ZM11.4381 14.0196L11.5459 12.4743L11.4381 11.504L11.3662 12.4743L11.4381 14.0196ZM12.085 13.9477L11.7975 12.4024L11.4381 11.504L11.6178 12.4743L12.085 13.9477Z" fill="#428BC1"/>
<path d="M12.6881 13.6962L12.0053 12.2946L11.4303 11.504L11.8615 12.4024L12.6881 13.6962ZM13.2271 13.2649L12.185 12.1149L11.4303 11.504L12.0771 12.2587L13.2271 13.2649Z" fill="#428BC1"/>
<path d="M13.6225 12.7621L12.3287 11.8996L11.4303 11.5043L12.2209 12.0793L13.6225 12.7621ZM13.874 12.1512L12.4006 11.684L11.4303 11.5043L12.3646 11.8278L13.874 12.1512ZM13.9459 11.5043L12.4006 11.3965L11.4303 11.5043L12.4006 11.5762L13.9459 11.5043ZM13.874 10.8575L12.3646 11.1809L11.4303 11.5043L12.4006 11.3246L13.874 10.8575Z" fill="#428BC1"/>
<path d="M13.6225 10.2449L12.2209 10.9277L11.4303 11.5027L12.3287 11.1074L13.6225 10.2449ZM13.2271 9.74173L12.0771 10.748L11.4303 11.5027L12.185 10.8917L13.2271 9.74173Z" fill="#428BC1"/>
<path d="M12.6881 9.31038L11.8615 10.6401L11.4303 11.5026L12.0053 10.7119L12.6881 9.31038Z" fill="#428BC1"/>
<path d="M12.1131 9.06033L11.61 10.5338L11.4303 11.5041L11.7896 10.6056L12.1131 9.06033Z" fill="#428BC1"/>
</g>
<defs>
<clipPath id="clip0_318_3053">
<rect width="22.5469" height="22.5469" fill="white" transform="scale(1.0201)"/>
</clipPath>
</defs>
</svg>
