<svg width="356" height="288" viewBox="0 0 356 288" fill="none" xmlns="http://www.w3.org/2000/svg">
<path d="M315.924 203.328H187.292C184.994 203.328 183.122 201.457 183.122 199.158V11.7933C183.122 9.4947 184.994 7.62305 187.292 7.62305H315.924C318.223 7.62305 320.094 9.4947 320.094 11.7933V199.151C320.094 201.45 318.223 203.321 315.924 203.321V203.328ZM187.292 7.80096C185.093 7.80096 183.3 9.59433 183.3 11.7933V199.151C183.3 201.35 185.093 203.143 187.292 203.143H315.924C318.123 203.143 319.917 201.35 319.917 199.151V11.7933C319.917 9.59433 318.123 7.80096 315.924 7.80096H187.292Z" fill="#E0E0E0"/>
<path d="M167.589 203.328H38.9647C36.6661 203.328 34.7944 201.457 34.7944 199.158V11.7933C34.7944 9.4947 36.6661 7.62305 38.9647 7.62305H167.597C169.895 7.62305 171.767 9.4947 171.767 11.7933V199.151C171.767 201.45 169.895 203.321 167.597 203.321L167.589 203.328ZM38.9647 7.80096C36.7657 7.80096 34.9723 9.59433 34.9723 11.7933V199.151C34.9723 201.35 36.7657 203.143 38.9647 203.143H167.597C169.796 203.143 171.589 201.35 171.589 199.151V11.7933C171.589 9.59433 169.796 7.80096 167.597 7.80096H38.9647Z" fill="#E0E0E0"/>
<path d="M48.2075 256.938H36.7783V257.116H48.2075V256.938Z" fill="#E0E0E0"/>
<path d="M159.331 255.008H121.236V255.186H159.331V255.008Z" fill="#E0E0E0"/>
<path d="M74.7145 263.548H48.917V263.726H74.7145V263.548Z" fill="#E0E0E0"/>
<path d="M300 254.917H269.264V255.095H300V254.917Z" fill="#E0E0E0"/>
<path d="M310.842 254.917H306.337V255.095H310.842V254.917Z" fill="#E0E0E0"/>
<path d="M263.388 259.35H225.037V259.528H263.388V259.35Z" fill="#E0E0E0"/>
<path d="M37.859 149.692V115.546H59.0023V123.339H73.093V38.04H100.186V71.616H108.32V54.8493H129.456V136.604H159.267V107.718H177.963V45.0925H201.027V86.8454H222.712V176.792H239.514V132.989H256.857V104.808H275.282V83.1661L295.841 94.0118V151.905H317.525V139.963H346.49V247.48L9.36426 247.644V149.692H37.859Z" fill="#F0F0F0"/>
<path d="M195.754 52.4873H189V60.223H195.754V52.4873Z" fill="#FAFAFA"/>
<path d="M195.754 65.4521H189V73.1878H195.754V65.4521Z" fill="#FAFAFA"/>
<path d="M195.754 78.4326H189V86.1683H195.754V78.4326Z" fill="#FAFAFA"/>
<path d="M195.754 91.4004H189V99.1361H195.754V91.4004Z" fill="#FAFAFA"/>
<path d="M195.754 104.373H189V112.109H195.754V104.373Z" fill="#FAFAFA"/>
<path d="M195.754 117.346H189V125.081H195.754V117.346Z" fill="#FAFAFA"/>
<path d="M195.754 130.32H189V138.056H195.754V130.32Z" fill="#FAFAFA"/>
<path d="M195.754 143.295H189V151.031H195.754V143.295Z" fill="#FAFAFA"/>
<path d="M94.3566 42.125H87.603V49.8607H94.3566V42.125Z" fill="#FAFAFA"/>
<path d="M94.3566 55.0986H87.603V62.8343H94.3566V55.0986Z" fill="#FAFAFA"/>
<path d="M94.3566 68.0713H87.603V75.807H94.3566V68.0713Z" fill="#FAFAFA"/>
<path d="M94.3566 81.0459H87.603V88.7816H94.3566V81.0459Z" fill="#FAFAFA"/>
<path d="M94.3566 94.0186H87.603V101.754H94.3566V94.0186Z" fill="#FAFAFA"/>
<path d="M94.3566 106.992H87.603V114.728H94.3566V106.992Z" fill="#FAFAFA"/>
<path d="M94.3566 119.974H87.603V127.709H94.3566V119.974Z" fill="#FAFAFA"/>
<path d="M94.3566 132.939H87.603V140.675H94.3566V132.939Z" fill="#FAFAFA"/>
<path d="M218.825 247.546V123.142H245.683V247.532L218.825 247.546Z" fill="#E0E0E0"/>
<path d="M243.632 127.092H240.379V133.81H243.632V127.092Z" fill="#FAFAFA"/>
<path d="M237.131 127.092H233.878V133.81H237.131V127.092Z" fill="#FAFAFA"/>
<path d="M230.617 127.092H227.365V133.81H230.617V127.092Z" fill="#FAFAFA"/>
<path d="M224.104 127.092H220.852V133.81H224.104V127.092Z" fill="#FAFAFA"/>
<path d="M243.632 138.357H240.379V145.075H243.632V138.357Z" fill="#FAFAFA"/>
<path d="M237.131 138.357H233.878V145.075H237.131V138.357Z" fill="#FAFAFA"/>
<path d="M230.617 138.357H227.365V145.075H230.617V138.357Z" fill="#FAFAFA"/>
<path d="M224.104 138.357H220.852V145.075H224.104V138.357Z" fill="#FAFAFA"/>
<path d="M243.632 149.607H240.379V156.325H243.632V149.607Z" fill="#FAFAFA"/>
<path d="M237.131 149.607H233.878V156.325H237.131V149.607Z" fill="#FAFAFA"/>
<path d="M230.617 149.607H227.365V156.325H230.617V149.607Z" fill="#FAFAFA"/>
<path d="M224.104 149.607H220.852V156.325H224.104V149.607Z" fill="#FAFAFA"/>
<path d="M243.632 160.866H240.379V167.584H243.632V160.866Z" fill="#FAFAFA"/>
<path d="M237.131 160.866H233.878V167.584H237.131V160.866Z" fill="#FAFAFA"/>
<path d="M230.617 160.866H227.365V167.584H230.617V160.866Z" fill="#FAFAFA"/>
<path d="M224.104 160.866H220.852V167.584H224.104V160.866Z" fill="#FAFAFA"/>
<path d="M243.632 172.125H240.379V178.843H243.632V172.125Z" fill="#FAFAFA"/>
<path d="M237.131 172.125H233.878V178.843H237.131V172.125Z" fill="#FAFAFA"/>
<path d="M230.617 172.125H227.365V178.843H230.617V172.125Z" fill="#FAFAFA"/>
<path d="M224.104 172.125H220.852V178.843H224.104V172.125Z" fill="#FAFAFA"/>
<path d="M243.632 183.377H240.379V190.095H243.632V183.377Z" fill="#FAFAFA"/>
<path d="M237.131 183.377H233.878V190.095H237.131V183.377Z" fill="#FAFAFA"/>
<path d="M230.617 183.377H227.365V190.095H230.617V183.377Z" fill="#FAFAFA"/>
<path d="M224.104 183.377H220.852V190.095H224.104V183.377Z" fill="#FAFAFA"/>
<path d="M243.632 194.635H240.379V201.353H243.632V194.635Z" fill="#FAFAFA"/>
<path d="M237.131 194.635H233.878V201.353H237.131V194.635Z" fill="#FAFAFA"/>
<path d="M230.617 194.635H227.365V201.353H230.617V194.635Z" fill="#FAFAFA"/>
<path d="M224.104 194.635H220.852V201.353H224.104V194.635Z" fill="#FAFAFA"/>
<path d="M243.632 205.899H240.379V212.617H243.632V205.899Z" fill="#FAFAFA"/>
<path d="M237.131 205.899H233.878V212.617H237.131V205.899Z" fill="#FAFAFA"/>
<path d="M230.617 205.899H227.365V212.617H230.617V205.899Z" fill="#FAFAFA"/>
<path d="M224.104 205.899H220.852V212.617H224.104V205.899Z" fill="#FAFAFA"/>
<path d="M125.498 247.589V108.78H181.178V247.624C181.178 247.624 125.925 247.639 125.498 247.589Z" fill="#E6E6E6"/>
<path d="M177.002 113.378H170.248V121.114H177.002V113.378Z" fill="#E0E0E0"/>
<path d="M163.489 113.378H156.735V121.114H163.489V113.378Z" fill="#E0E0E0"/>
<path d="M149.995 113.378H143.242V121.114H149.995V113.378Z" fill="#E0E0E0"/>
<path d="M136.489 113.378H129.735V121.114H136.489V113.378Z" fill="#E0E0E0"/>
<path d="M177.002 126.351H170.248V134.086H177.002V126.351Z" fill="#E0E0E0"/>
<path d="M163.489 126.351H156.735V134.086H163.489V126.351Z" fill="#E0E0E0"/>
<path d="M149.995 126.351H143.242V134.086H149.995V126.351Z" fill="#E0E0E0"/>
<path d="M136.489 126.351H129.735V134.086H136.489V126.351Z" fill="#E0E0E0"/>
<path d="M177.002 139.324H170.248V147.06H177.002V139.324Z" fill="#E0E0E0"/>
<path d="M163.489 139.324H156.735V147.06H163.489V139.324Z" fill="#E0E0E0"/>
<path d="M149.995 139.324H143.242V147.06H149.995V139.324Z" fill="#E0E0E0"/>
<path d="M136.489 139.324H129.735V147.06H136.489V139.324Z" fill="#E0E0E0"/>
<path d="M177.002 152.291H170.248V160.027H177.002V152.291Z" fill="#E0E0E0"/>
<path d="M163.489 152.291H156.735V160.027H163.489V152.291Z" fill="#E0E0E0"/>
<path d="M149.995 152.291H143.242V160.027H149.995V152.291Z" fill="#E0E0E0"/>
<path d="M136.489 152.291H129.735V160.027H136.489V152.291Z" fill="#E0E0E0"/>
<path d="M177.002 165.271H170.248V173.007H177.002V165.271Z" fill="#E0E0E0"/>
<path d="M163.489 165.271H156.735V173.007H163.489V165.271Z" fill="#E0E0E0"/>
<path d="M149.995 165.271H143.242V173.007H149.995V165.271Z" fill="#E0E0E0"/>
<path d="M136.489 165.271H129.735V173.007H136.489V165.271Z" fill="#E0E0E0"/>
<path d="M177.002 178.238H170.248V185.974H177.002V178.238Z" fill="#E0E0E0"/>
<path d="M163.489 178.238H156.735V185.974H163.489V178.238Z" fill="#E0E0E0"/>
<path d="M149.995 178.238H143.242V185.974H149.995V178.238Z" fill="#E0E0E0"/>
<path d="M136.489 178.238H129.735V185.974H136.489V178.238Z" fill="#E0E0E0"/>
<path d="M177.002 191.219H170.248V198.954H177.002V191.219Z" fill="#E0E0E0"/>
<path d="M163.489 191.219H156.735V198.954H163.489V191.219Z" fill="#E0E0E0"/>
<path d="M149.995 191.219H143.242V198.954H149.995V191.219Z" fill="#E0E0E0"/>
<path d="M136.489 191.219H129.735V198.954H136.489V191.219Z" fill="#E0E0E0"/>
<path d="M177.002 204.185H170.248V211.92H177.002V204.185Z" fill="#E0E0E0"/>
<path d="M163.489 204.185H156.735V211.92H163.489V204.185Z" fill="#E0E0E0"/>
<path d="M149.995 204.185H143.242V211.92H149.995V204.185Z" fill="#E0E0E0"/>
<path d="M136.489 204.185H129.735V211.92H136.489V204.185Z" fill="#E0E0E0"/>
<path d="M255.44 247.531V99.0791H278.477V247.651C271.189 247.474 255.44 247.531 255.44 247.531Z" fill="#E6E6E6"/>
<path d="M275.074 101.826H268.32V109.562H275.074V101.826Z" fill="#FAFAFA"/>
<path d="M275.074 114.792H268.32V122.528H275.074V114.792Z" fill="#FAFAFA"/>
<path d="M275.074 127.773H268.32V135.509H275.074V127.773Z" fill="#FAFAFA"/>
<path d="M275.074 140.747H268.32V148.483H275.074V140.747Z" fill="#FAFAFA"/>
<path d="M275.074 153.712H268.32V161.448H275.074V153.712Z" fill="#FAFAFA"/>
<path d="M275.074 166.692H268.32V174.428H275.074V166.692Z" fill="#FAFAFA"/>
<path d="M275.074 179.66H268.32V187.396H275.074V179.66Z" fill="#FAFAFA"/>
<path d="M275.074 192.641H268.32V200.376H275.074V192.641Z" fill="#FAFAFA"/>
<path d="M266.042 101.826H259.289V109.562H266.042V101.826Z" fill="#FAFAFA"/>
<path d="M266.042 114.792H259.289V122.528H266.042V114.792Z" fill="#FAFAFA"/>
<path d="M266.042 127.773H259.289V135.509H266.042V127.773Z" fill="#FAFAFA"/>
<path d="M266.042 140.747H259.289V148.483H266.042V140.747Z" fill="#FAFAFA"/>
<path d="M266.042 153.712H259.289V161.448H266.042V153.712Z" fill="#FAFAFA"/>
<path d="M266.042 166.692H259.289V174.428H266.042V166.692Z" fill="#FAFAFA"/>
<path d="M266.042 179.66H259.289V187.396H266.042V179.66Z" fill="#FAFAFA"/>
<path d="M266.042 192.641H259.289V200.376H266.042V192.641Z" fill="#FAFAFA"/>
<path d="M75.4616 101.727H34.8047V247.652H75.4616V101.727Z" fill="#E6E6E6"/>
<path d="M69.4414 107.754H57.5283V115.49H69.4414V107.754Z" fill="#FAFAFA"/>
<path d="M69.4414 120.735H57.5283V128.471H69.4414V120.735Z" fill="#FAFAFA"/>
<path d="M69.4414 133.701H57.5283V141.437H69.4414V133.701Z" fill="#FAFAFA"/>
<path d="M69.4414 146.682H57.5283V154.417H69.4414V146.682Z" fill="#FAFAFA"/>
<path d="M69.4414 159.648H57.5283V167.384H69.4414V159.648Z" fill="#FAFAFA"/>
<path d="M69.4414 172.621H57.5283V180.357H69.4414V172.621Z" fill="#FAFAFA"/>
<path d="M69.4414 185.595H57.5283V193.33H69.4414V185.595Z" fill="#FAFAFA"/>
<path d="M69.4414 198.569H57.5283V206.305H69.4414V198.569Z" fill="#FAFAFA"/>
<path d="M53.4995 107.754H41.5864V115.49H53.4995V107.754Z" fill="#FAFAFA"/>
<path d="M53.4995 120.735H41.5864V128.471H53.4995V120.735Z" fill="#FAFAFA"/>
<path d="M53.4995 133.701H41.5864V141.437H53.4995V133.701Z" fill="#FAFAFA"/>
<path d="M53.4995 146.682H41.5864V154.417H53.4995V146.682Z" fill="#FAFAFA"/>
<path d="M53.4995 159.648H41.5864V167.384H53.4995V159.648Z" fill="#FAFAFA"/>
<path d="M53.4995 172.621H41.5864V180.357H53.4995V172.621Z" fill="#FAFAFA"/>
<path d="M53.4995 185.595H41.5864V193.33H53.4995V185.595Z" fill="#FAFAFA"/>
<path d="M53.4995 198.569H41.5864V206.305H53.4995V198.569Z" fill="#FAFAFA"/>
<path d="M102.056 247.601V139.322H119.791V247.594H102.056V247.601Z" fill="#E0E0E0"/>
<path d="M118.44 142.745H116.291V148.51H118.44V142.745Z" fill="#FAFAFA"/>
<path d="M114.138 142.745H111.989V148.51H114.138V142.745Z" fill="#FAFAFA"/>
<path d="M109.849 142.745H107.7V148.51H109.849V142.745Z" fill="#FAFAFA"/>
<path d="M105.548 142.745H103.398V148.51H105.548V142.745Z" fill="#FAFAFA"/>
<path d="M118.44 152.416H116.291V158.18H118.44V152.416Z" fill="#FAFAFA"/>
<path d="M114.138 152.416H111.989V158.18H114.138V152.416Z" fill="#FAFAFA"/>
<path d="M109.849 152.416H107.7V158.18H109.849V152.416Z" fill="#FAFAFA"/>
<path d="M105.548 152.416H103.398V158.18H105.548V152.416Z" fill="#FAFAFA"/>
<path d="M118.44 162.088H116.291V167.852H118.44V162.088Z" fill="#FAFAFA"/>
<path d="M114.138 162.088H111.989V167.852H114.138V162.088Z" fill="#FAFAFA"/>
<path d="M109.849 162.088H107.7V167.852H109.849V162.088Z" fill="#FAFAFA"/>
<path d="M105.548 162.088H103.398V167.852H105.548V162.088Z" fill="#FAFAFA"/>
<path d="M118.44 171.761H116.291V177.525H118.44V171.761Z" fill="#FAFAFA"/>
<path d="M114.138 171.761H111.989V177.525H114.138V171.761Z" fill="#FAFAFA"/>
<path d="M109.849 171.761H107.7V177.525H109.849V171.761Z" fill="#FAFAFA"/>
<path d="M105.548 171.761H103.398V177.525H105.548V171.761Z" fill="#FAFAFA"/>
<path d="M118.44 181.438H116.291V187.202H118.44V181.438Z" fill="#FAFAFA"/>
<path d="M114.138 181.438H111.989V187.202H114.138V181.438Z" fill="#FAFAFA"/>
<path d="M109.849 181.438H107.7V187.202H109.849V181.438Z" fill="#FAFAFA"/>
<path d="M105.548 181.438H103.398V187.202H105.548V181.438Z" fill="#FAFAFA"/>
<path d="M118.44 191.109H116.291V196.874H118.44V191.109Z" fill="#FAFAFA"/>
<path d="M114.138 191.109H111.989V196.874H114.138V191.109Z" fill="#FAFAFA"/>
<path d="M109.849 191.109H107.7V196.874H109.849V191.109Z" fill="#FAFAFA"/>
<path d="M105.548 191.109H103.398V196.874H105.548V191.109Z" fill="#FAFAFA"/>
<path d="M118.44 200.78H116.291V206.545H118.44V200.78Z" fill="#FAFAFA"/>
<path d="M114.138 200.78H111.989V206.545H114.138V200.78Z" fill="#FAFAFA"/>
<path d="M109.849 200.78H107.7V206.545H109.849V200.78Z" fill="#FAFAFA"/>
<path d="M105.548 200.78H103.398V206.545H105.548V200.78Z" fill="#FAFAFA"/>
<path d="M118.44 210.451H116.291V216.216H118.44V210.451Z" fill="#FAFAFA"/>
<path d="M114.138 210.451H111.989V216.216H114.138V210.451Z" fill="#FAFAFA"/>
<path d="M109.849 210.451H107.7V216.216H109.849V210.451Z" fill="#FAFAFA"/>
<path d="M105.548 210.451H103.398V216.216H105.548V210.451Z" fill="#FAFAFA"/>
<path d="M276.416 247.644V155.371H323.819V247.488L276.416 247.637V247.644Z" fill="#FAFAFA"/>
<path d="M320.237 158.246H314.487V163.085H320.237V158.246Z" fill="#E0E0E0"/>
<path d="M308.744 158.246H302.994V163.085H308.744V158.246Z" fill="#E0E0E0"/>
<path d="M297.258 158.246H291.508V163.085H297.258V158.246Z" fill="#E0E0E0"/>
<path d="M285.758 158.246H280.008V163.085H285.758V158.246Z" fill="#E0E0E0"/>
<path d="M320.237 166.359H314.487V171.199H320.237V166.359Z" fill="#E0E0E0"/>
<path d="M308.744 166.359H302.994V171.199H308.744V166.359Z" fill="#E0E0E0"/>
<path d="M297.258 166.359H291.508V171.199H297.258V166.359Z" fill="#E0E0E0"/>
<path d="M285.758 166.359H280.008V171.199H285.758V166.359Z" fill="#E0E0E0"/>
<path d="M320.237 174.472H314.487V179.311H320.237V174.472Z" fill="#E0E0E0"/>
<path d="M308.744 174.472H302.994V179.311H308.744V174.472Z" fill="#E0E0E0"/>
<path d="M297.258 174.472H291.508V179.311H297.258V174.472Z" fill="#E0E0E0"/>
<path d="M285.758 174.472H280.008V179.311H285.758V174.472Z" fill="#E0E0E0"/>
<path d="M320.237 182.585H314.487V187.424H320.237V182.585Z" fill="#E0E0E0"/>
<path d="M308.744 182.585H302.994V187.424H308.744V182.585Z" fill="#E0E0E0"/>
<path d="M297.258 182.585H291.508V187.424H297.258V182.585Z" fill="#E0E0E0"/>
<path d="M285.758 182.585H280.008V187.424H285.758V182.585Z" fill="#E0E0E0"/>
<path d="M320.237 190.683H314.487V195.522H320.237V190.683Z" fill="#E0E0E0"/>
<path d="M308.744 190.683H302.994V195.522H308.744V190.683Z" fill="#E0E0E0"/>
<path d="M297.258 190.683H291.508V195.522H297.258V190.683Z" fill="#E0E0E0"/>
<path d="M285.758 190.683H280.008V195.522H285.758V190.683Z" fill="#E0E0E0"/>
<path d="M320.237 198.796H314.487V203.635H320.237V198.796Z" fill="#E0E0E0"/>
<path d="M308.744 198.796H302.994V203.635H308.744V198.796Z" fill="#E0E0E0"/>
<path d="M297.258 198.796H291.508V203.635H297.258V198.796Z" fill="#E0E0E0"/>
<path d="M285.758 198.796H280.008V203.635H285.758V198.796Z" fill="#E0E0E0"/>
<path d="M320.237 206.908H314.487V211.747H320.237V206.908Z" fill="#E0E0E0"/>
<path d="M308.744 206.908H302.994V211.747H308.744V206.908Z" fill="#E0E0E0"/>
<path d="M297.258 206.908H291.508V211.747H297.258V206.908Z" fill="#E0E0E0"/>
<path d="M285.758 206.908H280.008V211.747H285.758V206.908Z" fill="#E0E0E0"/>
<path d="M294.786 234.137C296.195 232.813 299.191 237.944 299.191 237.944C299.191 237.944 295.967 226.757 299.198 226.722C302.429 226.686 302.593 236.265 302.593 236.265C302.593 236.265 303.632 217.221 307.838 218.73C312.044 220.238 305.909 237.233 305.909 237.233C305.909 237.233 311.346 225.149 313.431 227.526C315.516 229.903 308.649 240.008 308.649 240.008C308.649 240.008 313.666 236.763 313.339 239.076C313.011 241.389 302.137 247.431 302.137 247.431C298.657 243.31 293.384 235.461 294.793 234.137H294.786Z" fill="#E6E6E6"/>
<path d="M302.11 247.545C302.11 247.545 303.818 239.403 304.8 233.859" stroke="#E0E0E0" stroke-width="0.355828" stroke-linecap="round" stroke-linejoin="round"/>
<path d="M303.235 242.164L306.558 238.036" stroke="#E0E0E0" stroke-width="0.355828" stroke-linecap="round" stroke-linejoin="round"/>
<path d="M24.2117 236.387C25.2436 234.743 29.4352 238.956 29.4352 238.956C29.4352 238.956 23.4858 228.95 26.6029 228.096C29.7199 227.242 32.3032 236.473 32.3032 236.473C32.3032 236.473 28.4887 217.785 32.9366 218.176C37.3844 218.567 35.7476 236.565 35.7476 236.565C35.7476 236.565 37.9538 223.499 40.5655 225.271C43.1773 227.043 39.0924 238.558 39.0924 238.558C39.0924 238.558 43.1275 234.153 43.3979 236.473C43.6684 238.793 34.673 247.389 34.673 247.389C30.2608 244.28 23.1798 238.024 24.2046 236.387H24.2117Z" fill="#E0E0E0"/>
<path d="M34.6775 247.509C34.6775 247.509 34.2719 239.204 33.8164 233.589" stroke="#E0E0E0" stroke-width="0.355828" stroke-linecap="round" stroke-linejoin="round"/>
<path d="M34.4043 242.022L36.5748 237.183" stroke="#E0E0E0" stroke-width="0.355828" stroke-linecap="round" stroke-linejoin="round"/>
<path d="M127.205 11.4958C128.279 10.6846 129.852 10.592 131.019 11.2752C132.564 8.15107 136.876 6.77045 139.951 8.41438C140.755 5.04825 144.071 2.45782 147.537 2.50052C151.003 2.54322 154.255 5.21193 154.974 8.59941C155.088 9.14027 155.166 9.73094 155.55 10.1224C156.176 10.7628 157.222 10.5493 158.112 10.4782C160.916 10.2576 163.741 12.2289 164.503 14.9331L125.881 14.7908C125.54 13.4814 126.123 12.3143 127.205 11.4958Z" fill="#E0E0E0"/>
<path d="M16.8655 63.0046C17.9401 62.1934 19.5128 62.1008 20.68 62.784C22.2243 59.6599 26.5369 58.2792 29.6112 59.9232C30.4154 56.557 33.7317 53.9666 37.1975 54.0093C40.6633 54.052 43.9155 56.7207 44.6343 60.1082C44.7482 60.6491 44.8264 61.2397 45.2107 61.6311C45.837 62.2716 46.8831 62.0581 47.7727 61.987C50.5766 61.7664 53.4019 63.7376 54.1634 66.4419L15.5418 66.2996C15.2002 64.9902 15.7838 63.823 16.8655 63.0046Z" fill="#F0F0F0"/>
<path d="M48.5052 22.441C49.4018 21.7578 50.7184 21.6867 51.6934 22.256C52.9886 19.6442 56.5824 18.4913 59.1515 19.8719C59.8205 17.0609 62.5959 14.8975 65.4853 14.933C68.3746 14.9686 71.0931 17.1961 71.698 20.0214C71.7905 20.4697 71.8546 20.9608 72.1748 21.2881C72.6943 21.8219 73.5697 21.644 74.3169 21.587C76.6583 21.402 79.0138 23.0459 79.6543 25.309L47.4021 25.1951C47.1174 24.1063 47.6085 23.1242 48.5052 22.4481V22.441Z" fill="#F5F5F5"/>
<path d="M307.262 107.412C308.159 106.729 309.475 106.657 310.45 107.227C311.745 104.615 315.339 103.462 317.908 104.843C318.577 102.032 321.353 99.8682 324.242 99.9038C327.131 99.9393 329.85 102.167 330.455 104.992C330.547 105.44 330.611 105.931 330.932 106.259C331.451 106.793 332.327 106.615 333.074 106.558C335.415 106.373 337.771 108.017 338.411 110.28L306.159 110.166C305.874 109.077 306.365 108.095 307.262 107.419V107.412Z" fill="#F5F5F5"/>
<path d="M215.632 7.51719C216.528 6.834 217.845 6.76284 218.82 7.33216C220.115 4.72038 223.709 3.5675 226.278 4.94811C226.947 2.13707 229.722 -0.0263611 232.612 0.00922172C235.501 0.0448045 238.22 2.27229 238.824 5.09756C238.917 5.5459 238.981 6.03695 239.301 6.36431C239.821 6.89805 240.696 6.72014 241.443 6.6632C243.785 6.47817 246.14 8.1221 246.781 10.3852L214.529 10.2713C214.244 9.18247 214.735 8.20038 215.632 7.52431V7.51719Z" fill="#F5F5F5"/>
<path d="M308.846 48.316C309.743 47.6328 311.059 47.5617 312.034 48.131C313.33 45.5192 316.923 44.3663 319.493 45.7469C320.162 42.9359 322.937 40.7725 325.826 40.808C328.716 40.8436 331.434 43.0711 332.039 45.8964C332.132 46.3447 332.196 46.8358 332.523 47.1631C333.042 47.6969 333.918 47.519 334.665 47.462C337.006 47.277 339.362 48.9209 340.002 51.184L307.75 51.0701C307.466 49.9813 307.957 48.9992 308.853 48.3231L308.846 48.316Z" fill="#E0E0E0"/>
<path d="M140.223 52.6512C140.998 52.0606 142.137 51.9965 142.977 52.4876C144.094 50.2316 147.204 49.2353 149.431 50.4238C150.008 47.9899 152.406 46.1182 154.911 46.1538C157.416 46.1894 159.765 48.1109 160.284 50.559C160.37 50.9504 160.419 51.3703 160.697 51.6549C161.145 52.1175 161.9 51.9609 162.547 51.9111C164.576 51.7546 166.611 53.1779 167.159 55.1278L139.269 55.0282C139.027 54.0817 139.447 53.2419 140.223 52.6512Z" fill="#F5F5F5"/>
<path d="M219.471 68.2778C220.567 67.4523 222.161 67.3598 223.342 68.0501C224.915 64.8761 229.291 63.4741 232.408 65.1465C233.22 61.7235 236.593 59.0975 240.109 59.1402C243.624 59.1829 246.933 61.8943 247.659 65.3316C247.773 65.8795 247.851 66.4773 248.243 66.8759C248.876 67.5235 249.937 67.31 250.84 67.2388C253.687 67.0182 256.555 69.0179 257.324 71.7649L218.111 71.6226C217.77 70.2918 218.36 69.1105 219.456 68.2778H219.471Z" fill="#F0F0F0"/>
<path d="M35.3618 201.926H65.963" stroke="black" stroke-width="0.533742" stroke-linecap="round" stroke-linejoin="round"/>
<path d="M27.9727 205.896H58.5739" stroke="black" stroke-width="0.533742" stroke-linecap="round" stroke-linejoin="round"/>
<path d="M129.032 96.6006H150.097" stroke="black" stroke-width="0.533742" stroke-linecap="round" stroke-linejoin="round"/>
<path d="M123.944 99.1768H145.009" stroke="black" stroke-width="0.533742" stroke-linecap="round" stroke-linejoin="round"/>
</svg>
