<svg width="251" height="255" viewBox="0 0 251 255" fill="none" xmlns="http://www.w3.org/2000/svg">
<g clip-path="url(#clip0_374_3727)">
<path d="M162.303 102.551C162.303 102.551 170.16 109.725 176.322 132.626C182.471 155.514 184.521 182.515 194.769 189.347C205.018 196.18 220.049 186.956 229.285 199.254C238.509 211.552 222.453 225.217 213.571 227.609C204.689 230 186.241 234.099 168.806 222.484C151.384 210.869 162.315 102.551 162.315 102.551H162.303Z" fill="#262626"/>
<path d="M172.555 223.169H48.8633C48.8633 223.169 51.2546 103.235 63.5529 98.1111C75.8512 92.9868 97.3858 82.7383 97.3858 82.7383L133.268 87.1793C133.268 87.1793 156.84 92.9868 162.306 102.552C163.71 105.007 165.064 114.104 166.304 126.301C167.19 134.993 168.012 145.267 168.759 155.807C171.049 188.197 172.555 223.169 172.555 223.169Z" fill="black"/>
<path d="M102.011 62.5673L101.492 78.965C101.492 78.965 115.84 90.7572 125.241 90.2385C134.642 89.7197 133.275 87.1639 133.275 87.1639L133.44 75.7133C133.44 75.7133 110.893 62.7318 101.998 62.5547L102.011 62.5673Z" fill="#C17638"/>
<path d="M151.332 56.8109C150.307 74.2334 140.704 78.4594 132.505 81.0279C124.331 83.5837 109.288 76.2072 103.86 67.0215C103.86 66.9962 103.834 66.9582 103.809 66.9329C103.543 66.4774 103.29 66.0093 103.063 65.5411C98.5456 56.6211 99.4692 46.5117 99.4692 46.5117C99.4692 46.5117 99.2161 40.7042 99.5072 33.8718C99.7982 27.0395 100.671 19.1822 102.885 15.0828C107.339 6.88395 120.738 4.91016 126.634 4.91016C132.53 4.91016 143.804 9.26263 148.422 15.4118C153.04 21.5609 151.674 51.674 151.37 56.8109H151.332Z" fill="#E1964F"/>
<path d="M137.473 61.5028C137.473 61.5028 131.815 63.6324 127.837 61.8869C127.837 61.8869 127.837 61.817 127.764 61.7821C127.435 61.2585 127.143 60.7348 126.888 60.2111C127.253 60.3159 132.217 61.7821 136.122 59.6875L137.473 61.4679V61.5028Z" fill="#EFF5E1"/>
<ellipse cx="3.69839" cy="2.98258" rx="3.69839" ry="2.98258" transform="matrix(-1 0 0 1 138.66 49.4297)" fill="url(#paint0_linear_374_3727)"/>
<path d="M99.5648 32.0781C99.5648 32.0781 94.9466 32.3312 92.5173 37.0759C90.0881 41.8206 91.8721 52.5753 100.337 53.7393C108.789 54.8907 99.5648 32.0908 99.5648 32.0908V32.0781Z" fill="#E1964F"/>
<path d="M151.204 17.5894C151.204 17.5894 145.561 19.5126 133.009 18.8673C120.458 18.222 114.689 17.0706 114.689 17.0706C114.689 17.0706 115.84 24.2446 113.145 30.0142C110.45 35.7837 107.502 34.4932 106.743 38.9848C105.971 43.4638 106.224 45.9058 103.921 45.7793C101.619 45.6527 101.808 35.594 100.404 33.4177C98.9994 31.2415 94.1282 34.3793 93.6727 35.4042C93.2299 36.429 86.8783 17.4629 99.1133 10.8709C99.1133 10.8709 102.896 1.52066 119.168 0.812114C135.439 0.103571 148.446 5.87313 151.204 17.602V17.5894Z" fill="#151A25"/>
<path d="M116.517 34.289C116.517 34.289 118.225 31.303 122.843 31.303C127.461 31.303 127.879 34.1245 129.334 33.8715C130.789 33.6184 130.194 28.9117 125.488 27.9754C120.794 27.0391 116.428 29.2533 116.517 34.3016V34.289Z" fill="#151A25"/>
<path d="M150.202 34.1991C150.202 34.1991 148.747 31.2131 144.799 31.2131C140.851 31.2131 140.497 34.0347 139.257 33.7816C138.017 33.5286 138.523 28.8218 142.547 27.8855C146.558 26.9492 150.29 29.1634 150.214 34.2118L150.202 34.1991Z" fill="#151A25"/>
<path d="M125.826 39.1864C125.826 40.6415 125.142 41.8181 124.282 41.8181C123.422 41.8181 122.738 40.6415 122.738 39.1864C122.738 37.7314 123.422 36.5547 124.282 36.5547C125.142 36.5547 125.826 37.7314 125.826 39.1864Z" fill="#151A25"/>
<path d="M143.642 39.0614C143.642 40.5165 142.959 41.6931 142.098 41.6931C141.238 41.6931 140.555 40.5165 140.555 39.0614C140.555 37.6064 141.238 36.4297 142.098 36.4297C142.959 36.4297 143.642 37.6064 143.642 39.0614Z" fill="#151A25"/>
<path d="M168.756 155.793C159.52 159.728 141.402 165.839 117.628 165.839C82.5168 165.839 66.8909 151.744 66.8909 151.744L73.5588 125.098C73.5588 125.098 99.4459 140.989 130.192 138.421C151.334 136.662 161.81 130.171 166.302 126.3C167.188 134.992 168.01 145.266 168.756 155.805V155.793Z" fill="#6FD191"/>
<path d="M97.3906 82.7272L101.326 73.668C101.326 73.668 118.925 85.283 125.58 85.8018L126.782 88.8763L128.149 85.283C128.149 85.283 132.248 84.2581 133.273 82.7145C134.298 81.1709 135.842 89.724 135.842 89.724C135.842 89.724 134.298 93.3174 124.05 93.3174C113.801 93.3174 97.4033 82.7272 97.4033 82.7272H97.3906Z" fill="#47286F"/>
<path d="M126.082 92.6315C126.082 92.6315 138.38 198.128 137.355 221.966L140.949 222.219C140.949 222.219 136.849 118.936 128.132 92.543L126.082 92.6315Z" fill="#B2BFE1"/>
<path d="M160.167 254.773H110.961V160.461L159.319 162.169L160.167 254.773Z" fill="#47286F"/>
<path d="M250.59 254.984H159.403L159.238 162.215L250.59 160.672V254.984Z" fill="#6632AA"/>
<path d="M110.961 160.46L159.661 163.028L250.594 160.675L172.731 156.879L110.961 160.46Z" fill="#3B1868"/>
<path d="M216.379 161.684L204.832 161.849V255.021H216.379V161.684Z" fill="white"/>
<path d="M140.48 239.946C135.356 248.828 71.4605 252.599 50.6218 238.251C41.727 232.127 38.1211 214.515 37.248 194.726C36.084 168.118 39.8671 137.587 42.4229 125.833C46.864 105.336 63.6033 97.8203 63.6033 97.8203C63.6033 97.8203 64.8559 98.6048 66.6399 100.477C71.0303 105.07 78.6472 116.154 78.6472 137.802C78.6472 168.206 75.231 181.884 77.6223 188.033C80.0136 194.182 84.4547 194.524 83.7714 200.673C83.0882 206.822 122.033 199.306 135.71 208.53C149.375 217.754 145.617 231.077 140.493 239.959L140.48 239.946Z" fill="#262626"/>
<path d="M136.335 215.693C136.335 215.693 143.635 213.391 145.052 211.214C146.457 209.038 151.454 204.686 155.946 203.142C160.425 201.598 164.018 199.422 166.587 200.713C169.155 201.991 164.537 205.331 161.463 205.964C158.388 206.609 154.934 209.683 155.693 209.936C156.465 210.19 164.284 207.115 169.788 206.482C175.292 205.837 179.53 205.204 184.136 206.482C188.754 207.76 186.439 210.835 184.009 211.227C181.58 211.607 178.759 211.48 176.835 211.746C174.912 211.999 172.091 213.669 172.091 213.669C172.091 213.669 178.493 213.15 183.111 213.669C187.729 214.188 189.64 214.694 189.64 216.364C189.64 218.034 185.287 218.667 181.567 218.667C177.848 218.667 172.217 220.071 172.217 220.071C172.217 220.071 179.91 219.945 183.491 221.223C187.071 222.5 186.439 224.044 183.491 224.677C180.543 225.322 177.468 224.297 173.875 225.195C170.281 226.094 172.331 226.347 174.52 226.347C176.709 226.347 180.29 227.119 180.922 228.143C181.567 229.168 178.872 230.838 171.952 230.32C165.031 229.801 158.881 231.863 154.263 233.015C149.645 234.166 142.471 235.064 137.739 233.913C132.994 232.762 129.414 223.272 136.335 215.719V215.693Z" fill="#E1964F"/>
<g clip-path="url(#clip1_374_3727)">
<path d="M212.419 81.8359C202.091 81.8359 193.627 90.2747 193.627 100.574C193.627 104.565 194.902 108.274 197.059 111.322L210.125 133.912C211.955 136.302 213.172 135.848 214.693 133.785L229.106 109.259C229.397 108.732 229.625 108.171 229.824 107.598C230.739 105.369 231.209 102.983 231.209 100.574C231.21 90.2747 222.748 81.8359 212.419 81.8359ZM212.419 90.6157C217.981 90.6157 222.404 95.0284 222.404 100.574C222.404 106.12 217.981 110.531 212.419 110.531C206.857 110.531 202.433 106.121 202.433 100.574C202.433 95.0284 206.857 90.6164 212.419 90.6164" fill="#52BC77"/>
<path d="M224.365 112.729L224.334 112.808C224.344 112.784 224.351 112.759 224.361 112.735L224.365 112.729ZM202.316 125.455C193.393 126.716 187.153 129.732 187.153 134.172C187.153 140.152 197.58 145 212.418 145C227.257 145 237.684 140.152 237.684 134.172C237.684 129.732 231.444 126.716 222.522 125.455L221.286 127.56C228.011 128.493 232.631 130.454 232.631 132.729C232.631 135.919 223.581 138.504 212.418 138.504C201.255 138.504 192.206 135.919 192.206 132.729C192.205 130.461 196.795 128.502 203.541 127.566C203.133 126.862 202.724 126.16 202.316 125.455Z" fill="#52BC77"/>
</g>
</g>
<defs>
<linearGradient id="paint0_linear_374_3727" x1="-1.22467e-08" y1="2.98258" x2="5.38898" y2="3.32747" gradientUnits="userSpaceOnUse">
<stop stop-color="#C17638"/>
<stop offset="1" stop-color="#E1964F"/>
</linearGradient>
<clipPath id="clip0_374_3727">
<rect width="249.673" height="254.24" fill="white" transform="translate(0.921875 0.757812)"/>
</clipPath>
<clipPath id="clip1_374_3727">
<rect width="63.1641" height="63.1641" fill="white" transform="translate(180.836 81.8359)"/>
</clipPath>
</defs>
</svg>
